%TF.GenerationSoftware,KiCad,Pcbnew,9.0.1+1*%
%TF.CreationDate,2025-06-01T22:03:51+02:00*%
%TF.ProjectId,isa_8bit_protoboard,6973615f-3862-4697-945f-70726f746f62,rev?*%
%TF.SameCoordinates,Original*%
%TF.FileFunction,Soldermask,Top*%
%TF.FilePolarity,Negative*%
%FSLAX46Y46*%
G04 Gerber Fmt 4.6, Leading zero omitted, Abs format (unit mm)*
G04 Created by KiCad (PCBNEW 9.0.1+1) date 2025-06-01 22:03:51*
%MOMM*%
%LPD*%
G01*
G04 APERTURE LIST*
%ADD10C,0.100000*%
%ADD11R,1.780000X6.784748*%
%ADD12R,1.780000X6.784746*%
%ADD13R,1.780000X6.784747*%
%ADD14R,1.700000X1.700000*%
G04 APERTURE END LIST*
D10*
X177800000Y-142240000D02*
X96520000Y-142240000D01*
X96520000Y-134620000D01*
X177800000Y-134620000D01*
X177800000Y-142240000D01*
G36*
X177800000Y-142240000D02*
G01*
X96520000Y-142240000D01*
X96520000Y-134620000D01*
X177800000Y-134620000D01*
X177800000Y-142240000D01*
G37*
D11*
%TO.C,J3*%
X175260000Y-138012377D03*
X172720000Y-138012377D03*
X170180000Y-138012377D03*
X167640000Y-138012377D03*
X165100000Y-138012377D03*
X162560000Y-138012377D03*
X160020000Y-138012377D03*
X157480000Y-138012377D03*
X154940000Y-138012377D03*
X152400000Y-138012377D03*
X149860000Y-138012377D03*
X147320000Y-138012377D03*
X144780000Y-138012377D03*
X142240000Y-138012377D03*
X139700000Y-138012377D03*
X137160000Y-138012377D03*
X134620000Y-138012377D03*
X132080000Y-138012377D03*
X129540000Y-138012377D03*
X127000000Y-138012377D03*
X124460000Y-138012377D03*
X121920000Y-138012377D03*
X119380000Y-138012377D03*
X116840000Y-138012377D03*
X114300000Y-138012377D03*
X111760000Y-138012377D03*
X109220000Y-138012377D03*
X106680000Y-138012377D03*
X104140000Y-138012377D03*
D12*
X101600000Y-138012378D03*
D13*
X99060000Y-138012377D03*
%TD*%
D14*
%TO.C,REF\u002A\u002A694*%
X121158000Y-89916000D03*
%TD*%
%TO.C,REF\u002A\u002A33*%
X179578000Y-44196000D03*
%TD*%
%TO.C,REF\u002A\u002A1140*%
X194818000Y-117856000D03*
%TD*%
%TO.C,REF\u002A\u002A89*%
X128778000Y-49276000D03*
%TD*%
%TO.C,REF\u002A\u002A281*%
X133858000Y-61976000D03*
%TD*%
%TO.C,REF\u002A\u002A735*%
X128778000Y-92456000D03*
%TD*%
%TO.C,REF\u002A\u002A1145*%
X108458000Y-120396000D03*
%TD*%
%TO.C,REF\u002A\u002A250*%
X151638000Y-59436000D03*
%TD*%
%TO.C,REF\u002A\u002A421*%
X103378000Y-72136000D03*
%TD*%
%TO.C,REF\u002A\u002A780*%
X146558000Y-94996000D03*
%TD*%
%TO.C,REF\u002A\u002A546*%
X131318000Y-79756000D03*
%TD*%
%TO.C,REF\u002A\u002A1019*%
X174498000Y-110236000D03*
%TD*%
%TO.C,REF\u002A\u002A375*%
X179578000Y-67056000D03*
%TD*%
%TO.C,REF\u002A\u002A927*%
X133858000Y-105156000D03*
%TD*%
%TO.C,REF\u002A\u002A205*%
X133858000Y-56896000D03*
%TD*%
%TO.C,REF\u002A\u002A484*%
X166878000Y-74676000D03*
%TD*%
%TO.C,REF\u002A\u002A1178*%
X192278000Y-120396000D03*
%TD*%
%TO.C,REF\u002A\u002A792*%
X177038000Y-94996000D03*
%TD*%
%TO.C,REF\u002A\u002A850*%
X131318000Y-100076000D03*
%TD*%
%TO.C,REF\u002A\u002A137*%
X154178000Y-51816000D03*
%TD*%
%TO.C,REF\u002A\u002A81*%
X108458000Y-49276000D03*
%TD*%
%TO.C,REF\u002A\u002A361*%
X144018000Y-67056000D03*
%TD*%
%TO.C,REF\u002A\u002A302*%
X187198000Y-61976000D03*
%TD*%
%TO.C,REF\u002A\u002A879*%
X108458000Y-102616000D03*
%TD*%
%TO.C,REF\u002A\u002A402*%
X151638000Y-69596000D03*
%TD*%
%TO.C,REF\u002A\u002A877*%
X103378000Y-102616000D03*
%TD*%
%TO.C,REF\u002A\u002A478*%
X151638000Y-74676000D03*
%TD*%
%TO.C,REF\u002A\u002A996*%
X116078000Y-110236000D03*
%TD*%
%TO.C,REF\u002A\u002A292*%
X161798000Y-61976000D03*
%TD*%
%TO.C,REF\u002A\u002A172*%
X146558000Y-54356000D03*
%TD*%
%TO.C,REF\u002A\u002A801*%
X103378000Y-97536000D03*
%TD*%
%TO.C,REF\u002A\u002A342*%
X192278000Y-64516000D03*
%TD*%
%TO.C,REF\u002A\u002A1071*%
X113538000Y-115316000D03*
%TD*%
%TO.C,REF\u002A\u002A684*%
X192278000Y-87376000D03*
%TD*%
%TO.C,REF\u002A\u002A1245*%
X169418000Y-125476000D03*
%TD*%
%TO.C,REF\u002A\u002A1052*%
X161798000Y-112776000D03*
%TD*%
%TO.C,REF\u002A\u002A994*%
X110998000Y-110236000D03*
%TD*%
%TO.C,REF\u002A\u002A606*%
X187198000Y-82296000D03*
%TD*%
%TO.C,REF\u002A\u002A949*%
X189738000Y-105156000D03*
%TD*%
%TO.C,REF\u002A\u002A703*%
X144018000Y-89916000D03*
%TD*%
%TO.C,REF\u002A\u002A238*%
X121158000Y-59436000D03*
%TD*%
%TO.C,REF\u002A\u002A216*%
X161798000Y-56896000D03*
%TD*%
%TO.C,REF\u002A\u002A1085*%
X149098000Y-115316000D03*
%TD*%
%TO.C,REF\u002A\u002A550*%
X141478000Y-79756000D03*
%TD*%
%TO.C,REF\u002A\u002A330*%
X161798000Y-64516000D03*
%TD*%
%TO.C,REF\u002A\u002A1213*%
X184658000Y-122936000D03*
%TD*%
%TO.C,REF\u002A\u002A589*%
X144018000Y-82296000D03*
%TD*%
%TO.C,REF\u002A\u002A162*%
X121158000Y-54356000D03*
%TD*%
%TO.C,REF\u002A\u002A1064*%
X194818000Y-112776000D03*
%TD*%
%TO.C,REF\u002A\u002A1061*%
X184658000Y-112776000D03*
%TD*%
%TO.C,REF\u002A\u002A1125*%
X154178000Y-117856000D03*
%TD*%
%TO.C,REF\u002A\u002A901*%
X164338000Y-102616000D03*
%TD*%
%TO.C,REF\u002A\u002A659*%
X128778000Y-87376000D03*
%TD*%
%TO.C,REF\u002A\u002A495*%
X98298000Y-77216000D03*
%TD*%
%TO.C,REF\u002A\u002A609*%
X98298000Y-84836000D03*
%TD*%
%TO.C,REF\u002A\u002A270*%
X105918000Y-61976000D03*
%TD*%
%TO.C,REF\u002A\u002A420*%
X100838000Y-72136000D03*
%TD*%
%TO.C,REF\u002A\u002A*%
X192278000Y-133096000D03*
%TD*%
%TO.C,REF\u002A\u002A1072*%
X116078000Y-115316000D03*
%TD*%
%TO.C,REF\u002A\u002A646*%
X192278000Y-84836000D03*
%TD*%
%TO.C,REF\u002A\u002A293*%
X164338000Y-61976000D03*
%TD*%
%TO.C,REF\u002A\u002A1088*%
X156718000Y-115316000D03*
%TD*%
%TO.C,REF\u002A\u002A684*%
X194818000Y-87376000D03*
%TD*%
%TO.C,REF\u002A\u002A874*%
X192278000Y-100076000D03*
%TD*%
%TO.C,REF\u002A\u002A357*%
X133858000Y-67056000D03*
%TD*%
%TO.C,REF\u002A\u002A313*%
X118618000Y-64516000D03*
%TD*%
%TO.C,REF\u002A\u002A870*%
X182118000Y-100076000D03*
%TD*%
%TO.C,REF\u002A\u002A797*%
X189738000Y-94996000D03*
%TD*%
%TO.C,REF\u002A\u002A78*%
X100838000Y-49276000D03*
%TD*%
%TO.C,REF\u002A\u002A744*%
X151638000Y-92456000D03*
%TD*%
%TO.C,REF\u002A\u002A*%
X192278000Y-128016000D03*
%TD*%
%TO.C,REF\u002A\u002A491*%
X184658000Y-74676000D03*
%TD*%
%TO.C,REF\u002A\u002A750*%
X166878000Y-92456000D03*
%TD*%
%TO.C,REF\u002A\u002A531*%
X189738000Y-77216000D03*
%TD*%
%TO.C,REF\u002A\u002A1089*%
X159258000Y-115316000D03*
%TD*%
%TO.C,REF\u002A\u002A1119*%
X138938000Y-117856000D03*
%TD*%
%TO.C,REF\u002A\u002A564*%
X177038000Y-79756000D03*
%TD*%
%TO.C,REF\u002A\u002A608*%
X194818000Y-82296000D03*
%TD*%
%TO.C,REF\u002A\u002A872*%
X187198000Y-100076000D03*
%TD*%
%TO.C,REF\u002A\u002A670*%
X156718000Y-87376000D03*
%TD*%
%TO.C,REF\u002A\u002A1252*%
X187198000Y-125476000D03*
%TD*%
%TO.C,REF\u002A\u002A446*%
X166878000Y-72136000D03*
%TD*%
%TO.C,REF\u002A\u002A653*%
X113538000Y-87376000D03*
%TD*%
%TO.C,REF\u002A\u002A988*%
X192278000Y-107696000D03*
%TD*%
%TO.C,REF\u002A\u002A1168*%
X166878000Y-120396000D03*
%TD*%
%TO.C,REF\u002A\u002A616*%
X116078000Y-84836000D03*
%TD*%
%TO.C,REF\u002A\u002A912*%
X194818000Y-102616000D03*
%TD*%
%TO.C,REF\u002A\u002A867*%
X174498000Y-100076000D03*
%TD*%
%TO.C,REF\u002A\u002A1*%
X98298000Y-44196000D03*
%TD*%
%TO.C,REF\u002A\u002A262*%
X182118000Y-59436000D03*
%TD*%
%TO.C,REF\u002A\u002A1146*%
X110998000Y-120396000D03*
%TD*%
%TO.C,REF\u002A\u002A982*%
X177038000Y-107696000D03*
%TD*%
%TO.C,REF\u002A\u002A749*%
X164338000Y-92456000D03*
%TD*%
%TO.C,REF\u002A\u002A268*%
X100838000Y-61976000D03*
%TD*%
%TO.C,REF\u002A\u002A372*%
X171958000Y-67056000D03*
%TD*%
%TO.C,REF\u002A\u002A481*%
X159258000Y-74676000D03*
%TD*%
%TO.C,REF\u002A\u002A1102*%
X192278000Y-115316000D03*
%TD*%
%TO.C,REF\u002A\u002A1254*%
X194818000Y-125476000D03*
%TD*%
%TO.C,REF\u002A\u002A908*%
X182118000Y-102616000D03*
%TD*%
%TO.C,REF\u002A\u002A856*%
X146558000Y-100076000D03*
%TD*%
%TO.C,REF\u002A\u002A651*%
X108458000Y-87376000D03*
%TD*%
%TO.C,REF\u002A\u002A1060*%
X182118000Y-112776000D03*
%TD*%
%TO.C,REF\u002A\u002A933*%
X149098000Y-105156000D03*
%TD*%
%TO.C,REF\u002A\u002A658*%
X126238000Y-87376000D03*
%TD*%
%TO.C,REF\u002A\u002A41*%
X103378000Y-46736000D03*
%TD*%
%TO.C,REF\u002A\u002A1300*%
X119380000Y-130556000D03*
%TD*%
%TO.C,REF\u002A\u002A545*%
X128778000Y-79756000D03*
%TD*%
%TO.C,REF\u002A\u002A324*%
X146558000Y-64516000D03*
%TD*%
%TO.C,REF\u002A\u002A944*%
X177038000Y-105156000D03*
%TD*%
%TO.C,REF\u002A\u002A111*%
X184658000Y-49276000D03*
%TD*%
%TO.C,REF\u002A\u002A627*%
X144018000Y-84836000D03*
%TD*%
%TO.C,REF\u002A\u002A97*%
X149098000Y-49276000D03*
%TD*%
%TO.C,REF\u002A\u002A1016*%
X166878000Y-110236000D03*
%TD*%
%TO.C,REF\u002A\u002A590*%
X146558000Y-82296000D03*
%TD*%
%TO.C,REF\u002A\u002A674*%
X166878000Y-87376000D03*
%TD*%
%TO.C,REF\u002A\u002A513*%
X144018000Y-77216000D03*
%TD*%
%TO.C,REF\u002A\u002A69*%
X174498000Y-46736000D03*
%TD*%
%TO.C,REF\u002A\u002A871*%
X184658000Y-100076000D03*
%TD*%
%TO.C,REF\u002A\u002A784*%
X156718000Y-94996000D03*
%TD*%
%TO.C,REF\u002A\u002A793*%
X179578000Y-94996000D03*
%TD*%
%TO.C,REF\u002A\u002A479*%
X154178000Y-74676000D03*
%TD*%
%TO.C,REF\u002A\u002A576*%
X110998000Y-82296000D03*
%TD*%
%TO.C,REF\u002A\u002A322*%
X141478000Y-64516000D03*
%TD*%
%TO.C,REF\u002A\u002A604*%
X182118000Y-82296000D03*
%TD*%
%TO.C,REF\u002A\u002A1100*%
X187198000Y-115316000D03*
%TD*%
%TO.C,REF\u002A\u002A1067*%
X103378000Y-115316000D03*
%TD*%
%TO.C,REF\u002A\u002A1164*%
X156718000Y-120396000D03*
%TD*%
%TO.C,REF\u002A\u002A1254*%
X194818000Y-130556000D03*
%TD*%
%TO.C,REF\u002A\u002A836*%
X194818000Y-97536000D03*
%TD*%
%TO.C,REF\u002A\u002A207*%
X138938000Y-56896000D03*
%TD*%
%TO.C,REF\u002A\u002A90*%
X131318000Y-49276000D03*
%TD*%
%TO.C,REF\u002A\u002A1235*%
X144018000Y-125476000D03*
%TD*%
%TO.C,REF\u002A\u002A771*%
X123698000Y-94996000D03*
%TD*%
%TO.C,REF\u002A\u002A15*%
X133858000Y-44196000D03*
%TD*%
%TO.C,REF\u002A\u002A1223*%
X113538000Y-125476000D03*
%TD*%
%TO.C,REF\u002A\u002A553*%
X149098000Y-79756000D03*
%TD*%
%TO.C,REF\u002A\u002A941*%
X169418000Y-105156000D03*
%TD*%
%TO.C,REF\u002A\u002A640*%
X177038000Y-84836000D03*
%TD*%
%TO.C,REF\u002A\u002A992*%
X105918000Y-110236000D03*
%TD*%
%TO.C,REF\u002A\u002A1210*%
X177038000Y-122936000D03*
%TD*%
%TO.C,REF\u002A\u002A747*%
X159258000Y-92456000D03*
%TD*%
%TO.C,REF\u002A\u002A1319*%
X167640000Y-130556000D03*
%TD*%
%TO.C,REF\u002A\u002A507*%
X128778000Y-77216000D03*
%TD*%
%TO.C,REF\u002A\u002A1180*%
X100838000Y-122936000D03*
%TD*%
%TO.C,REF\u002A\u002A777*%
X138938000Y-94996000D03*
%TD*%
%TO.C,REF\u002A\u002A940*%
X166878000Y-105156000D03*
%TD*%
%TO.C,REF\u002A\u002A307*%
X103378000Y-64516000D03*
%TD*%
%TO.C,REF\u002A\u002A1272*%
X141478000Y-128016000D03*
%TD*%
%TO.C,REF\u002A\u002A636*%
X166878000Y-84836000D03*
%TD*%
%TO.C,REF\u002A\u002A14*%
X131318000Y-44196000D03*
%TD*%
%TO.C,REF\u002A\u002A741*%
X144018000Y-92456000D03*
%TD*%
%TO.C,REF\u002A\u002A1202*%
X156718000Y-122936000D03*
%TD*%
%TO.C,REF\u002A\u002A349*%
X113538000Y-67056000D03*
%TD*%
%TO.C,REF\u002A\u002A282*%
X136398000Y-61976000D03*
%TD*%
%TO.C,REF\u002A\u002A837*%
X98298000Y-100076000D03*
%TD*%
%TO.C,REF\u002A\u002A176*%
X156718000Y-54356000D03*
%TD*%
%TO.C,REF\u002A\u002A1316*%
X160020000Y-130556000D03*
%TD*%
%TO.C,REF\u002A\u002A122*%
X116078000Y-51816000D03*
%TD*%
%TO.C,REF\u002A\u002A883*%
X118618000Y-102616000D03*
%TD*%
%TO.C,REF\u002A\u002A26*%
X161798000Y-44196000D03*
%TD*%
%TO.C,REF\u002A\u002A1282*%
X166878000Y-128016000D03*
%TD*%
%TO.C,REF\u002A\u002A608*%
X192278000Y-82296000D03*
%TD*%
%TO.C,REF\u002A\u002A1093*%
X169418000Y-115316000D03*
%TD*%
%TO.C,REF\u002A\u002A973*%
X154178000Y-107696000D03*
%TD*%
%TO.C,REF\u002A\u002A376*%
X182118000Y-67056000D03*
%TD*%
%TO.C,REF\u002A\u002A194*%
X105918000Y-56896000D03*
%TD*%
%TO.C,REF\u002A\u002A1056*%
X171958000Y-112776000D03*
%TD*%
%TO.C,REF\u002A\u002A117*%
X103378000Y-51816000D03*
%TD*%
%TO.C,REF\u002A\u002A594*%
X156718000Y-82296000D03*
%TD*%
%TO.C,REF\u002A\u002A678*%
X177038000Y-87376000D03*
%TD*%
%TO.C,REF\u002A\u002A1283*%
X169418000Y-128016000D03*
%TD*%
%TO.C,REF\u002A\u002A708*%
X156718000Y-89916000D03*
%TD*%
%TO.C,REF\u002A\u002A393*%
X128778000Y-69596000D03*
%TD*%
%TO.C,REF\u002A\u002A974*%
X156718000Y-107696000D03*
%TD*%
%TO.C,REF\u002A\u002A159*%
X113538000Y-54356000D03*
%TD*%
%TO.C,REF\u002A\u002A534*%
X100838000Y-79756000D03*
%TD*%
%TO.C,REF\u002A\u002A285*%
X144018000Y-61976000D03*
%TD*%
%TO.C,REF\u002A\u002A899*%
X159258000Y-102616000D03*
%TD*%
%TO.C,REF\u002A\u002A648*%
X100838000Y-87376000D03*
%TD*%
%TO.C,REF\u002A\u002A319*%
X133858000Y-64516000D03*
%TD*%
%TO.C,REF\u002A\u002A698*%
X131318000Y-89916000D03*
%TD*%
%TO.C,REF\u002A\u002A726*%
X105918000Y-92456000D03*
%TD*%
%TO.C,REF\u002A\u002A1167*%
X164338000Y-120396000D03*
%TD*%
%TO.C,REF\u002A\u002A558*%
X161798000Y-79756000D03*
%TD*%
%TO.C,REF\u002A\u002A406*%
X161798000Y-69596000D03*
%TD*%
%TO.C,REF\u002A\u002A242*%
X131318000Y-59436000D03*
%TD*%
%TO.C,REF\u002A\u002A646*%
X194818000Y-84836000D03*
%TD*%
%TO.C,REF\u002A\u002A1184*%
X110998000Y-122936000D03*
%TD*%
%TO.C,REF\u002A\u002A934*%
X151638000Y-105156000D03*
%TD*%
%TO.C,REF\u002A\u002A860*%
X156718000Y-100076000D03*
%TD*%
%TO.C,REF\u002A\u002A363*%
X149098000Y-67056000D03*
%TD*%
%TO.C,REF\u002A\u002A366*%
X156718000Y-67056000D03*
%TD*%
%TO.C,REF\u002A\u002A913*%
X98298000Y-105156000D03*
%TD*%
%TO.C,REF\u002A\u002A668*%
X151638000Y-87376000D03*
%TD*%
%TO.C,REF\u002A\u002A906*%
X177038000Y-102616000D03*
%TD*%
%TO.C,REF\u002A\u002A1260*%
X110998000Y-128016000D03*
%TD*%
%TO.C,REF\u002A\u002A1148*%
X116078000Y-120396000D03*
%TD*%
%TO.C,REF\u002A\u002A359*%
X138938000Y-67056000D03*
%TD*%
%TO.C,REF\u002A\u002A1126*%
X156718000Y-117856000D03*
%TD*%
%TO.C,REF\u002A\u002A82*%
X110998000Y-49276000D03*
%TD*%
%TO.C,REF\u002A\u002A34*%
X182118000Y-44196000D03*
%TD*%
%TO.C,REF\u002A\u002A939*%
X164338000Y-105156000D03*
%TD*%
%TO.C,REF\u002A\u002A720*%
X187198000Y-89916000D03*
%TD*%
%TO.C,REF\u002A\u002A577*%
X113538000Y-82296000D03*
%TD*%
%TO.C,REF\u002A\u002A1253*%
X189738000Y-125476000D03*
%TD*%
%TO.C,REF\u002A\u002A733*%
X123698000Y-92456000D03*
%TD*%
%TO.C,REF\u002A\u002A180*%
X166878000Y-54356000D03*
%TD*%
%TO.C,REF\u002A\u002A556*%
X156718000Y-79756000D03*
%TD*%
%TO.C,REF\u002A\u002A54*%
X136398000Y-46736000D03*
%TD*%
%TO.C,REF\u002A\u002A272*%
X110998000Y-61976000D03*
%TD*%
%TO.C,REF\u002A\u002A563*%
X174498000Y-79756000D03*
%TD*%
%TO.C,REF\u002A\u002A683*%
X189738000Y-87376000D03*
%TD*%
%TO.C,REF\u002A\u002A838*%
X100838000Y-100076000D03*
%TD*%
%TO.C,REF\u002A\u002A632*%
X156718000Y-84836000D03*
%TD*%
%TO.C,REF\u002A\u002A1288*%
X182118000Y-128016000D03*
%TD*%
%TO.C,REF\u002A\u002A1233*%
X138938000Y-125476000D03*
%TD*%
%TO.C,REF\u002A\u002A1250*%
X182118000Y-125476000D03*
%TD*%
%TO.C,REF\u002A\u002A1290*%
X187198000Y-128016000D03*
%TD*%
%TO.C,REF\u002A\u002A391*%
X123698000Y-69596000D03*
%TD*%
%TO.C,REF\u002A\u002A861*%
X159258000Y-100076000D03*
%TD*%
%TO.C,REF\u002A\u002A220*%
X171958000Y-56896000D03*
%TD*%
%TO.C,REF\u002A\u002A157*%
X108458000Y-54356000D03*
%TD*%
%TO.C,REF\u002A\u002A36*%
X187198000Y-44196000D03*
%TD*%
%TO.C,REF\u002A\u002A1090*%
X161798000Y-115316000D03*
%TD*%
%TO.C,REF\u002A\u002A986*%
X187198000Y-107696000D03*
%TD*%
%TO.C,REF\u002A\u002A578*%
X116078000Y-82296000D03*
%TD*%
%TO.C,REF\u002A\u002A654*%
X116078000Y-87376000D03*
%TD*%
%TO.C,REF\u002A\u002A975*%
X159258000Y-107696000D03*
%TD*%
%TO.C,REF\u002A\u002A1002*%
X131318000Y-110236000D03*
%TD*%
%TO.C,REF\u002A\u002A1001*%
X128778000Y-110236000D03*
%TD*%
%TO.C,REF\u002A\u002A1108*%
X110998000Y-117856000D03*
%TD*%
%TO.C,REF\u002A\u002A417*%
X189738000Y-69596000D03*
%TD*%
%TO.C,REF\u002A\u002A1132*%
X171958000Y-117856000D03*
%TD*%
%TO.C,REF\u002A\u002A229*%
X98298000Y-59436000D03*
%TD*%
%TO.C,REF\u002A\u002A445*%
X164338000Y-72136000D03*
%TD*%
%TO.C,REF\u002A\u002A1047*%
X149098000Y-112776000D03*
%TD*%
%TO.C,REF\u002A\u002A820*%
X151638000Y-97536000D03*
%TD*%
%TO.C,REF\u002A\u002A1099*%
X184658000Y-115316000D03*
%TD*%
%TO.C,REF\u002A\u002A960*%
X121158000Y-107696000D03*
%TD*%
%TO.C,REF\u002A\u002A1026*%
X192278000Y-110236000D03*
%TD*%
%TO.C,REF\u002A\u002A1246*%
X171958000Y-125476000D03*
%TD*%
%TO.C,REF\u002A\u002A734*%
X126238000Y-92456000D03*
%TD*%
%TO.C,REF\u002A\u002A1221*%
X108458000Y-125476000D03*
%TD*%
%TO.C,REF\u002A\u002A989*%
X98298000Y-110236000D03*
%TD*%
%TO.C,REF\u002A\u002A1227*%
X123698000Y-125476000D03*
%TD*%
%TO.C,REF\u002A\u002A1176*%
X187198000Y-120396000D03*
%TD*%
%TO.C,REF\u002A\u002A829*%
X174498000Y-97536000D03*
%TD*%
%TO.C,REF\u002A\u002A18*%
X141478000Y-44196000D03*
%TD*%
%TO.C,REF\u002A\u002A854*%
X141478000Y-100076000D03*
%TD*%
%TO.C,REF\u002A\u002A67*%
X169418000Y-46736000D03*
%TD*%
%TO.C,REF\u002A\u002A1057*%
X174498000Y-112776000D03*
%TD*%
%TO.C,REF\u002A\u002A530*%
X187198000Y-77216000D03*
%TD*%
%TO.C,REF\u002A\u002A490*%
X182118000Y-74676000D03*
%TD*%
%TO.C,REF\u002A\u002A891*%
X138938000Y-102616000D03*
%TD*%
%TO.C,REF\u002A\u002A210*%
X146558000Y-56896000D03*
%TD*%
%TO.C,REF\u002A\u002A884*%
X121158000Y-102616000D03*
%TD*%
%TO.C,REF\u002A\u002A1137*%
X184658000Y-117856000D03*
%TD*%
%TO.C,REF\u002A\u002A115*%
X98298000Y-51816000D03*
%TD*%
%TO.C,REF\u002A\u002A796*%
X187198000Y-94996000D03*
%TD*%
%TO.C,REF\u002A\u002A1101*%
X189738000Y-115316000D03*
%TD*%
%TO.C,REF\u002A\u002A1247*%
X174498000Y-125476000D03*
%TD*%
%TO.C,REF\u002A\u002A440*%
X151638000Y-72136000D03*
%TD*%
%TO.C,REF\u002A\u002A50*%
X126238000Y-46736000D03*
%TD*%
%TO.C,REF\u002A\u002A22*%
X151638000Y-44196000D03*
%TD*%
%TO.C,REF\u002A\u002A346*%
X105918000Y-67056000D03*
%TD*%
%TO.C,REF\u002A\u002A995*%
X113538000Y-110236000D03*
%TD*%
%TO.C,REF\u002A\u002A239*%
X123698000Y-59436000D03*
%TD*%
%TO.C,REF\u002A\u002A91*%
X133858000Y-49276000D03*
%TD*%
%TO.C,REF\u002A\u002A1304*%
X129540000Y-130556000D03*
%TD*%
%TO.C,REF\u002A\u002A1034*%
X116078000Y-112776000D03*
%TD*%
%TO.C,REF\u002A\u002A1076*%
X126238000Y-115316000D03*
%TD*%
%TO.C,REF\u002A\u002A234*%
X110998000Y-59436000D03*
%TD*%
%TO.C,REF\u002A\u002A1266*%
X126238000Y-128016000D03*
%TD*%
%TO.C,REF\u002A\u002A702*%
X141478000Y-89916000D03*
%TD*%
%TO.C,REF\u002A\u002A163*%
X123698000Y-54356000D03*
%TD*%
%TO.C,REF\u002A\u002A693*%
X118618000Y-89916000D03*
%TD*%
%TO.C,REF\u002A\u002A344*%
X100838000Y-67056000D03*
%TD*%
%TO.C,REF\u002A\u002A433*%
X133858000Y-72136000D03*
%TD*%
%TO.C,REF\u002A\u002A559*%
X164338000Y-79756000D03*
%TD*%
%TO.C,REF\u002A\u002A918*%
X110998000Y-105156000D03*
%TD*%
%TO.C,REF\u002A\u002A1200*%
X151638000Y-122936000D03*
%TD*%
%TO.C,REF\u002A\u002A1018*%
X171958000Y-110236000D03*
%TD*%
%TO.C,REF\u002A\u002A732*%
X121158000Y-92456000D03*
%TD*%
%TO.C,REF\u002A\u002A499*%
X108458000Y-77216000D03*
%TD*%
%TO.C,REF\u002A\u002A51*%
X128778000Y-46736000D03*
%TD*%
%TO.C,REF\u002A\u002A1149*%
X118618000Y-120396000D03*
%TD*%
%TO.C,REF\u002A\u002A774*%
X131318000Y-94996000D03*
%TD*%
%TO.C,REF\u002A\u002A304*%
X192278000Y-61976000D03*
%TD*%
%TO.C,REF\u002A\u002A1207*%
X169418000Y-122936000D03*
%TD*%
%TO.C,REF\u002A\u002A1305*%
X132080000Y-130556000D03*
%TD*%
%TO.C,REF\u002A\u002A602*%
X177038000Y-82296000D03*
%TD*%
%TO.C,REF\u002A\u002A1301*%
X121920000Y-130556000D03*
%TD*%
%TO.C,REF\u002A\u002A844*%
X116078000Y-100076000D03*
%TD*%
%TO.C,REF\u002A\u002A657*%
X123698000Y-87376000D03*
%TD*%
%TO.C,REF\u002A\u002A1237*%
X149098000Y-125476000D03*
%TD*%
%TO.C,REF\u002A\u002A1214*%
X187198000Y-122936000D03*
%TD*%
%TO.C,REF\u002A\u002A297*%
X174498000Y-61976000D03*
%TD*%
%TO.C,REF\u002A\u002A570*%
X192278000Y-79756000D03*
%TD*%
%TO.C,REF\u002A\u002A135*%
X149098000Y-51816000D03*
%TD*%
%TO.C,REF\u002A\u002A141*%
X164338000Y-51816000D03*
%TD*%
%TO.C,REF\u002A\u002A700*%
X136398000Y-89916000D03*
%TD*%
%TO.C,REF\u002A\u002A785*%
X159258000Y-94996000D03*
%TD*%
%TO.C,REF\u002A\u002A753*%
X174498000Y-92456000D03*
%TD*%
%TO.C,REF\u002A\u002A114*%
X192278000Y-49276000D03*
%TD*%
%TO.C,REF\u002A\u002A447*%
X169418000Y-72136000D03*
%TD*%
%TO.C,REF\u002A\u002A817*%
X144018000Y-97536000D03*
%TD*%
%TO.C,REF\u002A\u002A183*%
X174498000Y-54356000D03*
%TD*%
%TO.C,REF\u002A\u002A1147*%
X113538000Y-120396000D03*
%TD*%
%TO.C,REF\u002A\u002A1058*%
X177038000Y-112776000D03*
%TD*%
%TO.C,REF\u002A\u002A148*%
X182118000Y-51816000D03*
%TD*%
%TO.C,REF\u002A\u002A1270*%
X136398000Y-128016000D03*
%TD*%
%TO.C,REF\u002A\u002A731*%
X118618000Y-92456000D03*
%TD*%
%TO.C,REF\u002A\u002A1197*%
X144018000Y-122936000D03*
%TD*%
%TO.C,REF\u002A\u002A1109*%
X113538000Y-117856000D03*
%TD*%
%TO.C,REF\u002A\u002A681*%
X184658000Y-87376000D03*
%TD*%
%TO.C,REF\u002A\u002A356*%
X131318000Y-67056000D03*
%TD*%
%TO.C,REF\u002A\u002A461*%
X108458000Y-74676000D03*
%TD*%
%TO.C,REF\u002A\u002A525*%
X174498000Y-77216000D03*
%TD*%
%TO.C,REF\u002A\u002A804*%
X110998000Y-97536000D03*
%TD*%
%TO.C,REF\u002A\u002A434*%
X136398000Y-72136000D03*
%TD*%
%TO.C,REF\u002A\u002A1190*%
X126238000Y-122936000D03*
%TD*%
%TO.C,REF\u002A\u002A315*%
X123698000Y-64516000D03*
%TD*%
%TO.C,REF\u002A\u002A1027*%
X98298000Y-112776000D03*
%TD*%
%TO.C,REF\u002A\u002A561*%
X169418000Y-79756000D03*
%TD*%
%TO.C,REF\u002A\u002A760*%
X192278000Y-92456000D03*
%TD*%
%TO.C,REF\u002A\u002A265*%
X189738000Y-59436000D03*
%TD*%
%TO.C,REF\u002A\u002A9*%
X118618000Y-44196000D03*
%TD*%
%TO.C,REF\u002A\u002A191*%
X98298000Y-56896000D03*
%TD*%
%TO.C,REF\u002A\u002A809*%
X123698000Y-97536000D03*
%TD*%
%TO.C,REF\u002A\u002A211*%
X149098000Y-56896000D03*
%TD*%
%TO.C,REF\u002A\u002A158*%
X110998000Y-54356000D03*
%TD*%
%TO.C,REF\u002A\u002A1264*%
X121158000Y-128016000D03*
%TD*%
%TO.C,REF\u002A\u002A765*%
X108458000Y-94996000D03*
%TD*%
%TO.C,REF\u002A\u002A1321*%
X172720000Y-130556000D03*
%TD*%
%TO.C,REF\u002A\u002A536*%
X105918000Y-79756000D03*
%TD*%
%TO.C,REF\u002A\u002A365*%
X154178000Y-67056000D03*
%TD*%
%TO.C,REF\u002A\u002A101*%
X159258000Y-49276000D03*
%TD*%
%TO.C,REF\u002A\u002A497*%
X103378000Y-77216000D03*
%TD*%
%TO.C,REF\u002A\u002A30*%
X171958000Y-44196000D03*
%TD*%
%TO.C,REF\u002A\u002A1208*%
X171958000Y-122936000D03*
%TD*%
%TO.C,REF\u002A\u002A260*%
X177038000Y-59436000D03*
%TD*%
%TO.C,REF\u002A\u002A1251*%
X184658000Y-125476000D03*
%TD*%
%TO.C,REF\u002A\u002A886*%
X126238000Y-102616000D03*
%TD*%
%TO.C,REF\u002A\u002A1163*%
X154178000Y-120396000D03*
%TD*%
%TO.C,REF\u002A\u002A252*%
X156718000Y-59436000D03*
%TD*%
%TO.C,REF\u002A\u002A955*%
X108458000Y-107696000D03*
%TD*%
%TO.C,REF\u002A\u002A978*%
X166878000Y-107696000D03*
%TD*%
%TO.C,REF\u002A\u002A965*%
X133858000Y-107696000D03*
%TD*%
%TO.C,REF\u002A\u002A1098*%
X182118000Y-115316000D03*
%TD*%
%TO.C,REF\u002A\u002A696*%
X126238000Y-89916000D03*
%TD*%
%TO.C,REF\u002A\u002A468*%
X126238000Y-74676000D03*
%TD*%
%TO.C,REF\u002A\u002A303*%
X189738000Y-61976000D03*
%TD*%
%TO.C,REF\u002A\u002A921*%
X118618000Y-105156000D03*
%TD*%
%TO.C,REF\u002A\u002A1218*%
X100838000Y-125476000D03*
%TD*%
%TO.C,REF\u002A\u002A619*%
X123698000Y-84836000D03*
%TD*%
%TO.C,REF\u002A\u002A418*%
X192278000Y-69596000D03*
%TD*%
%TO.C,REF\u002A\u002A38*%
X192278000Y-44196000D03*
%TD*%
%TO.C,REF\u002A\u002A99*%
X154178000Y-49276000D03*
%TD*%
%TO.C,REF\u002A\u002A1188*%
X121158000Y-122936000D03*
%TD*%
%TO.C,REF\u002A\u002A710*%
X161798000Y-89916000D03*
%TD*%
%TO.C,REF\u002A\u002A775*%
X133858000Y-94996000D03*
%TD*%
%TO.C,REF\u002A\u002A119*%
X108458000Y-51816000D03*
%TD*%
%TO.C,REF\u002A\u002A836*%
X192278000Y-97536000D03*
%TD*%
%TO.C,REF\u002A\u002A1159*%
X144018000Y-120396000D03*
%TD*%
%TO.C,REF\u002A\u002A198*%
X116078000Y-56896000D03*
%TD*%
%TO.C,REF\u002A\u002A826*%
X166878000Y-97536000D03*
%TD*%
%TO.C,REF\u002A\u002A1003*%
X133858000Y-110236000D03*
%TD*%
%TO.C,REF\u002A\u002A736*%
X131318000Y-92456000D03*
%TD*%
%TO.C,REF\u002A\u002A463*%
X113538000Y-74676000D03*
%TD*%
%TO.C,REF\u002A\u002A672*%
X161798000Y-87376000D03*
%TD*%
%TO.C,REF\u002A\u002A1267*%
X128778000Y-128016000D03*
%TD*%
%TO.C,REF\u002A\u002A287*%
X149098000Y-61976000D03*
%TD*%
%TO.C,REF\u002A\u002A873*%
X189738000Y-100076000D03*
%TD*%
%TO.C,REF\u002A\u002A1275*%
X149098000Y-128016000D03*
%TD*%
%TO.C,REF\u002A\u002A16*%
X136398000Y-44196000D03*
%TD*%
%TO.C,REF\u002A\u002A612*%
X105918000Y-84836000D03*
%TD*%
%TO.C,REF\u002A\u002A85*%
X118618000Y-49276000D03*
%TD*%
%TO.C,REF\u002A\u002A12*%
X126238000Y-44196000D03*
%TD*%
%TO.C,REF\u002A\u002A31*%
X174498000Y-44196000D03*
%TD*%
%TO.C,REF\u002A\u002A142*%
X166878000Y-51816000D03*
%TD*%
%TO.C,REF\u002A\u002A1183*%
X108458000Y-122936000D03*
%TD*%
%TO.C,REF\u002A\u002A424*%
X110998000Y-72136000D03*
%TD*%
%TO.C,REF\u002A\u002A328*%
X156718000Y-64516000D03*
%TD*%
%TO.C,REF\u002A\u002A1196*%
X141478000Y-122936000D03*
%TD*%
%TO.C,REF\u002A\u002A911*%
X189738000Y-102616000D03*
%TD*%
%TO.C,REF\u002A\u002A29*%
X169418000Y-44196000D03*
%TD*%
%TO.C,REF\u002A\u002A152*%
X194818000Y-51816000D03*
%TD*%
%TO.C,REF\u002A\u002A173*%
X149098000Y-54356000D03*
%TD*%
%TO.C,REF\u002A\u002A390*%
X121158000Y-69596000D03*
%TD*%
%TO.C,REF\u002A\u002A1236*%
X146558000Y-125476000D03*
%TD*%
%TO.C,REF\u002A\u002A722*%
X192278000Y-89916000D03*
%TD*%
%TO.C,REF\u002A\u002A1281*%
X164338000Y-128016000D03*
%TD*%
%TO.C,REF\u002A\u002A1191*%
X128778000Y-122936000D03*
%TD*%
%TO.C,REF\u002A\u002A362*%
X146558000Y-67056000D03*
%TD*%
%TO.C,REF\u002A\u002A596*%
X161798000Y-82296000D03*
%TD*%
%TO.C,REF\u002A\u002A314*%
X121158000Y-64516000D03*
%TD*%
%TO.C,REF\u002A\u002A502*%
X116078000Y-77216000D03*
%TD*%
%TO.C,REF\u002A\u002A203*%
X128778000Y-56896000D03*
%TD*%
%TO.C,REF\u002A\u002A950*%
X194818000Y-105156000D03*
%TD*%
%TO.C,REF\u002A\u002A584*%
X131318000Y-82296000D03*
%TD*%
%TO.C,REF\u002A\u002A719*%
X184658000Y-89916000D03*
%TD*%
%TO.C,REF\u002A\u002A607*%
X189738000Y-82296000D03*
%TD*%
%TO.C,REF\u002A\u002A317*%
X128778000Y-64516000D03*
%TD*%
%TO.C,REF\u002A\u002A1120*%
X141478000Y-117856000D03*
%TD*%
%TO.C,REF\u002A\u002A150*%
X187198000Y-51816000D03*
%TD*%
%TO.C,REF\u002A\u002A1062*%
X187198000Y-112776000D03*
%TD*%
%TO.C,REF\u002A\u002A783*%
X154178000Y-94996000D03*
%TD*%
%TO.C,REF\u002A\u002A64*%
X161798000Y-46736000D03*
%TD*%
%TO.C,REF\u002A\u002A221*%
X174498000Y-56896000D03*
%TD*%
%TO.C,REF\u002A\u002A1094*%
X171958000Y-115316000D03*
%TD*%
%TO.C,REF\u002A\u002A1004*%
X136398000Y-110236000D03*
%TD*%
%TO.C,REF\u002A\u002A52*%
X131318000Y-46736000D03*
%TD*%
%TO.C,REF\u002A\u002A109*%
X179578000Y-49276000D03*
%TD*%
%TO.C,REF\u002A\u002A638*%
X171958000Y-84836000D03*
%TD*%
%TO.C,REF\u002A\u002A1139*%
X189738000Y-117856000D03*
%TD*%
%TO.C,REF\u002A\u002A953*%
X103378000Y-107696000D03*
%TD*%
%TO.C,REF\u002A\u002A1111*%
X118618000Y-117856000D03*
%TD*%
%TO.C,REF\u002A\u002A489*%
X179578000Y-74676000D03*
%TD*%
%TO.C,REF\u002A\u002A40*%
X100838000Y-46736000D03*
%TD*%
%TO.C,REF\u002A\u002A104*%
X166878000Y-49276000D03*
%TD*%
%TO.C,REF\u002A\u002A622*%
X131318000Y-84836000D03*
%TD*%
%TO.C,REF\u002A\u002A444*%
X161798000Y-72136000D03*
%TD*%
%TO.C,REF\u002A\u002A893*%
X144018000Y-102616000D03*
%TD*%
%TO.C,REF\u002A\u002A381*%
X98298000Y-69596000D03*
%TD*%
%TO.C,REF\u002A\u002A166*%
X131318000Y-54356000D03*
%TD*%
%TO.C,REF\u002A\u002A1229*%
X128778000Y-125476000D03*
%TD*%
%TO.C,REF\u002A\u002A803*%
X108458000Y-97536000D03*
%TD*%
%TO.C,REF\u002A\u002A247*%
X144018000Y-59436000D03*
%TD*%
%TO.C,REF\u002A\u002A533*%
X98298000Y-79756000D03*
%TD*%
%TO.C,REF\u002A\u002A61*%
X154178000Y-46736000D03*
%TD*%
%TO.C,REF\u002A\u002A412*%
X177038000Y-69596000D03*
%TD*%
%TO.C,REF\u002A\u002A1050*%
X156718000Y-112776000D03*
%TD*%
%TO.C,REF\u002A\u002A156*%
X105918000Y-54356000D03*
%TD*%
%TO.C,REF\u002A\u002A339*%
X184658000Y-64516000D03*
%TD*%
%TO.C,REF\u002A\u002A538*%
X110998000Y-79756000D03*
%TD*%
%TO.C,REF\u002A\u002A1129*%
X164338000Y-117856000D03*
%TD*%
%TO.C,REF\u002A\u002A1156*%
X136398000Y-120396000D03*
%TD*%
%TO.C,REF\u002A\u002A456*%
X192278000Y-72136000D03*
%TD*%
%TO.C,REF\u002A\u002A794*%
X182118000Y-94996000D03*
%TD*%
%TO.C,REF\u002A\u002A716*%
X177038000Y-89916000D03*
%TD*%
%TO.C,REF\u002A\u002A903*%
X169418000Y-102616000D03*
%TD*%
%TO.C,REF\u002A\u002A1277*%
X154178000Y-128016000D03*
%TD*%
%TO.C,REF\u002A\u002A1261*%
X113538000Y-128016000D03*
%TD*%
%TO.C,REF\u002A\u002A1175*%
X184658000Y-120396000D03*
%TD*%
%TO.C,REF\u002A\u002A43*%
X108458000Y-46736000D03*
%TD*%
%TO.C,REF\u002A\u002A286*%
X146558000Y-61976000D03*
%TD*%
%TO.C,REF\u002A\u002A290*%
X156718000Y-61976000D03*
%TD*%
%TO.C,REF\u002A\u002A169*%
X138938000Y-54356000D03*
%TD*%
%TO.C,REF\u002A\u002A271*%
X108458000Y-61976000D03*
%TD*%
%TO.C,REF\u002A\u002A236*%
X116078000Y-59436000D03*
%TD*%
%TO.C,REF\u002A\u002A1005*%
X138938000Y-110236000D03*
%TD*%
%TO.C,REF\u002A\u002A853*%
X138938000Y-100076000D03*
%TD*%
%TO.C,REF\u002A\u002A532*%
X194818000Y-77216000D03*
%TD*%
%TO.C,REF\u002A\u002A128*%
X131318000Y-51816000D03*
%TD*%
%TO.C,REF\u002A\u002A503*%
X118618000Y-77216000D03*
%TD*%
%TO.C,REF\u002A\u002A1311*%
X147320000Y-130556000D03*
%TD*%
%TO.C,REF\u002A\u002A570*%
X194818000Y-79756000D03*
%TD*%
%TO.C,REF\u002A\u002A309*%
X108458000Y-64516000D03*
%TD*%
%TO.C,REF\u002A\u002A888*%
X131318000Y-102616000D03*
%TD*%
%TO.C,REF\u002A\u002A642*%
X182118000Y-84836000D03*
%TD*%
%TO.C,REF\u002A\u002A1225*%
X118618000Y-125476000D03*
%TD*%
%TO.C,REF\u002A\u002A1069*%
X108458000Y-115316000D03*
%TD*%
%TO.C,REF\u002A\u002A244*%
X136398000Y-59436000D03*
%TD*%
%TO.C,REF\u002A\u002A824*%
X161798000Y-97536000D03*
%TD*%
%TO.C,REF\u002A\u002A190*%
X192278000Y-54356000D03*
%TD*%
%TO.C,REF\u002A\u002A37*%
X189738000Y-44196000D03*
%TD*%
%TO.C,REF\u002A\u002A1285*%
X174498000Y-128016000D03*
%TD*%
%TO.C,REF\u002A\u002A1166*%
X161798000Y-120396000D03*
%TD*%
%TO.C,REF\u002A\u002A526*%
X177038000Y-77216000D03*
%TD*%
%TO.C,REF\u002A\u002A154*%
X100838000Y-54356000D03*
%TD*%
%TO.C,REF\u002A\u002A972*%
X151638000Y-107696000D03*
%TD*%
%TO.C,REF\u002A\u002A952*%
X100838000Y-107696000D03*
%TD*%
%TO.C,REF\u002A\u002A42*%
X105918000Y-46736000D03*
%TD*%
%TO.C,REF\u002A\u002A633*%
X159258000Y-84836000D03*
%TD*%
%TO.C,REF\u002A\u002A705*%
X149098000Y-89916000D03*
%TD*%
%TO.C,REF\u002A\u002A355*%
X128778000Y-67056000D03*
%TD*%
%TO.C,REF\u002A\u002A569*%
X189738000Y-79756000D03*
%TD*%
%TO.C,REF\u002A\u002A494*%
X192278000Y-74676000D03*
%TD*%
%TO.C,REF\u002A\u002A759*%
X189738000Y-92456000D03*
%TD*%
%TO.C,REF\u002A\u002A482*%
X161798000Y-74676000D03*
%TD*%
%TO.C,REF\u002A\u002A202*%
X126238000Y-56896000D03*
%TD*%
%TO.C,REF\u002A\u002A1217*%
X98298000Y-125476000D03*
%TD*%
%TO.C,REF\u002A\u002A993*%
X108458000Y-110236000D03*
%TD*%
%TO.C,REF\u002A\u002A428*%
X121158000Y-72136000D03*
%TD*%
%TO.C,REF\u002A\u002A1302*%
X124460000Y-130556000D03*
%TD*%
%TO.C,REF\u002A\u002A11*%
X123698000Y-44196000D03*
%TD*%
%TO.C,REF\u002A\u002A859*%
X154178000Y-100076000D03*
%TD*%
%TO.C,REF\u002A\u002A557*%
X159258000Y-79756000D03*
%TD*%
%TO.C,REF\u002A\u002A399*%
X144018000Y-69596000D03*
%TD*%
%TO.C,REF\u002A\u002A662*%
X136398000Y-87376000D03*
%TD*%
%TO.C,REF\u002A\u002A144*%
X171958000Y-51816000D03*
%TD*%
%TO.C,REF\u002A\u002A984*%
X182118000Y-107696000D03*
%TD*%
%TO.C,REF\u002A\u002A652*%
X110998000Y-87376000D03*
%TD*%
%TO.C,REF\u002A\u002A795*%
X184658000Y-94996000D03*
%TD*%
%TO.C,REF\u002A\u002A1124*%
X151638000Y-117856000D03*
%TD*%
%TO.C,REF\u002A\u002A1115*%
X128778000Y-117856000D03*
%TD*%
%TO.C,REF\u002A\u002A208*%
X141478000Y-56896000D03*
%TD*%
%TO.C,REF\u002A\u002A103*%
X164338000Y-49276000D03*
%TD*%
%TO.C,REF\u002A\u002A1063*%
X189738000Y-112776000D03*
%TD*%
%TO.C,REF\u002A\u002A665*%
X144018000Y-87376000D03*
%TD*%
%TO.C,REF\u002A\u002A806*%
X116078000Y-97536000D03*
%TD*%
%TO.C,REF\u002A\u002A193*%
X103378000Y-56896000D03*
%TD*%
%TO.C,REF\u002A\u002A905*%
X174498000Y-102616000D03*
%TD*%
%TO.C,REF\u002A\u002A915*%
X103378000Y-105156000D03*
%TD*%
%TO.C,REF\u002A\u002A769*%
X118618000Y-94996000D03*
%TD*%
%TO.C,REF\u002A\u002A840*%
X105918000Y-100076000D03*
%TD*%
%TO.C,REF\u002A\u002A308*%
X105918000Y-64516000D03*
%TD*%
%TO.C,REF\u002A\u002A997*%
X118618000Y-110236000D03*
%TD*%
%TO.C,REF\u002A\u002A1136*%
X182118000Y-117856000D03*
%TD*%
%TO.C,REF\u002A\u002A868*%
X177038000Y-100076000D03*
%TD*%
%TO.C,REF\u002A\u002A1286*%
X177038000Y-128016000D03*
%TD*%
%TO.C,REF\u002A\u002A298*%
X177038000Y-61976000D03*
%TD*%
%TO.C,REF\u002A\u002A353*%
X123698000Y-67056000D03*
%TD*%
%TO.C,REF\u002A\u002A1055*%
X169418000Y-112776000D03*
%TD*%
%TO.C,REF\u002A\u002A875*%
X98298000Y-102616000D03*
%TD*%
%TO.C,REF\u002A\u002A935*%
X154178000Y-105156000D03*
%TD*%
%TO.C,REF\u002A\u002A1031*%
X108458000Y-112776000D03*
%TD*%
%TO.C,REF\u002A\u002A23*%
X154178000Y-44196000D03*
%TD*%
%TO.C,REF\u002A\u002A1014*%
X161798000Y-110236000D03*
%TD*%
%TO.C,REF\u002A\u002A186*%
X182118000Y-54356000D03*
%TD*%
%TO.C,REF\u002A\u002A660*%
X131318000Y-87376000D03*
%TD*%
%TO.C,REF\u002A\u002A1077*%
X128778000Y-115316000D03*
%TD*%
%TO.C,REF\u002A\u002A1075*%
X123698000Y-115316000D03*
%TD*%
%TO.C,REF\u002A\u002A1039*%
X128778000Y-112776000D03*
%TD*%
%TO.C,REF\u002A\u002A882*%
X116078000Y-102616000D03*
%TD*%
%TO.C,REF\u002A\u002A283*%
X138938000Y-61976000D03*
%TD*%
%TO.C,REF\u002A\u002A343*%
X98298000Y-67056000D03*
%TD*%
%TO.C,REF\u002A\u002A1297*%
X111760000Y-130556000D03*
%TD*%
%TO.C,REF\u002A\u002A830*%
X177038000Y-97536000D03*
%TD*%
%TO.C,REF\u002A\u002A1010*%
X151638000Y-110236000D03*
%TD*%
%TO.C,REF\u002A\u002A1013*%
X159258000Y-110236000D03*
%TD*%
%TO.C,REF\u002A\u002A851*%
X133858000Y-100076000D03*
%TD*%
%TO.C,REF\u002A\u002A987*%
X189738000Y-107696000D03*
%TD*%
%TO.C,REF\u002A\u002A962*%
X126238000Y-107696000D03*
%TD*%
%TO.C,REF\u002A\u002A1258*%
X105918000Y-128016000D03*
%TD*%
%TO.C,REF\u002A\u002A56*%
X141478000Y-46736000D03*
%TD*%
%TO.C,REF\u002A\u002A950*%
X192278000Y-105156000D03*
%TD*%
%TO.C,REF\u002A\u002A504*%
X121158000Y-77216000D03*
%TD*%
%TO.C,REF\u002A\u002A58*%
X146558000Y-46736000D03*
%TD*%
%TO.C,REF\u002A\u002A1257*%
X103378000Y-128016000D03*
%TD*%
%TO.C,REF\u002A\u002A59*%
X149098000Y-46736000D03*
%TD*%
%TO.C,REF\u002A\u002A385*%
X108458000Y-69596000D03*
%TD*%
%TO.C,REF\u002A\u002A755*%
X179578000Y-92456000D03*
%TD*%
%TO.C,REF\u002A\u002A470*%
X131318000Y-74676000D03*
%TD*%
%TO.C,REF\u002A\u002A219*%
X169418000Y-56896000D03*
%TD*%
%TO.C,REF\u002A\u002A181*%
X169418000Y-54356000D03*
%TD*%
%TO.C,REF\u002A\u002A956*%
X110998000Y-107696000D03*
%TD*%
%TO.C,REF\u002A\u002A439*%
X149098000Y-72136000D03*
%TD*%
%TO.C,REF\u002A\u002A224*%
X182118000Y-56896000D03*
%TD*%
%TO.C,REF\u002A\u002A453*%
X184658000Y-72136000D03*
%TD*%
%TO.C,REF\u002A\u002A414*%
X182118000Y-69596000D03*
%TD*%
%TO.C,REF\u002A\u002A1170*%
X171958000Y-120396000D03*
%TD*%
%TO.C,REF\u002A\u002A249*%
X149098000Y-59436000D03*
%TD*%
%TO.C,REF\u002A\u002A275*%
X118618000Y-61976000D03*
%TD*%
%TO.C,REF\u002A\u002A692*%
X116078000Y-89916000D03*
%TD*%
%TO.C,REF\u002A\u002A634*%
X161798000Y-84836000D03*
%TD*%
%TO.C,REF\u002A\u002A70*%
X177038000Y-46736000D03*
%TD*%
%TO.C,REF\u002A\u002A72*%
X182118000Y-46736000D03*
%TD*%
%TO.C,REF\u002A\u002A610*%
X100838000Y-84836000D03*
%TD*%
%TO.C,REF\u002A\u002A1192*%
X131318000Y-122936000D03*
%TD*%
%TO.C,REF\u002A\u002A32*%
X177038000Y-44196000D03*
%TD*%
%TO.C,REF\u002A\u002A641*%
X179578000Y-84836000D03*
%TD*%
%TO.C,REF\u002A\u002A228*%
X192278000Y-56896000D03*
%TD*%
%TO.C,REF\u002A\u002A418*%
X194818000Y-69596000D03*
%TD*%
%TO.C,REF\u002A\u002A958*%
X116078000Y-107696000D03*
%TD*%
%TO.C,REF\u002A\u002A951*%
X98298000Y-107696000D03*
%TD*%
%TO.C,REF\u002A\u002A466*%
X121158000Y-74676000D03*
%TD*%
%TO.C,REF\u002A\u002A130*%
X136398000Y-51816000D03*
%TD*%
%TO.C,REF\u002A\u002A593*%
X154178000Y-82296000D03*
%TD*%
%TO.C,REF\u002A\u002A509*%
X133858000Y-77216000D03*
%TD*%
%TO.C,REF\u002A\u002A707*%
X154178000Y-89916000D03*
%TD*%
%TO.C,REF\u002A\u002A1073*%
X118618000Y-115316000D03*
%TD*%
%TO.C,REF\u002A\u002A182*%
X171958000Y-54356000D03*
%TD*%
%TO.C,REF\u002A\u002A890*%
X136398000Y-102616000D03*
%TD*%
%TO.C,REF\u002A\u002A664*%
X141478000Y-87376000D03*
%TD*%
%TO.C,REF\u002A\u002A808*%
X121158000Y-97536000D03*
%TD*%
%TO.C,REF\u002A\u002A436*%
X141478000Y-72136000D03*
%TD*%
%TO.C,REF\u002A\u002A585*%
X133858000Y-82296000D03*
%TD*%
%TO.C,REF\u002A\u002A5*%
X108458000Y-44196000D03*
%TD*%
%TO.C,REF\u002A\u002A471*%
X133858000Y-74676000D03*
%TD*%
%TO.C,REF\u002A\u002A225*%
X184658000Y-56896000D03*
%TD*%
%TO.C,REF\u002A\u002A897*%
X154178000Y-102616000D03*
%TD*%
%TO.C,REF\u002A\u002A605*%
X184658000Y-82296000D03*
%TD*%
%TO.C,REF\u002A\u002A320*%
X136398000Y-64516000D03*
%TD*%
%TO.C,REF\u002A\u002A511*%
X138938000Y-77216000D03*
%TD*%
%TO.C,REF\u002A\u002A155*%
X103378000Y-54356000D03*
%TD*%
%TO.C,REF\u002A\u002A706*%
X151638000Y-89916000D03*
%TD*%
%TO.C,REF\u002A\u002A1030*%
X105918000Y-112776000D03*
%TD*%
%TO.C,REF\u002A\u002A75*%
X189738000Y-46736000D03*
%TD*%
%TO.C,REF\u002A\u002A300*%
X182118000Y-61976000D03*
%TD*%
%TO.C,REF\u002A\u002A846*%
X121158000Y-100076000D03*
%TD*%
%TO.C,REF\u002A\u002A44*%
X110998000Y-46736000D03*
%TD*%
%TO.C,REF\u002A\u002A1204*%
X161798000Y-122936000D03*
%TD*%
%TO.C,REF\u002A\u002A1006*%
X141478000Y-110236000D03*
%TD*%
%TO.C,REF\u002A\u002A680*%
X182118000Y-87376000D03*
%TD*%
%TO.C,REF\u002A\u002A521*%
X164338000Y-77216000D03*
%TD*%
%TO.C,REF\u002A\u002A458*%
X100838000Y-74676000D03*
%TD*%
%TO.C,REF\u002A\u002A827*%
X169418000Y-97536000D03*
%TD*%
%TO.C,REF\u002A\u002A591*%
X149098000Y-82296000D03*
%TD*%
%TO.C,REF\u002A\u002A289*%
X154178000Y-61976000D03*
%TD*%
%TO.C,REF\u002A\u002A1104*%
X100838000Y-117856000D03*
%TD*%
%TO.C,REF\u002A\u002A1113*%
X123698000Y-117856000D03*
%TD*%
%TO.C,REF\u002A\u002A738*%
X136398000Y-92456000D03*
%TD*%
%TO.C,REF\u002A\u002A185*%
X179578000Y-54356000D03*
%TD*%
%TO.C,REF\u002A\u002A256*%
X166878000Y-59436000D03*
%TD*%
%TO.C,REF\u002A\u002A1296*%
X109220000Y-130556000D03*
%TD*%
%TO.C,REF\u002A\u002A1240*%
X156718000Y-125476000D03*
%TD*%
%TO.C,REF\u002A\u002A685*%
X98298000Y-89916000D03*
%TD*%
%TO.C,REF\u002A\u002A266*%
X194818000Y-59436000D03*
%TD*%
%TO.C,REF\u002A\u002A1262*%
X116078000Y-128016000D03*
%TD*%
%TO.C,REF\u002A\u002A134*%
X146558000Y-51816000D03*
%TD*%
%TO.C,REF\u002A\u002A1092*%
X166878000Y-115316000D03*
%TD*%
%TO.C,REF\u002A\u002A161*%
X118618000Y-54356000D03*
%TD*%
%TO.C,REF\u002A\u002A586*%
X136398000Y-82296000D03*
%TD*%
%TO.C,REF\u002A\u002A1241*%
X159258000Y-125476000D03*
%TD*%
%TO.C,REF\u002A\u002A833*%
X184658000Y-97536000D03*
%TD*%
%TO.C,REF\u002A\u002A656*%
X121158000Y-87376000D03*
%TD*%
%TO.C,REF\u002A\u002A55*%
X138938000Y-46736000D03*
%TD*%
%TO.C,REF\u002A\u002A845*%
X118618000Y-100076000D03*
%TD*%
%TO.C,REF\u002A\u002A866*%
X171958000Y-100076000D03*
%TD*%
%TO.C,REF\u002A\u002A1023*%
X184658000Y-110236000D03*
%TD*%
%TO.C,REF\u002A\u002A1022*%
X182118000Y-110236000D03*
%TD*%
%TO.C,REF\u002A\u002A728*%
X110998000Y-92456000D03*
%TD*%
%TO.C,REF\u002A\u002A1107*%
X108458000Y-117856000D03*
%TD*%
%TO.C,REF\u002A\u002A1068*%
X105918000Y-115316000D03*
%TD*%
%TO.C,REF\u002A\u002A80*%
X105918000Y-49276000D03*
%TD*%
%TO.C,REF\u002A\u002A506*%
X126238000Y-77216000D03*
%TD*%
%TO.C,REF\u002A\u002A432*%
X131318000Y-72136000D03*
%TD*%
%TO.C,REF\u002A\u002A120*%
X110998000Y-51816000D03*
%TD*%
%TO.C,REF\u002A\u002A544*%
X126238000Y-79756000D03*
%TD*%
%TO.C,REF\u002A\u002A686*%
X100838000Y-89916000D03*
%TD*%
%TO.C,REF\u002A\u002A887*%
X128778000Y-102616000D03*
%TD*%
%TO.C,REF\u002A\u002A136*%
X151638000Y-51816000D03*
%TD*%
%TO.C,REF\u002A\u002A787*%
X164338000Y-94996000D03*
%TD*%
%TO.C,REF\u002A\u002A667*%
X149098000Y-87376000D03*
%TD*%
%TO.C,REF\u002A\u002A1232*%
X136398000Y-125476000D03*
%TD*%
%TO.C,REF\u002A\u002A177*%
X159258000Y-54356000D03*
%TD*%
%TO.C,REF\u002A\u002A1178*%
X194818000Y-120396000D03*
%TD*%
%TO.C,REF\u002A\u002A392*%
X126238000Y-69596000D03*
%TD*%
%TO.C,REF\u002A\u002A914*%
X100838000Y-105156000D03*
%TD*%
%TO.C,REF\u002A\u002A133*%
X144018000Y-51816000D03*
%TD*%
%TO.C,REF\u002A\u002A1289*%
X184658000Y-128016000D03*
%TD*%
%TO.C,REF\u002A\u002A518*%
X156718000Y-77216000D03*
%TD*%
%TO.C,REF\u002A\u002A73*%
X184658000Y-46736000D03*
%TD*%
%TO.C,REF\u002A\u002A999*%
X123698000Y-110236000D03*
%TD*%
%TO.C,REF\u002A\u002A325*%
X149098000Y-64516000D03*
%TD*%
%TO.C,REF\u002A\u002A45*%
X113538000Y-46736000D03*
%TD*%
%TO.C,REF\u002A\u002A1110*%
X116078000Y-117856000D03*
%TD*%
%TO.C,REF\u002A\u002A1172*%
X177038000Y-120396000D03*
%TD*%
%TO.C,REF\u002A\u002A991*%
X103378000Y-110236000D03*
%TD*%
%TO.C,REF\u002A\u002A1205*%
X164338000Y-122936000D03*
%TD*%
%TO.C,REF\u002A\u002A1130*%
X166878000Y-117856000D03*
%TD*%
%TO.C,REF\u002A\u002A321*%
X138938000Y-64516000D03*
%TD*%
%TO.C,REF\u002A\u002A190*%
X194818000Y-54356000D03*
%TD*%
%TO.C,REF\u002A\u002A475*%
X144018000Y-74676000D03*
%TD*%
%TO.C,REF\u002A\u002A1309*%
X142240000Y-130556000D03*
%TD*%
%TO.C,REF\u002A\u002A1239*%
X154178000Y-125476000D03*
%TD*%
%TO.C,REF\u002A\u002A1254*%
X192278000Y-130556000D03*
%TD*%
%TO.C,REF\u002A\u002A621*%
X128778000Y-84836000D03*
%TD*%
%TO.C,REF\u002A\u002A341*%
X189738000Y-64516000D03*
%TD*%
%TO.C,REF\u002A\u002A730*%
X116078000Y-92456000D03*
%TD*%
%TO.C,REF\u002A\u002A601*%
X174498000Y-82296000D03*
%TD*%
%TO.C,REF\u002A\u002A465*%
X118618000Y-74676000D03*
%TD*%
%TO.C,REF\u002A\u002A739*%
X138938000Y-92456000D03*
%TD*%
%TO.C,REF\u002A\u002A1181*%
X103378000Y-122936000D03*
%TD*%
%TO.C,REF\u002A\u002A971*%
X149098000Y-107696000D03*
%TD*%
%TO.C,REF\u002A\u002A874*%
X194818000Y-100076000D03*
%TD*%
%TO.C,REF\u002A\u002A419*%
X98298000Y-72136000D03*
%TD*%
%TO.C,REF\u002A\u002A226*%
X187198000Y-56896000D03*
%TD*%
%TO.C,REF\u002A\u002A53*%
X133858000Y-46736000D03*
%TD*%
%TO.C,REF\u002A\u002A523*%
X169418000Y-77216000D03*
%TD*%
%TO.C,REF\u002A\u002A443*%
X159258000Y-72136000D03*
%TD*%
%TO.C,REF\u002A\u002A114*%
X194818000Y-49276000D03*
%TD*%
%TO.C,REF\u002A\u002A1081*%
X138938000Y-115316000D03*
%TD*%
%TO.C,REF\u002A\u002A1292*%
X99060000Y-130556000D03*
%TD*%
%TO.C,REF\u002A\u002A1097*%
X179578000Y-115316000D03*
%TD*%
%TO.C,REF\u002A\u002A773*%
X128778000Y-94996000D03*
%TD*%
%TO.C,REF\u002A\u002A537*%
X108458000Y-79756000D03*
%TD*%
%TO.C,REF\u002A\u002A858*%
X151638000Y-100076000D03*
%TD*%
%TO.C,REF\u002A\u002A954*%
X105918000Y-107696000D03*
%TD*%
%TO.C,REF\u002A\u002A1021*%
X179578000Y-110236000D03*
%TD*%
%TO.C,REF\u002A\u002A1254*%
X189738000Y-130556000D03*
%TD*%
%TO.C,REF\u002A\u002A512*%
X141478000Y-77216000D03*
%TD*%
%TO.C,REF\u002A\u002A217*%
X164338000Y-56896000D03*
%TD*%
%TO.C,REF\u002A\u002A881*%
X113538000Y-102616000D03*
%TD*%
%TO.C,REF\u002A\u002A301*%
X184658000Y-61976000D03*
%TD*%
%TO.C,REF\u002A\u002A98*%
X151638000Y-49276000D03*
%TD*%
%TO.C,REF\u002A\u002A926*%
X131318000Y-105156000D03*
%TD*%
%TO.C,REF\u002A\u002A1198*%
X146558000Y-122936000D03*
%TD*%
%TO.C,REF\u002A\u002A235*%
X113538000Y-59436000D03*
%TD*%
%TO.C,REF\u002A\u002A1045*%
X144018000Y-112776000D03*
%TD*%
%TO.C,REF\u002A\u002A1103*%
X98298000Y-117856000D03*
%TD*%
%TO.C,REF\u002A\u002A729*%
X113538000Y-92456000D03*
%TD*%
%TO.C,REF\u002A\u002A1226*%
X121158000Y-125476000D03*
%TD*%
%TO.C,REF\u002A\u002A1308*%
X139700000Y-130556000D03*
%TD*%
%TO.C,REF\u002A\u002A501*%
X113538000Y-77216000D03*
%TD*%
%TO.C,REF\u002A\u002A398*%
X141478000Y-69596000D03*
%TD*%
%TO.C,REF\u002A\u002A316*%
X126238000Y-64516000D03*
%TD*%
%TO.C,REF\u002A\u002A1012*%
X156718000Y-110236000D03*
%TD*%
%TO.C,REF\u002A\u002A1185*%
X113538000Y-122936000D03*
%TD*%
%TO.C,REF\u002A\u002A380*%
X192278000Y-67056000D03*
%TD*%
%TO.C,REF\u002A\u002A1028*%
X100838000Y-112776000D03*
%TD*%
%TO.C,REF\u002A\u002A1193*%
X133858000Y-122936000D03*
%TD*%
%TO.C,REF\u002A\u002A1037*%
X123698000Y-112776000D03*
%TD*%
%TO.C,REF\u002A\u002A644*%
X187198000Y-84836000D03*
%TD*%
%TO.C,REF\u002A\u002A1141*%
X98298000Y-120396000D03*
%TD*%
%TO.C,REF\u002A\u002A928*%
X136398000Y-105156000D03*
%TD*%
%TO.C,REF\u002A\u002A898*%
X156718000Y-102616000D03*
%TD*%
%TO.C,REF\u002A\u002A1291*%
X189738000Y-128016000D03*
%TD*%
%TO.C,REF\u002A\u002A38*%
X194818000Y-44196000D03*
%TD*%
%TO.C,REF\u002A\u002A661*%
X133858000Y-87376000D03*
%TD*%
%TO.C,REF\u002A\u002A94*%
X141478000Y-49276000D03*
%TD*%
%TO.C,REF\u002A\u002A1114*%
X126238000Y-117856000D03*
%TD*%
%TO.C,REF\u002A\u002A296*%
X171958000Y-61976000D03*
%TD*%
%TO.C,REF\u002A\u002A395*%
X133858000Y-69596000D03*
%TD*%
%TO.C,REF\u002A\u002A1144*%
X105918000Y-120396000D03*
%TD*%
%TO.C,REF\u002A\u002A1138*%
X187198000Y-117856000D03*
%TD*%
%TO.C,REF\u002A\u002A565*%
X179578000Y-79756000D03*
%TD*%
%TO.C,REF\u002A\u002A1117*%
X133858000Y-117856000D03*
%TD*%
%TO.C,REF\u002A\u002A326*%
X151638000Y-64516000D03*
%TD*%
%TO.C,REF\u002A\u002A87*%
X123698000Y-49276000D03*
%TD*%
%TO.C,REF\u002A\u002A6*%
X110998000Y-44196000D03*
%TD*%
%TO.C,REF\u002A\u002A259*%
X174498000Y-59436000D03*
%TD*%
%TO.C,REF\u002A\u002A1287*%
X179578000Y-128016000D03*
%TD*%
%TO.C,REF\u002A\u002A1293*%
X101600000Y-130556000D03*
%TD*%
%TO.C,REF\u002A\u002A542*%
X121158000Y-79756000D03*
%TD*%
%TO.C,REF\u002A\u002A894*%
X146558000Y-102616000D03*
%TD*%
%TO.C,REF\u002A\u002A1041*%
X133858000Y-112776000D03*
%TD*%
%TO.C,REF\u002A\u002A113*%
X189738000Y-49276000D03*
%TD*%
%TO.C,REF\u002A\u002A13*%
X128778000Y-44196000D03*
%TD*%
%TO.C,REF\u002A\u002A532*%
X192278000Y-77216000D03*
%TD*%
%TO.C,REF\u002A\u002A49*%
X123698000Y-46736000D03*
%TD*%
%TO.C,REF\u002A\u002A1140*%
X192278000Y-117856000D03*
%TD*%
%TO.C,REF\u002A\u002A408*%
X166878000Y-69596000D03*
%TD*%
%TO.C,REF\u002A\u002A379*%
X189738000Y-67056000D03*
%TD*%
%TO.C,REF\u002A\u002A351*%
X118618000Y-67056000D03*
%TD*%
%TO.C,REF\u002A\u002A650*%
X105918000Y-87376000D03*
%TD*%
%TO.C,REF\u002A\u002A305*%
X98298000Y-64516000D03*
%TD*%
%TO.C,REF\u002A\u002A920*%
X116078000Y-105156000D03*
%TD*%
%TO.C,REF\u002A\u002A768*%
X116078000Y-94996000D03*
%TD*%
%TO.C,REF\u002A\u002A493*%
X189738000Y-74676000D03*
%TD*%
%TO.C,REF\u002A\u002A295*%
X169418000Y-61976000D03*
%TD*%
%TO.C,REF\u002A\u002A543*%
X123698000Y-79756000D03*
%TD*%
%TO.C,REF\u002A\u002A152*%
X192278000Y-51816000D03*
%TD*%
%TO.C,REF\u002A\u002A1263*%
X118618000Y-128016000D03*
%TD*%
%TO.C,REF\u002A\u002A1249*%
X179578000Y-125476000D03*
%TD*%
%TO.C,REF\u002A\u002A1259*%
X108458000Y-128016000D03*
%TD*%
%TO.C,REF\u002A\u002A510*%
X136398000Y-77216000D03*
%TD*%
%TO.C,REF\u002A\u002A1199*%
X149098000Y-122936000D03*
%TD*%
%TO.C,REF\u002A\u002A403*%
X154178000Y-69596000D03*
%TD*%
%TO.C,REF\u002A\u002A909*%
X184658000Y-102616000D03*
%TD*%
%TO.C,REF\u002A\u002A1059*%
X179578000Y-112776000D03*
%TD*%
%TO.C,REF\u002A\u002A782*%
X151638000Y-94996000D03*
%TD*%
%TO.C,REF\u002A\u002A1105*%
X103378000Y-117856000D03*
%TD*%
%TO.C,REF\u002A\u002A1127*%
X159258000Y-117856000D03*
%TD*%
%TO.C,REF\u002A\u002A1173*%
X179578000Y-120396000D03*
%TD*%
%TO.C,REF\u002A\u002A746*%
X156718000Y-92456000D03*
%TD*%
%TO.C,REF\u002A\u002A599*%
X169418000Y-82296000D03*
%TD*%
%TO.C,REF\u002A\u002A812*%
X131318000Y-97536000D03*
%TD*%
%TO.C,REF\u002A\u002A582*%
X126238000Y-82296000D03*
%TD*%
%TO.C,REF\u002A\u002A213*%
X154178000Y-56896000D03*
%TD*%
%TO.C,REF\u002A\u002A278*%
X126238000Y-61976000D03*
%TD*%
%TO.C,REF\u002A\u002A1306*%
X134620000Y-130556000D03*
%TD*%
%TO.C,REF\u002A\u002A195*%
X108458000Y-56896000D03*
%TD*%
%TO.C,REF\u002A\u002A28*%
X166878000Y-44196000D03*
%TD*%
%TO.C,REF\u002A\u002A876*%
X100838000Y-102616000D03*
%TD*%
%TO.C,REF\u002A\u002A257*%
X169418000Y-59436000D03*
%TD*%
%TO.C,REF\u002A\u002A722*%
X194818000Y-89916000D03*
%TD*%
%TO.C,REF\u002A\u002A718*%
X182118000Y-89916000D03*
%TD*%
%TO.C,REF\u002A\u002A1298*%
X114300000Y-130556000D03*
%TD*%
%TO.C,REF\u002A\u002A583*%
X128778000Y-82296000D03*
%TD*%
%TO.C,REF\u002A\u002A1046*%
X146558000Y-112776000D03*
%TD*%
%TO.C,REF\u002A\u002A246*%
X141478000Y-59436000D03*
%TD*%
%TO.C,REF\u002A\u002A1182*%
X105918000Y-122936000D03*
%TD*%
%TO.C,REF\u002A\u002A228*%
X194818000Y-56896000D03*
%TD*%
%TO.C,REF\u002A\u002A63*%
X159258000Y-46736000D03*
%TD*%
%TO.C,REF\u002A\u002A790*%
X171958000Y-94996000D03*
%TD*%
%TO.C,REF\u002A\u002A1024*%
X187198000Y-110236000D03*
%TD*%
%TO.C,REF\u002A\u002A689*%
X108458000Y-89916000D03*
%TD*%
%TO.C,REF\u002A\u002A704*%
X146558000Y-89916000D03*
%TD*%
%TO.C,REF\u002A\u002A714*%
X171958000Y-89916000D03*
%TD*%
%TO.C,REF\u002A\u002A1314*%
X154940000Y-130556000D03*
%TD*%
%TO.C,REF\u002A\u002A175*%
X154178000Y-54356000D03*
%TD*%
%TO.C,REF\u002A\u002A737*%
X133858000Y-92456000D03*
%TD*%
%TO.C,REF\u002A\u002A1112*%
X121158000Y-117856000D03*
%TD*%
%TO.C,REF\u002A\u002A196*%
X110998000Y-56896000D03*
%TD*%
%TO.C,REF\u002A\u002A410*%
X171958000Y-69596000D03*
%TD*%
%TO.C,REF\u002A\u002A762*%
X100838000Y-94996000D03*
%TD*%
%TO.C,REF\u002A\u002A1318*%
X165100000Y-130556000D03*
%TD*%
%TO.C,REF\u002A\u002A758*%
X187198000Y-92456000D03*
%TD*%
%TO.C,REF\u002A\u002A835*%
X189738000Y-97536000D03*
%TD*%
%TO.C,REF\u002A\u002A79*%
X103378000Y-49276000D03*
%TD*%
%TO.C,REF\u002A\u002A274*%
X116078000Y-61976000D03*
%TD*%
%TO.C,REF\u002A\u002A799*%
X98298000Y-97536000D03*
%TD*%
%TO.C,REF\u002A\u002A549*%
X138938000Y-79756000D03*
%TD*%
%TO.C,REF\u002A\u002A1219*%
X103378000Y-125476000D03*
%TD*%
%TO.C,REF\u002A\u002A620*%
X126238000Y-84836000D03*
%TD*%
%TO.C,REF\u002A\u002A299*%
X179578000Y-61976000D03*
%TD*%
%TO.C,REF\u002A\u002A373*%
X174498000Y-67056000D03*
%TD*%
%TO.C,REF\u002A\u002A671*%
X159258000Y-87376000D03*
%TD*%
%TO.C,REF\u002A\u002A106*%
X171958000Y-49276000D03*
%TD*%
%TO.C,REF\u002A\u002A614*%
X110998000Y-84836000D03*
%TD*%
%TO.C,REF\u002A\u002A1118*%
X136398000Y-117856000D03*
%TD*%
%TO.C,REF\u002A\u002A629*%
X149098000Y-84836000D03*
%TD*%
%TO.C,REF\u002A\u002A1165*%
X159258000Y-120396000D03*
%TD*%
%TO.C,REF\u002A\u002A535*%
X103378000Y-79756000D03*
%TD*%
%TO.C,REF\u002A\u002A243*%
X133858000Y-59436000D03*
%TD*%
%TO.C,REF\u002A\u002A248*%
X146558000Y-59436000D03*
%TD*%
%TO.C,REF\u002A\u002A813*%
X133858000Y-97536000D03*
%TD*%
%TO.C,REF\u002A\u002A*%
X189738000Y-133096000D03*
%TD*%
%TO.C,REF\u002A\u002A1040*%
X131318000Y-112776000D03*
%TD*%
%TO.C,REF\u002A\u002A437*%
X144018000Y-72136000D03*
%TD*%
%TO.C,REF\u002A\u002A1310*%
X144780000Y-130556000D03*
%TD*%
%TO.C,REF\u002A\u002A1142*%
X100838000Y-120396000D03*
%TD*%
%TO.C,REF\u002A\u002A788*%
X166878000Y-94996000D03*
%TD*%
%TO.C,REF\u002A\u002A487*%
X174498000Y-74676000D03*
%TD*%
%TO.C,REF\u002A\u002A331*%
X164338000Y-64516000D03*
%TD*%
%TO.C,REF\u002A\u002A752*%
X171958000Y-92456000D03*
%TD*%
%TO.C,REF\u002A\u002A834*%
X187198000Y-97536000D03*
%TD*%
%TO.C,REF\u002A\u002A548*%
X136398000Y-79756000D03*
%TD*%
%TO.C,REF\u002A\u002A540*%
X116078000Y-79756000D03*
%TD*%
%TO.C,REF\u002A\u002A676*%
X171958000Y-87376000D03*
%TD*%
%TO.C,REF\u002A\u002A407*%
X164338000Y-69596000D03*
%TD*%
%TO.C,REF\u002A\u002A904*%
X171958000Y-102616000D03*
%TD*%
%TO.C,REF\u002A\u002A125*%
X123698000Y-51816000D03*
%TD*%
%TO.C,REF\u002A\u002A957*%
X113538000Y-107696000D03*
%TD*%
%TO.C,REF\u002A\u002A983*%
X179578000Y-107696000D03*
%TD*%
%TO.C,REF\u002A\u002A805*%
X113538000Y-97536000D03*
%TD*%
%TO.C,REF\u002A\u002A469*%
X128778000Y-74676000D03*
%TD*%
%TO.C,REF\u002A\u002A1025*%
X189738000Y-110236000D03*
%TD*%
%TO.C,REF\u002A\u002A350*%
X116078000Y-67056000D03*
%TD*%
%TO.C,REF\u002A\u002A264*%
X187198000Y-59436000D03*
%TD*%
%TO.C,REF\u002A\u002A273*%
X113538000Y-61976000D03*
%TD*%
%TO.C,REF\u002A\u002A62*%
X156718000Y-46736000D03*
%TD*%
%TO.C,REF\u002A\u002A400*%
X146558000Y-69596000D03*
%TD*%
%TO.C,REF\u002A\u002A1186*%
X116078000Y-122936000D03*
%TD*%
%TO.C,REF\u002A\u002A312*%
X116078000Y-64516000D03*
%TD*%
%TO.C,REF\u002A\u002A588*%
X141478000Y-82296000D03*
%TD*%
%TO.C,REF\u002A\u002A1043*%
X138938000Y-112776000D03*
%TD*%
%TO.C,REF\u002A\u002A1299*%
X116840000Y-130556000D03*
%TD*%
%TO.C,REF\u002A\u002A625*%
X138938000Y-84836000D03*
%TD*%
%TO.C,REF\u002A\u002A215*%
X159258000Y-56896000D03*
%TD*%
%TO.C,REF\u002A\u002A71*%
X179578000Y-46736000D03*
%TD*%
%TO.C,REF\u002A\u002A1179*%
X98298000Y-122936000D03*
%TD*%
%TO.C,REF\u002A\u002A214*%
X156718000Y-56896000D03*
%TD*%
%TO.C,REF\u002A\u002A19*%
X144018000Y-44196000D03*
%TD*%
%TO.C,REF\u002A\u002A347*%
X108458000Y-67056000D03*
%TD*%
%TO.C,REF\u002A\u002A573*%
X103378000Y-82296000D03*
%TD*%
%TO.C,REF\u002A\u002A1026*%
X194818000Y-110236000D03*
%TD*%
%TO.C,REF\u002A\u002A1091*%
X164338000Y-115316000D03*
%TD*%
%TO.C,REF\u002A\u002A541*%
X118618000Y-79756000D03*
%TD*%
%TO.C,REF\u002A\u002A485*%
X169418000Y-74676000D03*
%TD*%
%TO.C,REF\u002A\u002A233*%
X108458000Y-59436000D03*
%TD*%
%TO.C,REF\u002A\u002A713*%
X169418000Y-89916000D03*
%TD*%
%TO.C,REF\u002A\u002A231*%
X103378000Y-59436000D03*
%TD*%
%TO.C,REF\u002A\u002A709*%
X159258000Y-89916000D03*
%TD*%
%TO.C,REF\u002A\u002A791*%
X174498000Y-94996000D03*
%TD*%
%TO.C,REF\u002A\u002A1216*%
X194818000Y-122936000D03*
%TD*%
%TO.C,REF\u002A\u002A48*%
X121158000Y-46736000D03*
%TD*%
%TO.C,REF\u002A\u002A371*%
X169418000Y-67056000D03*
%TD*%
%TO.C,REF\u002A\u002A1254*%
X178562000Y-130556000D03*
%TD*%
%TO.C,REF\u002A\u002A68*%
X171958000Y-46736000D03*
%TD*%
%TO.C,REF\u002A\u002A715*%
X174498000Y-89916000D03*
%TD*%
%TO.C,REF\u002A\u002A1102*%
X194818000Y-115316000D03*
%TD*%
%TO.C,REF\u002A\u002A76*%
X192278000Y-46736000D03*
%TD*%
%TO.C,REF\u002A\u002A255*%
X164338000Y-59436000D03*
%TD*%
%TO.C,REF\u002A\u002A411*%
X174498000Y-69596000D03*
%TD*%
%TO.C,REF\u002A\u002A358*%
X136398000Y-67056000D03*
%TD*%
%TO.C,REF\u002A\u002A394*%
X131318000Y-69596000D03*
%TD*%
%TO.C,REF\u002A\u002A455*%
X189738000Y-72136000D03*
%TD*%
%TO.C,REF\u002A\u002A575*%
X108458000Y-82296000D03*
%TD*%
%TO.C,REF\u002A\u002A1243*%
X164338000Y-125476000D03*
%TD*%
%TO.C,REF\u002A\u002A1189*%
X123698000Y-122936000D03*
%TD*%
%TO.C,REF\u002A\u002A1254*%
X186182000Y-130556000D03*
%TD*%
%TO.C,REF\u002A\u002A409*%
X169418000Y-69596000D03*
%TD*%
%TO.C,REF\u002A\u002A492*%
X187198000Y-74676000D03*
%TD*%
%TO.C,REF\u002A\u002A17*%
X138938000Y-44196000D03*
%TD*%
%TO.C,REF\u002A\u002A149*%
X184658000Y-51816000D03*
%TD*%
%TO.C,REF\u002A\u002A1203*%
X159258000Y-122936000D03*
%TD*%
%TO.C,REF\u002A\u002A1017*%
X169418000Y-110236000D03*
%TD*%
%TO.C,REF\u002A\u002A241*%
X128778000Y-59436000D03*
%TD*%
%TO.C,REF\u002A\u002A1295*%
X106680000Y-130556000D03*
%TD*%
%TO.C,REF\u002A\u002A498*%
X105918000Y-77216000D03*
%TD*%
%TO.C,REF\u002A\u002A477*%
X149098000Y-74676000D03*
%TD*%
%TO.C,REF\u002A\u002A527*%
X179578000Y-77216000D03*
%TD*%
%TO.C,REF\u002A\u002A970*%
X146558000Y-107696000D03*
%TD*%
%TO.C,REF\u002A\u002A946*%
X182118000Y-105156000D03*
%TD*%
%TO.C,REF\u002A\u002A374*%
X177038000Y-67056000D03*
%TD*%
%TO.C,REF\u002A\u002A318*%
X131318000Y-64516000D03*
%TD*%
%TO.C,REF\u002A\u002A1254*%
X192278000Y-125476000D03*
%TD*%
%TO.C,REF\u002A\u002A1271*%
X138938000Y-128016000D03*
%TD*%
%TO.C,REF\u002A\u002A327*%
X154178000Y-64516000D03*
%TD*%
%TO.C,REF\u002A\u002A422*%
X105918000Y-72136000D03*
%TD*%
%TO.C,REF\u002A\u002A1248*%
X177038000Y-125476000D03*
%TD*%
%TO.C,REF\u002A\u002A1230*%
X131318000Y-125476000D03*
%TD*%
%TO.C,REF\u002A\u002A188*%
X187198000Y-54356000D03*
%TD*%
%TO.C,REF\u002A\u002A342*%
X194818000Y-64516000D03*
%TD*%
%TO.C,REF\u002A\u002A555*%
X154178000Y-79756000D03*
%TD*%
%TO.C,REF\u002A\u002A961*%
X123698000Y-107696000D03*
%TD*%
%TO.C,REF\u002A\u002A929*%
X138938000Y-105156000D03*
%TD*%
%TO.C,REF\u002A\u002A1242*%
X161798000Y-125476000D03*
%TD*%
%TO.C,REF\u002A\u002A1078*%
X131318000Y-115316000D03*
%TD*%
%TO.C,REF\u002A\u002A910*%
X187198000Y-102616000D03*
%TD*%
%TO.C,REF\u002A\u002A269*%
X103378000Y-61976000D03*
%TD*%
%TO.C,REF\u002A\u002A452*%
X182118000Y-72136000D03*
%TD*%
%TO.C,REF\u002A\u002A1064*%
X192278000Y-112776000D03*
%TD*%
%TO.C,REF\u002A\u002A143*%
X169418000Y-51816000D03*
%TD*%
%TO.C,REF\u002A\u002A1158*%
X141478000Y-120396000D03*
%TD*%
%TO.C,REF\u002A\u002A932*%
X146558000Y-105156000D03*
%TD*%
%TO.C,REF\u002A\u002A1160*%
X146558000Y-120396000D03*
%TD*%
%TO.C,REF\u002A\u002A280*%
X131318000Y-61976000D03*
%TD*%
%TO.C,REF\u002A\u002A767*%
X113538000Y-94996000D03*
%TD*%
%TO.C,REF\u002A\u002A969*%
X144018000Y-107696000D03*
%TD*%
%TO.C,REF\u002A\u002A200*%
X121158000Y-56896000D03*
%TD*%
%TO.C,REF\u002A\u002A832*%
X182118000Y-97536000D03*
%TD*%
%TO.C,REF\u002A\u002A687*%
X103378000Y-89916000D03*
%TD*%
%TO.C,REF\u002A\u002A679*%
X179578000Y-87376000D03*
%TD*%
%TO.C,REF\u002A\u002A798*%
X194818000Y-94996000D03*
%TD*%
%TO.C,REF\u002A\u002A96*%
X146558000Y-49276000D03*
%TD*%
%TO.C,REF\u002A\u002A811*%
X128778000Y-97536000D03*
%TD*%
%TO.C,REF\u002A\u002A1244*%
X166878000Y-125476000D03*
%TD*%
%TO.C,REF\u002A\u002A889*%
X133858000Y-102616000D03*
%TD*%
%TO.C,REF\u002A\u002A772*%
X126238000Y-94996000D03*
%TD*%
%TO.C,REF\u002A\u002A615*%
X113538000Y-84836000D03*
%TD*%
%TO.C,REF\u002A\u002A1143*%
X103378000Y-120396000D03*
%TD*%
%TO.C,REF\u002A\u002A821*%
X154178000Y-97536000D03*
%TD*%
%TO.C,REF\u002A\u002A170*%
X141478000Y-54356000D03*
%TD*%
%TO.C,REF\u002A\u002A988*%
X194818000Y-107696000D03*
%TD*%
%TO.C,REF\u002A\u002A798*%
X192278000Y-94996000D03*
%TD*%
%TO.C,REF\u002A\u002A145*%
X174498000Y-51816000D03*
%TD*%
%TO.C,REF\u002A\u002A184*%
X177038000Y-54356000D03*
%TD*%
%TO.C,REF\u002A\u002A666*%
X146558000Y-87376000D03*
%TD*%
%TO.C,REF\u002A\u002A1048*%
X151638000Y-112776000D03*
%TD*%
%TO.C,REF\u002A\u002A966*%
X136398000Y-107696000D03*
%TD*%
%TO.C,REF\u002A\u002A539*%
X113538000Y-79756000D03*
%TD*%
%TO.C,REF\u002A\u002A199*%
X118618000Y-56896000D03*
%TD*%
%TO.C,REF\u002A\u002A1228*%
X126238000Y-125476000D03*
%TD*%
%TO.C,REF\u002A\u002A451*%
X179578000Y-72136000D03*
%TD*%
%TO.C,REF\u002A\u002A147*%
X179578000Y-51816000D03*
%TD*%
%TO.C,REF\u002A\u002A520*%
X161798000Y-77216000D03*
%TD*%
%TO.C,REF\u002A\u002A1035*%
X118618000Y-112776000D03*
%TD*%
%TO.C,REF\u002A\u002A334*%
X171958000Y-64516000D03*
%TD*%
%TO.C,REF\u002A\u002A1274*%
X146558000Y-128016000D03*
%TD*%
%TO.C,REF\u002A\u002A1279*%
X159258000Y-128016000D03*
%TD*%
%TO.C,REF\u002A\u002A74*%
X187198000Y-46736000D03*
%TD*%
%TO.C,REF\u002A\u002A764*%
X105918000Y-94996000D03*
%TD*%
%TO.C,REF\u002A\u002A476*%
X146558000Y-74676000D03*
%TD*%
%TO.C,REF\u002A\u002A862*%
X161798000Y-100076000D03*
%TD*%
%TO.C,REF\u002A\u002A924*%
X126238000Y-105156000D03*
%TD*%
%TO.C,REF\u002A\u002A600*%
X171958000Y-82296000D03*
%TD*%
%TO.C,REF\u002A\u002A647*%
X98298000Y-87376000D03*
%TD*%
%TO.C,REF\u002A\u002A639*%
X174498000Y-84836000D03*
%TD*%
%TO.C,REF\u002A\u002A1020*%
X177038000Y-110236000D03*
%TD*%
%TO.C,REF\u002A\u002A174*%
X151638000Y-54356000D03*
%TD*%
%TO.C,REF\u002A\u002A416*%
X187198000Y-69596000D03*
%TD*%
%TO.C,REF\u002A\u002A516*%
X151638000Y-77216000D03*
%TD*%
%TO.C,REF\u002A\u002A171*%
X144018000Y-54356000D03*
%TD*%
%TO.C,REF\u002A\u002A688*%
X105918000Y-89916000D03*
%TD*%
%TO.C,REF\u002A\u002A20*%
X146558000Y-44196000D03*
%TD*%
%TO.C,REF\u002A\u002A981*%
X174498000Y-107696000D03*
%TD*%
%TO.C,REF\u002A\u002A677*%
X174498000Y-87376000D03*
%TD*%
%TO.C,REF\u002A\u002A105*%
X169418000Y-49276000D03*
%TD*%
%TO.C,REF\u002A\u002A779*%
X144018000Y-94996000D03*
%TD*%
%TO.C,REF\u002A\u002A947*%
X184658000Y-105156000D03*
%TD*%
%TO.C,REF\u002A\u002A449*%
X174498000Y-72136000D03*
%TD*%
%TO.C,REF\u002A\u002A311*%
X113538000Y-64516000D03*
%TD*%
%TO.C,REF\u002A\u002A1174*%
X182118000Y-120396000D03*
%TD*%
%TO.C,REF\u002A\u002A912*%
X192278000Y-102616000D03*
%TD*%
%TO.C,REF\u002A\u002A819*%
X149098000Y-97536000D03*
%TD*%
%TO.C,REF\u002A\u002A245*%
X138938000Y-59436000D03*
%TD*%
%TO.C,REF\u002A\u002A1206*%
X166878000Y-122936000D03*
%TD*%
%TO.C,REF\u002A\u002A514*%
X146558000Y-77216000D03*
%TD*%
%TO.C,REF\u002A\u002A425*%
X113538000Y-72136000D03*
%TD*%
%TO.C,REF\u002A\u002A127*%
X128778000Y-51816000D03*
%TD*%
%TO.C,REF\u002A\u002A938*%
X161798000Y-105156000D03*
%TD*%
%TO.C,REF\u002A\u002A695*%
X123698000Y-89916000D03*
%TD*%
%TO.C,REF\u002A\u002A990*%
X100838000Y-110236000D03*
%TD*%
%TO.C,REF\u002A\u002A617*%
X118618000Y-84836000D03*
%TD*%
%TO.C,REF\u002A\u002A849*%
X128778000Y-100076000D03*
%TD*%
%TO.C,REF\u002A\u002A1049*%
X154178000Y-112776000D03*
%TD*%
%TO.C,REF\u002A\u002A1096*%
X177038000Y-115316000D03*
%TD*%
%TO.C,REF\u002A\u002A1231*%
X133858000Y-125476000D03*
%TD*%
%TO.C,REF\u002A\u002A522*%
X166878000Y-77216000D03*
%TD*%
%TO.C,REF\u002A\u002A8*%
X116078000Y-44196000D03*
%TD*%
%TO.C,REF\u002A\u002A279*%
X128778000Y-61976000D03*
%TD*%
%TO.C,REF\u002A\u002A916*%
X105918000Y-105156000D03*
%TD*%
%TO.C,REF\u002A\u002A517*%
X154178000Y-77216000D03*
%TD*%
%TO.C,REF\u002A\u002A1079*%
X133858000Y-115316000D03*
%TD*%
%TO.C,REF\u002A\u002A1095*%
X174498000Y-115316000D03*
%TD*%
%TO.C,REF\u002A\u002A1187*%
X118618000Y-122936000D03*
%TD*%
%TO.C,REF\u002A\u002A967*%
X138938000Y-107696000D03*
%TD*%
%TO.C,REF\u002A\u002A977*%
X164338000Y-107696000D03*
%TD*%
%TO.C,REF\u002A\u002A167*%
X133858000Y-54356000D03*
%TD*%
%TO.C,REF\u002A\u002A937*%
X159258000Y-105156000D03*
%TD*%
%TO.C,REF\u002A\u002A1238*%
X151638000Y-125476000D03*
%TD*%
%TO.C,REF\u002A\u002A132*%
X141478000Y-51816000D03*
%TD*%
%TO.C,REF\u002A\u002A415*%
X184658000Y-69596000D03*
%TD*%
%TO.C,REF\u002A\u002A164*%
X126238000Y-54356000D03*
%TD*%
%TO.C,REF\u002A\u002A554*%
X151638000Y-79756000D03*
%TD*%
%TO.C,REF\u002A\u002A258*%
X171958000Y-59436000D03*
%TD*%
%TO.C,REF\u002A\u002A333*%
X169418000Y-64516000D03*
%TD*%
%TO.C,REF\u002A\u002A766*%
X110998000Y-94996000D03*
%TD*%
%TO.C,REF\u002A\u002A1211*%
X179578000Y-122936000D03*
%TD*%
%TO.C,REF\u002A\u002A39*%
X98298000Y-46736000D03*
%TD*%
%TO.C,REF\u002A\u002A985*%
X184658000Y-107696000D03*
%TD*%
%TO.C,REF\u002A\u002A1215*%
X189738000Y-122936000D03*
%TD*%
%TO.C,REF\u002A\u002A464*%
X116078000Y-74676000D03*
%TD*%
%TO.C,REF\u002A\u002A623*%
X133858000Y-84836000D03*
%TD*%
%TO.C,REF\u002A\u002A1033*%
X113538000Y-112776000D03*
%TD*%
%TO.C,REF\u002A\u002A1042*%
X136398000Y-112776000D03*
%TD*%
%TO.C,REF\u002A\u002A146*%
X177038000Y-51816000D03*
%TD*%
%TO.C,REF\u002A\u002A494*%
X194818000Y-74676000D03*
%TD*%
%TO.C,REF\u002A\u002A10*%
X121158000Y-44196000D03*
%TD*%
%TO.C,REF\u002A\u002A717*%
X179578000Y-89916000D03*
%TD*%
%TO.C,REF\u002A\u002A595*%
X159258000Y-82296000D03*
%TD*%
%TO.C,REF\u002A\u002A223*%
X179578000Y-56896000D03*
%TD*%
%TO.C,REF\u002A\u002A1161*%
X149098000Y-120396000D03*
%TD*%
%TO.C,REF\u002A\u002A628*%
X146558000Y-84836000D03*
%TD*%
%TO.C,REF\u002A\u002A413*%
X179578000Y-69596000D03*
%TD*%
%TO.C,REF\u002A\u002A178*%
X161798000Y-54356000D03*
%TD*%
%TO.C,REF\u002A\u002A95*%
X144018000Y-49276000D03*
%TD*%
%TO.C,REF\u002A\u002A1106*%
X105918000Y-117856000D03*
%TD*%
%TO.C,REF\u002A\u002A335*%
X174498000Y-64516000D03*
%TD*%
%TO.C,REF\u002A\u002A754*%
X177038000Y-92456000D03*
%TD*%
%TO.C,REF\u002A\u002A663*%
X138938000Y-87376000D03*
%TD*%
%TO.C,REF\u002A\u002A1029*%
X103378000Y-112776000D03*
%TD*%
%TO.C,REF\u002A\u002A212*%
X151638000Y-56896000D03*
%TD*%
%TO.C,REF\u002A\u002A1011*%
X154178000Y-110236000D03*
%TD*%
%TO.C,REF\u002A\u002A168*%
X136398000Y-54356000D03*
%TD*%
%TO.C,REF\u002A\u002A763*%
X103378000Y-94996000D03*
%TD*%
%TO.C,REF\u002A\u002A931*%
X144018000Y-105156000D03*
%TD*%
%TO.C,REF\u002A\u002A1133*%
X174498000Y-117856000D03*
%TD*%
%TO.C,REF\u002A\u002A192*%
X100838000Y-56896000D03*
%TD*%
%TO.C,REF\u002A\u002A336*%
X177038000Y-64516000D03*
%TD*%
%TO.C,REF\u002A\u002A389*%
X118618000Y-69596000D03*
%TD*%
%TO.C,REF\u002A\u002A760*%
X194818000Y-92456000D03*
%TD*%
%TO.C,REF\u002A\u002A917*%
X108458000Y-105156000D03*
%TD*%
%TO.C,REF\u002A\u002A907*%
X179578000Y-102616000D03*
%TD*%
%TO.C,REF\u002A\u002A630*%
X151638000Y-84836000D03*
%TD*%
%TO.C,REF\u002A\u002A457*%
X98298000Y-74676000D03*
%TD*%
%TO.C,REF\u002A\u002A93*%
X138938000Y-49276000D03*
%TD*%
%TO.C,REF\u002A\u002A1169*%
X169418000Y-120396000D03*
%TD*%
%TO.C,REF\u002A\u002A528*%
X182118000Y-77216000D03*
%TD*%
%TO.C,REF\u002A\u002A896*%
X151638000Y-102616000D03*
%TD*%
%TO.C,REF\u002A\u002A86*%
X121158000Y-49276000D03*
%TD*%
%TO.C,REF\u002A\u002A7*%
X113538000Y-44196000D03*
%TD*%
%TO.C,REF\u002A\u002A822*%
X156718000Y-97536000D03*
%TD*%
%TO.C,REF\u002A\u002A368*%
X161798000Y-67056000D03*
%TD*%
%TO.C,REF\u002A\u002A118*%
X105918000Y-51816000D03*
%TD*%
%TO.C,REF\u002A\u002A618*%
X121158000Y-84836000D03*
%TD*%
%TO.C,REF\u002A\u002A401*%
X149098000Y-69596000D03*
%TD*%
%TO.C,REF\u002A\u002A100*%
X156718000Y-49276000D03*
%TD*%
%TO.C,REF\u002A\u002A580*%
X121158000Y-82296000D03*
%TD*%
%TO.C,REF\u002A\u002A1320*%
X170180000Y-130556000D03*
%TD*%
%TO.C,REF\u002A\u002A571*%
X98298000Y-82296000D03*
%TD*%
%TO.C,REF\u002A\u002A387*%
X113538000Y-69596000D03*
%TD*%
%TO.C,REF\u002A\u002A1086*%
X151638000Y-115316000D03*
%TD*%
%TO.C,REF\u002A\u002A377*%
X184658000Y-67056000D03*
%TD*%
%TO.C,REF\u002A\u002A306*%
X100838000Y-64516000D03*
%TD*%
%TO.C,REF\u002A\u002A1254*%
X181102000Y-130556000D03*
%TD*%
%TO.C,REF\u002A\u002A892*%
X141478000Y-102616000D03*
%TD*%
%TO.C,REF\u002A\u002A748*%
X161798000Y-92456000D03*
%TD*%
%TO.C,REF\u002A\u002A751*%
X169418000Y-92456000D03*
%TD*%
%TO.C,REF\u002A\u002A1273*%
X144018000Y-128016000D03*
%TD*%
%TO.C,REF\u002A\u002A3*%
X103378000Y-44196000D03*
%TD*%
%TO.C,REF\u002A\u002A1038*%
X126238000Y-112776000D03*
%TD*%
%TO.C,REF\u002A\u002A291*%
X159258000Y-61976000D03*
%TD*%
%TO.C,REF\u002A\u002A364*%
X151638000Y-67056000D03*
%TD*%
%TO.C,REF\u002A\u002A781*%
X149098000Y-94996000D03*
%TD*%
%TO.C,REF\u002A\u002A1315*%
X157480000Y-130556000D03*
%TD*%
%TO.C,REF\u002A\u002A124*%
X121158000Y-51816000D03*
%TD*%
%TO.C,REF\u002A\u002A581*%
X123698000Y-82296000D03*
%TD*%
%TO.C,REF\u002A\u002A332*%
X166878000Y-64516000D03*
%TD*%
%TO.C,REF\u002A\u002A138*%
X156718000Y-51816000D03*
%TD*%
%TO.C,REF\u002A\u002A567*%
X184658000Y-79756000D03*
%TD*%
%TO.C,REF\u002A\u002A919*%
X113538000Y-105156000D03*
%TD*%
%TO.C,REF\u002A\u002A649*%
X103378000Y-87376000D03*
%TD*%
%TO.C,REF\u002A\u002A442*%
X156718000Y-72136000D03*
%TD*%
%TO.C,REF\u002A\u002A611*%
X103378000Y-84836000D03*
%TD*%
%TO.C,REF\u002A\u002A631*%
X154178000Y-84836000D03*
%TD*%
%TO.C,REF\u002A\u002A467*%
X123698000Y-74676000D03*
%TD*%
%TO.C,REF\u002A\u002A880*%
X110998000Y-102616000D03*
%TD*%
%TO.C,REF\u002A\u002A1150*%
X121158000Y-120396000D03*
%TD*%
%TO.C,REF\u002A\u002A483*%
X164338000Y-74676000D03*
%TD*%
%TO.C,REF\u002A\u002A508*%
X131318000Y-77216000D03*
%TD*%
%TO.C,REF\u002A\u002A237*%
X118618000Y-59436000D03*
%TD*%
%TO.C,REF\u002A\u002A340*%
X187198000Y-64516000D03*
%TD*%
%TO.C,REF\u002A\u002A1154*%
X131318000Y-120396000D03*
%TD*%
%TO.C,REF\u002A\u002A473*%
X138938000Y-74676000D03*
%TD*%
%TO.C,REF\u002A\u002A624*%
X136398000Y-84836000D03*
%TD*%
%TO.C,REF\u002A\u002A568*%
X187198000Y-79756000D03*
%TD*%
%TO.C,REF\u002A\u002A140*%
X161798000Y-51816000D03*
%TD*%
%TO.C,REF\u002A\u002A1083*%
X144018000Y-115316000D03*
%TD*%
%TO.C,REF\u002A\u002A645*%
X189738000Y-84836000D03*
%TD*%
%TO.C,REF\u002A\u002A337*%
X179578000Y-64516000D03*
%TD*%
%TO.C,REF\u002A\u002A1278*%
X156718000Y-128016000D03*
%TD*%
%TO.C,REF\u002A\u002A404*%
X156718000Y-69596000D03*
%TD*%
%TO.C,REF\u002A\u002A816*%
X141478000Y-97536000D03*
%TD*%
%TO.C,REF\u002A\u002A643*%
X184658000Y-84836000D03*
%TD*%
%TO.C,REF\u002A\u002A637*%
X169418000Y-84836000D03*
%TD*%
%TO.C,REF\u002A\u002A139*%
X159258000Y-51816000D03*
%TD*%
%TO.C,REF\u002A\u002A2*%
X100838000Y-44196000D03*
%TD*%
%TO.C,REF\u002A\u002A110*%
X182118000Y-49276000D03*
%TD*%
%TO.C,REF\u002A\u002A46*%
X116078000Y-46736000D03*
%TD*%
%TO.C,REF\u002A\u002A869*%
X179578000Y-100076000D03*
%TD*%
%TO.C,REF\u002A\u002A121*%
X113538000Y-51816000D03*
%TD*%
%TO.C,REF\u002A\u002A1313*%
X152400000Y-130556000D03*
%TD*%
%TO.C,REF\u002A\u002A802*%
X105918000Y-97536000D03*
%TD*%
%TO.C,REF\u002A\u002A329*%
X159258000Y-64516000D03*
%TD*%
%TO.C,REF\u002A\u002A1307*%
X137160000Y-130556000D03*
%TD*%
%TO.C,REF\u002A\u002A1276*%
X151638000Y-128016000D03*
%TD*%
%TO.C,REF\u002A\u002A1066*%
X100838000Y-115316000D03*
%TD*%
%TO.C,REF\u002A\u002A360*%
X141478000Y-67056000D03*
%TD*%
%TO.C,REF\u002A\u002A88*%
X126238000Y-49276000D03*
%TD*%
%TO.C,REF\u002A\u002A1044*%
X141478000Y-112776000D03*
%TD*%
%TO.C,REF\u002A\u002A383*%
X103378000Y-69596000D03*
%TD*%
%TO.C,REF\u002A\u002A1222*%
X110998000Y-125476000D03*
%TD*%
%TO.C,REF\u002A\u002A438*%
X146558000Y-72136000D03*
%TD*%
%TO.C,REF\u002A\u002A878*%
X105918000Y-102616000D03*
%TD*%
%TO.C,REF\u002A\u002A77*%
X98298000Y-49276000D03*
%TD*%
%TO.C,REF\u002A\u002A1155*%
X133858000Y-120396000D03*
%TD*%
%TO.C,REF\u002A\u002A284*%
X141478000Y-61976000D03*
%TD*%
%TO.C,REF\u002A\u002A263*%
X184658000Y-59436000D03*
%TD*%
%TO.C,REF\u002A\u002A209*%
X144018000Y-56896000D03*
%TD*%
%TO.C,REF\u002A\u002A294*%
X166878000Y-61976000D03*
%TD*%
%TO.C,REF\u002A\u002A426*%
X116078000Y-72136000D03*
%TD*%
%TO.C,REF\u002A\u002A810*%
X126238000Y-97536000D03*
%TD*%
%TO.C,REF\u002A\u002A1171*%
X174498000Y-120396000D03*
%TD*%
%TO.C,REF\u002A\u002A1265*%
X123698000Y-128016000D03*
%TD*%
%TO.C,REF\u002A\u002A35*%
X184658000Y-44196000D03*
%TD*%
%TO.C,REF\u002A\u002A386*%
X110998000Y-69596000D03*
%TD*%
%TO.C,REF\u002A\u002A431*%
X128778000Y-72136000D03*
%TD*%
%TO.C,REF\u002A\u002A786*%
X161798000Y-94996000D03*
%TD*%
%TO.C,REF\u002A\u002A397*%
X138938000Y-69596000D03*
%TD*%
%TO.C,REF\u002A\u002A323*%
X144018000Y-64516000D03*
%TD*%
%TO.C,REF\u002A\u002A743*%
X149098000Y-92456000D03*
%TD*%
%TO.C,REF\u002A\u002A865*%
X169418000Y-100076000D03*
%TD*%
%TO.C,REF\u002A\u002A519*%
X159258000Y-77216000D03*
%TD*%
%TO.C,REF\u002A\u002A1087*%
X154178000Y-115316000D03*
%TD*%
%TO.C,REF\u002A\u002A847*%
X123698000Y-100076000D03*
%TD*%
%TO.C,REF\u002A\u002A179*%
X164338000Y-54356000D03*
%TD*%
%TO.C,REF\u002A\u002A712*%
X166878000Y-89916000D03*
%TD*%
%TO.C,REF\u002A\u002A66*%
X166878000Y-46736000D03*
%TD*%
%TO.C,REF\u002A\u002A675*%
X169418000Y-87376000D03*
%TD*%
%TO.C,REF\u002A\u002A727*%
X108458000Y-92456000D03*
%TD*%
%TO.C,REF\u002A\u002A723*%
X98298000Y-92456000D03*
%TD*%
%TO.C,REF\u002A\u002A288*%
X151638000Y-61976000D03*
%TD*%
%TO.C,REF\u002A\u002A592*%
X151638000Y-82296000D03*
%TD*%
%TO.C,REF\u002A\u002A922*%
X121158000Y-105156000D03*
%TD*%
%TO.C,REF\u002A\u002A572*%
X100838000Y-82296000D03*
%TD*%
%TO.C,REF\u002A\u002A253*%
X159258000Y-59436000D03*
%TD*%
%TO.C,REF\u002A\u002A814*%
X136398000Y-97536000D03*
%TD*%
%TO.C,REF\u002A\u002A1284*%
X171958000Y-128016000D03*
%TD*%
%TO.C,REF\u002A\u002A841*%
X108458000Y-100076000D03*
%TD*%
%TO.C,REF\u002A\u002A529*%
X184658000Y-77216000D03*
%TD*%
%TO.C,REF\u002A\u002A566*%
X182118000Y-79756000D03*
%TD*%
%TO.C,REF\u002A\u002A547*%
X133858000Y-79756000D03*
%TD*%
%TO.C,REF\u002A\u002A153*%
X98298000Y-54356000D03*
%TD*%
%TO.C,REF\u002A\u002A488*%
X177038000Y-74676000D03*
%TD*%
%TO.C,REF\u002A\u002A551*%
X144018000Y-79756000D03*
%TD*%
%TO.C,REF\u002A\u002A552*%
X146558000Y-79756000D03*
%TD*%
%TO.C,REF\u002A\u002A*%
X194818000Y-133096000D03*
%TD*%
%TO.C,REF\u002A\u002A673*%
X164338000Y-87376000D03*
%TD*%
%TO.C,REF\u002A\u002A462*%
X110998000Y-74676000D03*
%TD*%
%TO.C,REF\u002A\u002A*%
X194818000Y-128016000D03*
%TD*%
%TO.C,REF\u002A\u002A936*%
X156718000Y-105156000D03*
%TD*%
%TO.C,REF\u002A\u002A441*%
X154178000Y-72136000D03*
%TD*%
%TO.C,REF\u002A\u002A598*%
X166878000Y-82296000D03*
%TD*%
%TO.C,REF\u002A\u002A839*%
X103378000Y-100076000D03*
%TD*%
%TO.C,REF\u002A\u002A116*%
X100838000Y-51816000D03*
%TD*%
%TO.C,REF\u002A\u002A240*%
X126238000Y-59436000D03*
%TD*%
%TO.C,REF\u002A\u002A945*%
X179578000Y-105156000D03*
%TD*%
%TO.C,REF\u002A\u002A942*%
X171958000Y-105156000D03*
%TD*%
%TO.C,REF\u002A\u002A998*%
X121158000Y-110236000D03*
%TD*%
%TO.C,REF\u002A\u002A92*%
X136398000Y-49276000D03*
%TD*%
%TO.C,REF\u002A\u002A345*%
X103378000Y-67056000D03*
%TD*%
%TO.C,REF\u002A\u002A435*%
X138938000Y-72136000D03*
%TD*%
%TO.C,REF\u002A\u002A1280*%
X161798000Y-128016000D03*
%TD*%
%TO.C,REF\u002A\u002A1007*%
X144018000Y-110236000D03*
%TD*%
%TO.C,REF\u002A\u002A1254*%
X183642000Y-130556000D03*
%TD*%
%TO.C,REF\u002A\u002A472*%
X136398000Y-74676000D03*
%TD*%
%TO.C,REF\u002A\u002A800*%
X100838000Y-97536000D03*
%TD*%
%TO.C,REF\u002A\u002A1074*%
X121158000Y-115316000D03*
%TD*%
%TO.C,REF\u002A\u002A923*%
X123698000Y-105156000D03*
%TD*%
%TO.C,REF\u002A\u002A842*%
X110998000Y-100076000D03*
%TD*%
%TO.C,REF\u002A\u002A1151*%
X123698000Y-120396000D03*
%TD*%
%TO.C,REF\u002A\u002A721*%
X189738000Y-89916000D03*
%TD*%
%TO.C,REF\u002A\u002A448*%
X171958000Y-72136000D03*
%TD*%
%TO.C,REF\u002A\u002A959*%
X118618000Y-107696000D03*
%TD*%
%TO.C,REF\u002A\u002A354*%
X126238000Y-67056000D03*
%TD*%
%TO.C,REF\u002A\u002A1303*%
X127000000Y-130556000D03*
%TD*%
%TO.C,REF\u002A\u002A254*%
X161798000Y-59436000D03*
%TD*%
%TO.C,REF\u002A\u002A1157*%
X138938000Y-120396000D03*
%TD*%
%TO.C,REF\u002A\u002A165*%
X128778000Y-54356000D03*
%TD*%
%TO.C,REF\u002A\u002A1201*%
X154178000Y-122936000D03*
%TD*%
%TO.C,REF\u002A\u002A770*%
X121158000Y-94996000D03*
%TD*%
%TO.C,REF\u002A\u002A697*%
X128778000Y-89916000D03*
%TD*%
%TO.C,REF\u002A\u002A579*%
X118618000Y-82296000D03*
%TD*%
%TO.C,REF\u002A\u002A227*%
X189738000Y-56896000D03*
%TD*%
%TO.C,REF\u002A\u002A1036*%
X121158000Y-112776000D03*
%TD*%
%TO.C,REF\u002A\u002A102*%
X161798000Y-49276000D03*
%TD*%
%TO.C,REF\u002A\u002A1116*%
X131318000Y-117856000D03*
%TD*%
%TO.C,REF\u002A\u002A1153*%
X128778000Y-120396000D03*
%TD*%
%TO.C,REF\u002A\u002A1084*%
X146558000Y-115316000D03*
%TD*%
%TO.C,REF\u002A\u002A160*%
X116078000Y-54356000D03*
%TD*%
%TO.C,REF\u002A\u002A669*%
X154178000Y-87376000D03*
%TD*%
%TO.C,REF\u002A\u002A84*%
X116078000Y-49276000D03*
%TD*%
%TO.C,REF\u002A\u002A423*%
X108458000Y-72136000D03*
%TD*%
%TO.C,REF\u002A\u002A757*%
X184658000Y-92456000D03*
%TD*%
%TO.C,REF\u002A\u002A24*%
X156718000Y-44196000D03*
%TD*%
%TO.C,REF\u002A\u002A382*%
X100838000Y-69596000D03*
%TD*%
%TO.C,REF\u002A\u002A151*%
X189738000Y-51816000D03*
%TD*%
%TO.C,REF\u002A\u002A831*%
X179578000Y-97536000D03*
%TD*%
%TO.C,REF\u002A\u002A980*%
X171958000Y-107696000D03*
%TD*%
%TO.C,REF\u002A\u002A378*%
X187198000Y-67056000D03*
%TD*%
%TO.C,REF\u002A\u002A1009*%
X149098000Y-110236000D03*
%TD*%
%TO.C,REF\u002A\u002A1051*%
X159258000Y-112776000D03*
%TD*%
%TO.C,REF\u002A\u002A1065*%
X98298000Y-115316000D03*
%TD*%
%TO.C,REF\u002A\u002A1209*%
X174498000Y-122936000D03*
%TD*%
%TO.C,REF\u002A\u002A388*%
X116078000Y-69596000D03*
%TD*%
%TO.C,REF\u002A\u002A1080*%
X136398000Y-115316000D03*
%TD*%
%TO.C,REF\u002A\u002A230*%
X100838000Y-59436000D03*
%TD*%
%TO.C,REF\u002A\u002A47*%
X118618000Y-46736000D03*
%TD*%
%TO.C,REF\u002A\u002A222*%
X177038000Y-56896000D03*
%TD*%
%TO.C,REF\u002A\u002A76*%
X194818000Y-46736000D03*
%TD*%
%TO.C,REF\u002A\u002A1082*%
X141478000Y-115316000D03*
%TD*%
%TO.C,REF\u002A\u002A1008*%
X146558000Y-110236000D03*
%TD*%
%TO.C,REF\u002A\u002A276*%
X121158000Y-61976000D03*
%TD*%
%TO.C,REF\u002A\u002A460*%
X105918000Y-74676000D03*
%TD*%
%TO.C,REF\u002A\u002A459*%
X103378000Y-74676000D03*
%TD*%
%TO.C,REF\u002A\u002A690*%
X110998000Y-89916000D03*
%TD*%
%TO.C,REF\u002A\u002A711*%
X164338000Y-89916000D03*
%TD*%
%TO.C,REF\u002A\u002A524*%
X171958000Y-77216000D03*
%TD*%
%TO.C,REF\u002A\u002A206*%
X136398000Y-56896000D03*
%TD*%
%TO.C,REF\u002A\u002A1294*%
X104140000Y-130556000D03*
%TD*%
%TO.C,REF\u002A\u002A107*%
X174498000Y-49276000D03*
%TD*%
%TO.C,REF\u002A\u002A1131*%
X169418000Y-117856000D03*
%TD*%
%TO.C,REF\u002A\u002A655*%
X118618000Y-87376000D03*
%TD*%
%TO.C,REF\u002A\u002A427*%
X118618000Y-72136000D03*
%TD*%
%TO.C,REF\u002A\u002A27*%
X164338000Y-44196000D03*
%TD*%
%TO.C,REF\u002A\u002A500*%
X110998000Y-77216000D03*
%TD*%
%TO.C,REF\u002A\u002A789*%
X169418000Y-94996000D03*
%TD*%
%TO.C,REF\u002A\u002A574*%
X105918000Y-82296000D03*
%TD*%
%TO.C,REF\u002A\u002A745*%
X154178000Y-92456000D03*
%TD*%
%TO.C,REF\u002A\u002A963*%
X128778000Y-107696000D03*
%TD*%
%TO.C,REF\u002A\u002A761*%
X98298000Y-94996000D03*
%TD*%
%TO.C,REF\u002A\u002A65*%
X164338000Y-46736000D03*
%TD*%
%TO.C,REF\u002A\u002A515*%
X149098000Y-77216000D03*
%TD*%
%TO.C,REF\u002A\u002A83*%
X113538000Y-49276000D03*
%TD*%
%TO.C,REF\u002A\u002A930*%
X141478000Y-105156000D03*
%TD*%
%TO.C,REF\u002A\u002A885*%
X123698000Y-102616000D03*
%TD*%
%TO.C,REF\u002A\u002A778*%
X141478000Y-94996000D03*
%TD*%
%TO.C,REF\u002A\u002A380*%
X194818000Y-67056000D03*
%TD*%
%TO.C,REF\u002A\u002A613*%
X108458000Y-84836000D03*
%TD*%
%TO.C,REF\u002A\u002A902*%
X166878000Y-102616000D03*
%TD*%
%TO.C,REF\u002A\u002A197*%
X113538000Y-56896000D03*
%TD*%
%TO.C,REF\u002A\u002A1195*%
X138938000Y-122936000D03*
%TD*%
%TO.C,REF\u002A\u002A384*%
X105918000Y-69596000D03*
%TD*%
%TO.C,REF\u002A\u002A123*%
X118618000Y-51816000D03*
%TD*%
%TO.C,REF\u002A\u002A1000*%
X126238000Y-110236000D03*
%TD*%
%TO.C,REF\u002A\u002A815*%
X138938000Y-97536000D03*
%TD*%
%TO.C,REF\u002A\u002A486*%
X171958000Y-74676000D03*
%TD*%
%TO.C,REF\u002A\u002A129*%
X133858000Y-51816000D03*
%TD*%
%TO.C,REF\u002A\u002A1128*%
X161798000Y-117856000D03*
%TD*%
%TO.C,REF\u002A\u002A818*%
X146558000Y-97536000D03*
%TD*%
%TO.C,REF\u002A\u002A430*%
X126238000Y-72136000D03*
%TD*%
%TO.C,REF\u002A\u002A348*%
X110998000Y-67056000D03*
%TD*%
%TO.C,REF\u002A\u002A976*%
X161798000Y-107696000D03*
%TD*%
%TO.C,REF\u002A\u002A852*%
X136398000Y-100076000D03*
%TD*%
%TO.C,REF\u002A\u002A267*%
X98298000Y-61976000D03*
%TD*%
%TO.C,REF\u002A\u002A943*%
X174498000Y-105156000D03*
%TD*%
%TO.C,REF\u002A\u002A1054*%
X166878000Y-112776000D03*
%TD*%
%TO.C,REF\u002A\u002A603*%
X179578000Y-82296000D03*
%TD*%
%TO.C,REF\u002A\u002A261*%
X179578000Y-59436000D03*
%TD*%
%TO.C,REF\u002A\u002A1070*%
X110998000Y-115316000D03*
%TD*%
%TO.C,REF\u002A\u002A626*%
X141478000Y-84836000D03*
%TD*%
%TO.C,REF\u002A\u002A1121*%
X144018000Y-117856000D03*
%TD*%
%TO.C,REF\u002A\u002A740*%
X141478000Y-92456000D03*
%TD*%
%TO.C,REF\u002A\u002A367*%
X159258000Y-67056000D03*
%TD*%
%TO.C,REF\u002A\u002A1032*%
X110998000Y-112776000D03*
%TD*%
%TO.C,REF\u002A\u002A1220*%
X105918000Y-125476000D03*
%TD*%
%TO.C,REF\u002A\u002A201*%
X123698000Y-56896000D03*
%TD*%
%TO.C,REF\u002A\u002A1122*%
X146558000Y-117856000D03*
%TD*%
%TO.C,REF\u002A\u002A756*%
X182118000Y-92456000D03*
%TD*%
%TO.C,REF\u002A\u002A57*%
X144018000Y-46736000D03*
%TD*%
%TO.C,REF\u002A\u002A1256*%
X100838000Y-128016000D03*
%TD*%
%TO.C,REF\u002A\u002A1216*%
X192278000Y-122936000D03*
%TD*%
%TO.C,REF\u002A\u002A251*%
X154178000Y-59436000D03*
%TD*%
%TO.C,REF\u002A\u002A635*%
X164338000Y-84836000D03*
%TD*%
%TO.C,REF\u002A\u002A266*%
X192278000Y-59436000D03*
%TD*%
%TO.C,REF\u002A\u002A823*%
X159258000Y-97536000D03*
%TD*%
%TO.C,REF\u002A\u002A843*%
X113538000Y-100076000D03*
%TD*%
%TO.C,REF\u002A\u002A1053*%
X164338000Y-112776000D03*
%TD*%
%TO.C,REF\u002A\u002A187*%
X184658000Y-54356000D03*
%TD*%
%TO.C,REF\u002A\u002A562*%
X171958000Y-79756000D03*
%TD*%
%TO.C,REF\u002A\u002A218*%
X166878000Y-56896000D03*
%TD*%
%TO.C,REF\u002A\u002A1212*%
X182118000Y-122936000D03*
%TD*%
%TO.C,REF\u002A\u002A277*%
X123698000Y-61976000D03*
%TD*%
%TO.C,REF\u002A\u002A304*%
X194818000Y-61976000D03*
%TD*%
%TO.C,REF\u002A\u002A1123*%
X149098000Y-117856000D03*
%TD*%
%TO.C,REF\u002A\u002A864*%
X166878000Y-100076000D03*
%TD*%
%TO.C,REF\u002A\u002A60*%
X151638000Y-46736000D03*
%TD*%
%TO.C,REF\u002A\u002A405*%
X159258000Y-69596000D03*
%TD*%
%TO.C,REF\u002A\u002A724*%
X100838000Y-92456000D03*
%TD*%
%TO.C,REF\u002A\u002A*%
X175260000Y-130556000D03*
%TD*%
%TO.C,REF\u002A\u002A979*%
X169418000Y-107696000D03*
%TD*%
%TO.C,REF\u002A\u002A204*%
X131318000Y-56896000D03*
%TD*%
%TO.C,REF\u002A\u002A352*%
X121158000Y-67056000D03*
%TD*%
%TO.C,REF\u002A\u002A828*%
X171958000Y-97536000D03*
%TD*%
%TO.C,REF\u002A\u002A1194*%
X136398000Y-122936000D03*
%TD*%
%TO.C,REF\u002A\u002A895*%
X149098000Y-102616000D03*
%TD*%
%TO.C,REF\u002A\u002A338*%
X182118000Y-64516000D03*
%TD*%
%TO.C,REF\u002A\u002A742*%
X146558000Y-92456000D03*
%TD*%
%TO.C,REF\u002A\u002A825*%
X164338000Y-97536000D03*
%TD*%
%TO.C,REF\u002A\u002A900*%
X161798000Y-102616000D03*
%TD*%
%TO.C,REF\u002A\u002A1152*%
X126238000Y-120396000D03*
%TD*%
%TO.C,REF\u002A\u002A454*%
X187198000Y-72136000D03*
%TD*%
%TO.C,REF\u002A\u002A4*%
X105918000Y-44196000D03*
%TD*%
%TO.C,REF\u002A\u002A1312*%
X149860000Y-130556000D03*
%TD*%
%TO.C,REF\u002A\u002A108*%
X177038000Y-49276000D03*
%TD*%
%TO.C,REF\u002A\u002A25*%
X159258000Y-44196000D03*
%TD*%
%TO.C,REF\u002A\u002A474*%
X141478000Y-74676000D03*
%TD*%
%TO.C,REF\u002A\u002A21*%
X149098000Y-44196000D03*
%TD*%
%TO.C,REF\u002A\u002A807*%
X118618000Y-97536000D03*
%TD*%
%TO.C,REF\u002A\u002A1177*%
X189738000Y-120396000D03*
%TD*%
%TO.C,REF\u002A\u002A701*%
X138938000Y-89916000D03*
%TD*%
%TO.C,REF\u002A\u002A232*%
X105918000Y-59436000D03*
%TD*%
%TO.C,REF\u002A\u002A725*%
X103378000Y-92456000D03*
%TD*%
%TO.C,REF\u002A\u002A560*%
X166878000Y-79756000D03*
%TD*%
%TO.C,REF\u002A\u002A948*%
X187198000Y-105156000D03*
%TD*%
%TO.C,REF\u002A\u002A429*%
X123698000Y-72136000D03*
%TD*%
%TO.C,REF\u002A\u002A699*%
X133858000Y-89916000D03*
%TD*%
%TO.C,REF\u002A\u002A112*%
X187198000Y-49276000D03*
%TD*%
%TO.C,REF\u002A\u002A1268*%
X131318000Y-128016000D03*
%TD*%
%TO.C,REF\u002A\u002A682*%
X187198000Y-87376000D03*
%TD*%
%TO.C,REF\u002A\u002A691*%
X113538000Y-89916000D03*
%TD*%
%TO.C,REF\u002A\u002A1234*%
X141478000Y-125476000D03*
%TD*%
%TO.C,REF\u002A\u002A131*%
X138938000Y-51816000D03*
%TD*%
%TO.C,REF\u002A\u002A1015*%
X164338000Y-110236000D03*
%TD*%
%TO.C,REF\u002A\u002A496*%
X100838000Y-77216000D03*
%TD*%
%TO.C,REF\u002A\u002A597*%
X164338000Y-82296000D03*
%TD*%
%TO.C,REF\u002A\u002A776*%
X136398000Y-94996000D03*
%TD*%
%TO.C,REF\u002A\u002A310*%
X110998000Y-64516000D03*
%TD*%
%TO.C,REF\u002A\u002A857*%
X149098000Y-100076000D03*
%TD*%
%TO.C,REF\u002A\u002A126*%
X126238000Y-51816000D03*
%TD*%
%TO.C,REF\u002A\u002A587*%
X138938000Y-82296000D03*
%TD*%
%TO.C,REF\u002A\u002A369*%
X164338000Y-67056000D03*
%TD*%
%TO.C,REF\u002A\u002A1134*%
X177038000Y-117856000D03*
%TD*%
%TO.C,REF\u002A\u002A863*%
X164338000Y-100076000D03*
%TD*%
%TO.C,REF\u002A\u002A855*%
X144018000Y-100076000D03*
%TD*%
%TO.C,REF\u002A\u002A848*%
X126238000Y-100076000D03*
%TD*%
%TO.C,REF\u002A\u002A964*%
X131318000Y-107696000D03*
%TD*%
%TO.C,REF\u002A\u002A1135*%
X179578000Y-117856000D03*
%TD*%
%TO.C,REF\u002A\u002A968*%
X141478000Y-107696000D03*
%TD*%
%TO.C,REF\u002A\u002A505*%
X123698000Y-77216000D03*
%TD*%
%TO.C,REF\u002A\u002A1224*%
X116078000Y-125476000D03*
%TD*%
%TO.C,REF\u002A\u002A370*%
X166878000Y-67056000D03*
%TD*%
%TO.C,REF\u002A\u002A925*%
X128778000Y-105156000D03*
%TD*%
%TO.C,REF\u002A\u002A1317*%
X162560000Y-130556000D03*
%TD*%
%TO.C,REF\u002A\u002A456*%
X194818000Y-72136000D03*
%TD*%
%TO.C,REF\u002A\u002A1269*%
X133858000Y-128016000D03*
%TD*%
%TO.C,REF\u002A\u002A480*%
X156718000Y-74676000D03*
%TD*%
%TO.C,REF\u002A\u002A396*%
X136398000Y-69596000D03*
%TD*%
%TO.C,REF\u002A\u002A189*%
X189738000Y-54356000D03*
%TD*%
%TO.C,REF\u002A\u002A1162*%
X151638000Y-120396000D03*
%TD*%
%TO.C,REF\u002A\u002A1255*%
X98298000Y-128016000D03*
%TD*%
%TO.C,REF\u002A\u002A450*%
X177038000Y-72136000D03*
%TD*%
M02*
