M48
; DRILL file {KiCad 9.0.1+1} date 2025-06-01T22:03:48+0200
; FORMAT={-:-/ absolute / inch / decimal}
; #@! TF.CreationDate,2025-06-01T22:03:48+02:00
; #@! TF.GenerationSoftware,Kicad,Pcbnew,9.0.1+1
; #@! TF.FileFunction,Plated,1,2,PTH
FMAT,2
INCH
; #@! TA.AperFunction,Plated,PTH,ViaDrill
T1C0.0197
; #@! TA.AperFunction,Plated,PTH,ComponentDrill
T2C0.0394
%
G90
G05
T1
X4.05Y-5.21
X6.75Y-5.21
T2
X3.87Y-1.74
X3.87Y-1.84
X3.87Y-1.94
X3.87Y-2.04
X3.87Y-2.14
X3.87Y-2.24
X3.87Y-2.34
X3.87Y-2.44
X3.87Y-2.54
X3.87Y-2.64
X3.87Y-2.74
X3.87Y-2.84
X3.87Y-2.94
X3.87Y-3.04
X3.87Y-3.14
X3.87Y-3.24
X3.87Y-3.34
X3.87Y-3.44
X3.87Y-3.54
X3.87Y-3.64
X3.87Y-3.74
X3.87Y-3.84
X3.87Y-3.94
X3.87Y-4.04
X3.87Y-4.14
X3.87Y-4.24
X3.87Y-4.34
X3.87Y-4.44
X3.87Y-4.54
X3.87Y-4.64
X3.87Y-4.74
X3.87Y-4.84
X3.87Y-4.94
X3.87Y-5.04
X3.97Y-1.74
X3.97Y-1.84
X3.97Y-1.94
X3.97Y-2.04
X3.97Y-2.14
X3.97Y-2.24
X3.97Y-2.34
X3.97Y-2.44
X3.97Y-2.54
X3.97Y-2.64
X3.97Y-2.74
X3.97Y-2.84
X3.97Y-2.94
X3.97Y-3.04
X3.97Y-3.14
X3.97Y-3.24
X3.97Y-3.34
X3.97Y-3.44
X3.97Y-3.54
X3.97Y-3.64
X3.97Y-3.74
X3.97Y-3.84
X3.97Y-3.94
X3.97Y-4.04
X3.97Y-4.14
X3.97Y-4.24
X3.97Y-4.34
X3.97Y-4.44
X3.97Y-4.54
X3.97Y-4.64
X3.97Y-4.74
X3.97Y-4.84
X3.97Y-4.94
X3.97Y-5.04
X4.07Y-1.74
X4.07Y-1.84
X4.07Y-1.94
X4.07Y-2.04
X4.07Y-2.14
X4.07Y-2.24
X4.07Y-2.34
X4.07Y-2.44
X4.07Y-2.54
X4.07Y-2.64
X4.07Y-2.74
X4.07Y-2.84
X4.07Y-2.94
X4.07Y-3.04
X4.07Y-3.14
X4.07Y-3.24
X4.07Y-3.34
X4.07Y-3.44
X4.07Y-3.54
X4.07Y-3.64
X4.07Y-3.74
X4.07Y-3.84
X4.07Y-3.94
X4.07Y-4.04
X4.07Y-4.14
X4.07Y-4.24
X4.07Y-4.34
X4.07Y-4.44
X4.07Y-4.54
X4.07Y-4.64
X4.07Y-4.74
X4.07Y-4.84
X4.07Y-4.94
X4.07Y-5.04
X4.17Y-1.74
X4.17Y-1.84
X4.17Y-1.94
X4.17Y-2.04
X4.17Y-2.14
X4.17Y-2.24
X4.17Y-2.34
X4.17Y-2.44
X4.17Y-2.54
X4.17Y-2.64
X4.17Y-2.74
X4.17Y-2.84
X4.17Y-2.94
X4.17Y-3.04
X4.17Y-3.14
X4.17Y-3.24
X4.17Y-3.34
X4.17Y-3.44
X4.17Y-3.54
X4.17Y-3.64
X4.17Y-3.74
X4.17Y-3.84
X4.17Y-3.94
X4.17Y-4.04
X4.17Y-4.14
X4.17Y-4.24
X4.17Y-4.34
X4.17Y-4.44
X4.17Y-4.54
X4.17Y-4.64
X4.17Y-4.74
X4.17Y-4.84
X4.17Y-4.94
X4.17Y-5.04
X4.27Y-1.74
X4.27Y-1.84
X4.27Y-1.94
X4.27Y-2.04
X4.27Y-2.14
X4.27Y-2.24
X4.27Y-2.34
X4.27Y-2.44
X4.27Y-2.54
X4.27Y-2.64
X4.27Y-2.74
X4.27Y-2.84
X4.27Y-2.94
X4.27Y-3.04
X4.27Y-3.14
X4.27Y-3.24
X4.27Y-3.34
X4.27Y-3.44
X4.27Y-3.54
X4.27Y-3.64
X4.27Y-3.74
X4.27Y-3.84
X4.27Y-3.94
X4.27Y-4.04
X4.27Y-4.14
X4.27Y-4.24
X4.27Y-4.34
X4.27Y-4.44
X4.27Y-4.54
X4.27Y-4.64
X4.27Y-4.74
X4.27Y-4.84
X4.27Y-4.94
X4.27Y-5.04
X4.37Y-1.74
X4.37Y-1.84
X4.37Y-1.94
X4.37Y-2.04
X4.37Y-2.14
X4.37Y-2.24
X4.37Y-2.34
X4.37Y-2.44
X4.37Y-2.54
X4.37Y-2.64
X4.37Y-2.74
X4.37Y-2.84
X4.37Y-2.94
X4.37Y-3.04
X4.37Y-3.14
X4.37Y-3.24
X4.37Y-3.34
X4.37Y-3.44
X4.37Y-3.54
X4.37Y-3.64
X4.37Y-3.74
X4.37Y-3.84
X4.37Y-3.94
X4.37Y-4.04
X4.37Y-4.14
X4.37Y-4.24
X4.37Y-4.34
X4.37Y-4.44
X4.37Y-4.54
X4.37Y-4.64
X4.37Y-4.74
X4.37Y-4.84
X4.37Y-4.94
X4.37Y-5.04
X4.47Y-1.74
X4.47Y-1.84
X4.47Y-1.94
X4.47Y-2.04
X4.47Y-2.14
X4.47Y-2.24
X4.47Y-2.34
X4.47Y-2.44
X4.47Y-2.54
X4.47Y-2.64
X4.47Y-2.74
X4.47Y-2.84
X4.47Y-2.94
X4.47Y-3.04
X4.47Y-3.14
X4.47Y-3.24
X4.47Y-3.34
X4.47Y-3.44
X4.47Y-3.54
X4.47Y-3.64
X4.47Y-3.74
X4.47Y-3.84
X4.47Y-3.94
X4.47Y-4.04
X4.47Y-4.14
X4.47Y-4.24
X4.47Y-4.34
X4.47Y-4.44
X4.47Y-4.54
X4.47Y-4.64
X4.47Y-4.74
X4.47Y-4.84
X4.47Y-4.94
X4.47Y-5.04
X4.57Y-1.74
X4.57Y-1.84
X4.57Y-1.94
X4.57Y-2.04
X4.57Y-2.14
X4.57Y-2.24
X4.57Y-2.34
X4.57Y-2.44
X4.57Y-2.54
X4.57Y-2.64
X4.57Y-2.74
X4.57Y-2.84
X4.57Y-2.94
X4.57Y-3.04
X4.57Y-3.14
X4.57Y-3.24
X4.57Y-3.34
X4.57Y-3.44
X4.57Y-3.54
X4.57Y-3.64
X4.57Y-3.74
X4.57Y-3.84
X4.57Y-3.94
X4.57Y-4.04
X4.57Y-4.14
X4.57Y-4.24
X4.57Y-4.34
X4.57Y-4.44
X4.57Y-4.54
X4.57Y-4.64
X4.57Y-4.74
X4.57Y-4.84
X4.57Y-4.94
X4.57Y-5.04
X4.67Y-1.74
X4.67Y-1.84
X4.67Y-1.94
X4.67Y-2.04
X4.67Y-2.14
X4.67Y-2.24
X4.67Y-2.34
X4.67Y-2.44
X4.67Y-2.54
X4.67Y-2.64
X4.67Y-2.74
X4.67Y-2.84
X4.67Y-2.94
X4.67Y-3.04
X4.67Y-3.14
X4.67Y-3.24
X4.67Y-3.34
X4.67Y-3.44
X4.67Y-3.54
X4.67Y-3.64
X4.67Y-3.74
X4.67Y-3.84
X4.67Y-3.94
X4.67Y-4.04
X4.67Y-4.14
X4.67Y-4.24
X4.67Y-4.34
X4.67Y-4.44
X4.67Y-4.54
X4.67Y-4.64
X4.67Y-4.74
X4.67Y-4.84
X4.67Y-4.94
X4.67Y-5.04
X4.77Y-1.74
X4.77Y-1.84
X4.77Y-1.94
X4.77Y-2.04
X4.77Y-2.14
X4.77Y-2.24
X4.77Y-2.34
X4.77Y-2.44
X4.77Y-2.54
X4.77Y-2.64
X4.77Y-2.74
X4.77Y-2.84
X4.77Y-2.94
X4.77Y-3.04
X4.77Y-3.14
X4.77Y-3.24
X4.77Y-3.34
X4.77Y-3.44
X4.77Y-3.54
X4.77Y-3.64
X4.77Y-3.74
X4.77Y-3.84
X4.77Y-3.94
X4.77Y-4.04
X4.77Y-4.14
X4.77Y-4.24
X4.77Y-4.34
X4.77Y-4.44
X4.77Y-4.54
X4.77Y-4.64
X4.77Y-4.74
X4.77Y-4.84
X4.77Y-4.94
X4.77Y-5.04
X4.87Y-1.74
X4.87Y-1.84
X4.87Y-1.94
X4.87Y-2.04
X4.87Y-2.14
X4.87Y-2.24
X4.87Y-2.34
X4.87Y-2.44
X4.87Y-2.54
X4.87Y-2.64
X4.87Y-2.74
X4.87Y-2.84
X4.87Y-2.94
X4.87Y-3.04
X4.87Y-3.14
X4.87Y-3.24
X4.87Y-3.34
X4.87Y-3.44
X4.87Y-3.54
X4.87Y-3.64
X4.87Y-3.74
X4.87Y-3.84
X4.87Y-3.94
X4.87Y-4.04
X4.87Y-4.14
X4.87Y-4.24
X4.87Y-4.34
X4.87Y-4.44
X4.87Y-4.54
X4.87Y-4.64
X4.87Y-4.74
X4.87Y-4.84
X4.87Y-4.94
X4.87Y-5.04
X4.97Y-1.74
X4.97Y-1.84
X4.97Y-1.94
X4.97Y-2.04
X4.97Y-2.14
X4.97Y-2.24
X4.97Y-2.34
X4.97Y-2.44
X4.97Y-2.54
X4.97Y-2.64
X4.97Y-2.74
X4.97Y-2.84
X4.97Y-2.94
X4.97Y-3.04
X4.97Y-3.14
X4.97Y-3.24
X4.97Y-3.34
X4.97Y-3.44
X4.97Y-3.54
X4.97Y-3.64
X4.97Y-3.74
X4.97Y-3.84
X4.97Y-3.94
X4.97Y-4.04
X4.97Y-4.14
X4.97Y-4.24
X4.97Y-4.34
X4.97Y-4.44
X4.97Y-4.54
X4.97Y-4.64
X4.97Y-4.74
X4.97Y-4.84
X4.97Y-4.94
X4.97Y-5.04
X5.07Y-1.74
X5.07Y-1.84
X5.07Y-1.94
X5.07Y-2.04
X5.07Y-2.14
X5.07Y-2.24
X5.07Y-2.34
X5.07Y-2.44
X5.07Y-2.54
X5.07Y-2.64
X5.07Y-2.74
X5.07Y-2.84
X5.07Y-2.94
X5.07Y-3.04
X5.07Y-3.14
X5.07Y-3.24
X5.07Y-3.34
X5.07Y-3.44
X5.07Y-3.54
X5.07Y-3.64
X5.07Y-3.74
X5.07Y-3.84
X5.07Y-3.94
X5.07Y-4.04
X5.07Y-4.14
X5.07Y-4.24
X5.07Y-4.34
X5.07Y-4.44
X5.07Y-4.54
X5.07Y-4.64
X5.07Y-4.74
X5.07Y-4.84
X5.07Y-4.94
X5.07Y-5.04
X5.17Y-1.74
X5.17Y-1.84
X5.17Y-1.94
X5.17Y-2.04
X5.17Y-2.14
X5.17Y-2.24
X5.17Y-2.34
X5.17Y-2.44
X5.17Y-2.54
X5.17Y-2.64
X5.17Y-2.74
X5.17Y-2.84
X5.17Y-2.94
X5.17Y-3.04
X5.17Y-3.14
X5.17Y-3.24
X5.17Y-3.34
X5.17Y-3.44
X5.17Y-3.54
X5.17Y-3.64
X5.17Y-3.74
X5.17Y-3.84
X5.17Y-3.94
X5.17Y-4.04
X5.17Y-4.14
X5.17Y-4.24
X5.17Y-4.34
X5.17Y-4.44
X5.17Y-4.54
X5.17Y-4.64
X5.17Y-4.74
X5.17Y-4.84
X5.17Y-4.94
X5.17Y-5.04
X5.27Y-1.74
X5.27Y-1.84
X5.27Y-1.94
X5.27Y-2.04
X5.27Y-2.14
X5.27Y-2.24
X5.27Y-2.34
X5.27Y-2.44
X5.27Y-2.54
X5.27Y-2.64
X5.27Y-2.74
X5.27Y-2.84
X5.27Y-2.94
X5.27Y-3.04
X5.27Y-3.14
X5.27Y-3.24
X5.27Y-3.34
X5.27Y-3.44
X5.27Y-3.54
X5.27Y-3.64
X5.27Y-3.74
X5.27Y-3.84
X5.27Y-3.94
X5.27Y-4.04
X5.27Y-4.14
X5.27Y-4.24
X5.27Y-4.34
X5.27Y-4.44
X5.27Y-4.54
X5.27Y-4.64
X5.27Y-4.74
X5.27Y-4.84
X5.27Y-4.94
X5.27Y-5.04
X5.37Y-1.74
X5.37Y-1.84
X5.37Y-1.94
X5.37Y-2.04
X5.37Y-2.14
X5.37Y-2.24
X5.37Y-2.34
X5.37Y-2.44
X5.37Y-2.54
X5.37Y-2.64
X5.37Y-2.74
X5.37Y-2.84
X5.37Y-2.94
X5.37Y-3.04
X5.37Y-3.14
X5.37Y-3.24
X5.37Y-3.34
X5.37Y-3.44
X5.37Y-3.54
X5.37Y-3.64
X5.37Y-3.74
X5.37Y-3.84
X5.37Y-3.94
X5.37Y-4.04
X5.37Y-4.14
X5.37Y-4.24
X5.37Y-4.34
X5.37Y-4.44
X5.37Y-4.54
X5.37Y-4.64
X5.37Y-4.74
X5.37Y-4.84
X5.37Y-4.94
X5.37Y-5.04
X5.47Y-1.74
X5.47Y-1.84
X5.47Y-1.94
X5.47Y-2.04
X5.47Y-2.14
X5.47Y-2.24
X5.47Y-2.34
X5.47Y-2.44
X5.47Y-2.54
X5.47Y-2.64
X5.47Y-2.74
X5.47Y-2.84
X5.47Y-2.94
X5.47Y-3.04
X5.47Y-3.14
X5.47Y-3.24
X5.47Y-3.34
X5.47Y-3.44
X5.47Y-3.54
X5.47Y-3.64
X5.47Y-3.74
X5.47Y-3.84
X5.47Y-3.94
X5.47Y-4.04
X5.47Y-4.14
X5.47Y-4.24
X5.47Y-4.34
X5.47Y-4.44
X5.47Y-4.54
X5.47Y-4.64
X5.47Y-4.74
X5.47Y-4.84
X5.47Y-4.94
X5.47Y-5.04
X5.57Y-1.74
X5.57Y-1.84
X5.57Y-1.94
X5.57Y-2.04
X5.57Y-2.14
X5.57Y-2.24
X5.57Y-2.34
X5.57Y-2.44
X5.57Y-2.54
X5.57Y-2.64
X5.57Y-2.74
X5.57Y-2.84
X5.57Y-2.94
X5.57Y-3.04
X5.57Y-3.14
X5.57Y-3.24
X5.57Y-3.34
X5.57Y-3.44
X5.57Y-3.54
X5.57Y-3.64
X5.57Y-3.74
X5.57Y-3.84
X5.57Y-3.94
X5.57Y-4.04
X5.57Y-4.14
X5.57Y-4.24
X5.57Y-4.34
X5.57Y-4.44
X5.57Y-4.54
X5.57Y-4.64
X5.57Y-4.74
X5.57Y-4.84
X5.57Y-4.94
X5.57Y-5.04
X5.67Y-1.74
X5.67Y-1.84
X5.67Y-1.94
X5.67Y-2.04
X5.67Y-2.14
X5.67Y-2.24
X5.67Y-2.34
X5.67Y-2.44
X5.67Y-2.54
X5.67Y-2.64
X5.67Y-2.74
X5.67Y-2.84
X5.67Y-2.94
X5.67Y-3.04
X5.67Y-3.14
X5.67Y-3.24
X5.67Y-3.34
X5.67Y-3.44
X5.67Y-3.54
X5.67Y-3.64
X5.67Y-3.74
X5.67Y-3.84
X5.67Y-3.94
X5.67Y-4.04
X5.67Y-4.14
X5.67Y-4.24
X5.67Y-4.34
X5.67Y-4.44
X5.67Y-4.54
X5.67Y-4.64
X5.67Y-4.74
X5.67Y-4.84
X5.67Y-4.94
X5.67Y-5.04
X5.77Y-1.74
X5.77Y-1.84
X5.77Y-1.94
X5.77Y-2.04
X5.77Y-2.14
X5.77Y-2.24
X5.77Y-2.34
X5.77Y-2.44
X5.77Y-2.54
X5.77Y-2.64
X5.77Y-2.74
X5.77Y-2.84
X5.77Y-2.94
X5.77Y-3.04
X5.77Y-3.14
X5.77Y-3.24
X5.77Y-3.34
X5.77Y-3.44
X5.77Y-3.54
X5.77Y-3.64
X5.77Y-3.74
X5.77Y-3.84
X5.77Y-3.94
X5.77Y-4.04
X5.77Y-4.14
X5.77Y-4.24
X5.77Y-4.34
X5.77Y-4.44
X5.77Y-4.54
X5.77Y-4.64
X5.77Y-4.74
X5.77Y-4.84
X5.77Y-4.94
X5.77Y-5.04
X5.87Y-1.74
X5.87Y-1.84
X5.87Y-1.94
X5.87Y-2.04
X5.87Y-2.14
X5.87Y-2.24
X5.87Y-2.34
X5.87Y-2.44
X5.87Y-2.54
X5.87Y-2.64
X5.87Y-2.74
X5.87Y-2.84
X5.87Y-2.94
X5.87Y-3.04
X5.87Y-3.14
X5.87Y-3.24
X5.87Y-3.34
X5.87Y-3.44
X5.87Y-3.54
X5.87Y-3.64
X5.87Y-3.74
X5.87Y-3.84
X5.87Y-3.94
X5.87Y-4.04
X5.87Y-4.14
X5.87Y-4.24
X5.87Y-4.34
X5.87Y-4.44
X5.87Y-4.54
X5.87Y-4.64
X5.87Y-4.74
X5.87Y-4.84
X5.87Y-4.94
X5.87Y-5.04
X5.97Y-1.74
X5.97Y-1.84
X5.97Y-1.94
X5.97Y-2.04
X5.97Y-2.14
X5.97Y-2.24
X5.97Y-2.34
X5.97Y-2.44
X5.97Y-2.54
X5.97Y-2.64
X5.97Y-2.74
X5.97Y-2.84
X5.97Y-2.94
X5.97Y-3.04
X5.97Y-3.14
X5.97Y-3.24
X5.97Y-3.34
X5.97Y-3.44
X5.97Y-3.54
X5.97Y-3.64
X5.97Y-3.74
X5.97Y-3.84
X5.97Y-3.94
X5.97Y-4.04
X5.97Y-4.14
X5.97Y-4.24
X5.97Y-4.34
X5.97Y-4.44
X5.97Y-4.54
X5.97Y-4.64
X5.97Y-4.74
X5.97Y-4.84
X5.97Y-4.94
X5.97Y-5.04
X6.07Y-1.74
X6.07Y-1.84
X6.07Y-1.94
X6.07Y-2.04
X6.07Y-2.14
X6.07Y-2.24
X6.07Y-2.34
X6.07Y-2.44
X6.07Y-2.54
X6.07Y-2.64
X6.07Y-2.74
X6.07Y-2.84
X6.07Y-2.94
X6.07Y-3.04
X6.07Y-3.14
X6.07Y-3.24
X6.07Y-3.34
X6.07Y-3.44
X6.07Y-3.54
X6.07Y-3.64
X6.07Y-3.74
X6.07Y-3.84
X6.07Y-3.94
X6.07Y-4.04
X6.07Y-4.14
X6.07Y-4.24
X6.07Y-4.34
X6.07Y-4.44
X6.07Y-4.54
X6.07Y-4.64
X6.07Y-4.74
X6.07Y-4.84
X6.07Y-4.94
X6.07Y-5.04
X6.17Y-1.74
X6.17Y-1.84
X6.17Y-1.94
X6.17Y-2.04
X6.17Y-2.14
X6.17Y-2.24
X6.17Y-2.34
X6.17Y-2.44
X6.17Y-2.54
X6.17Y-2.64
X6.17Y-2.74
X6.17Y-2.84
X6.17Y-2.94
X6.17Y-3.04
X6.17Y-3.14
X6.17Y-3.24
X6.17Y-3.34
X6.17Y-3.44
X6.17Y-3.54
X6.17Y-3.64
X6.17Y-3.74
X6.17Y-3.84
X6.17Y-3.94
X6.17Y-4.04
X6.17Y-4.14
X6.17Y-4.24
X6.17Y-4.34
X6.17Y-4.44
X6.17Y-4.54
X6.17Y-4.64
X6.17Y-4.74
X6.17Y-4.84
X6.17Y-4.94
X6.17Y-5.04
X6.27Y-1.74
X6.27Y-1.84
X6.27Y-1.94
X6.27Y-2.04
X6.27Y-2.14
X6.27Y-2.24
X6.27Y-2.34
X6.27Y-2.44
X6.27Y-2.54
X6.27Y-2.64
X6.27Y-2.74
X6.27Y-2.84
X6.27Y-2.94
X6.27Y-3.04
X6.27Y-3.14
X6.27Y-3.24
X6.27Y-3.34
X6.27Y-3.44
X6.27Y-3.54
X6.27Y-3.64
X6.27Y-3.74
X6.27Y-3.84
X6.27Y-3.94
X6.27Y-4.04
X6.27Y-4.14
X6.27Y-4.24
X6.27Y-4.34
X6.27Y-4.44
X6.27Y-4.54
X6.27Y-4.64
X6.27Y-4.74
X6.27Y-4.84
X6.27Y-4.94
X6.27Y-5.04
X6.37Y-1.74
X6.37Y-1.84
X6.37Y-1.94
X6.37Y-2.04
X6.37Y-2.14
X6.37Y-2.24
X6.37Y-2.34
X6.37Y-2.44
X6.37Y-2.54
X6.37Y-2.64
X6.37Y-2.74
X6.37Y-2.84
X6.37Y-2.94
X6.37Y-3.04
X6.37Y-3.14
X6.37Y-3.24
X6.37Y-3.34
X6.37Y-3.44
X6.37Y-3.54
X6.37Y-3.64
X6.37Y-3.74
X6.37Y-3.84
X6.37Y-3.94
X6.37Y-4.04
X6.37Y-4.14
X6.37Y-4.24
X6.37Y-4.34
X6.37Y-4.44
X6.37Y-4.54
X6.37Y-4.64
X6.37Y-4.74
X6.37Y-4.84
X6.37Y-4.94
X6.37Y-5.04
X6.47Y-1.74
X6.47Y-1.84
X6.47Y-1.94
X6.47Y-2.04
X6.47Y-2.14
X6.47Y-2.24
X6.47Y-2.34
X6.47Y-2.44
X6.47Y-2.54
X6.47Y-2.64
X6.47Y-2.74
X6.47Y-2.84
X6.47Y-2.94
X6.47Y-3.04
X6.47Y-3.14
X6.47Y-3.24
X6.47Y-3.34
X6.47Y-3.44
X6.47Y-3.54
X6.47Y-3.64
X6.47Y-3.74
X6.47Y-3.84
X6.47Y-3.94
X6.47Y-4.04
X6.47Y-4.14
X6.47Y-4.24
X6.47Y-4.34
X6.47Y-4.44
X6.47Y-4.54
X6.47Y-4.64
X6.47Y-4.74
X6.47Y-4.84
X6.47Y-4.94
X6.47Y-5.04
X6.57Y-1.74
X6.57Y-1.84
X6.57Y-1.94
X6.57Y-2.04
X6.57Y-2.14
X6.57Y-2.24
X6.57Y-2.34
X6.57Y-2.44
X6.57Y-2.54
X6.57Y-2.64
X6.57Y-2.74
X6.57Y-2.84
X6.57Y-2.94
X6.57Y-3.04
X6.57Y-3.14
X6.57Y-3.24
X6.57Y-3.34
X6.57Y-3.44
X6.57Y-3.54
X6.57Y-3.64
X6.57Y-3.74
X6.57Y-3.84
X6.57Y-3.94
X6.57Y-4.04
X6.57Y-4.14
X6.57Y-4.24
X6.57Y-4.34
X6.57Y-4.44
X6.57Y-4.54
X6.57Y-4.64
X6.57Y-4.74
X6.57Y-4.84
X6.57Y-4.94
X6.57Y-5.04
X6.67Y-1.74
X6.67Y-1.84
X6.67Y-1.94
X6.67Y-2.04
X6.67Y-2.14
X6.67Y-2.24
X6.67Y-2.34
X6.67Y-2.44
X6.67Y-2.54
X6.67Y-2.64
X6.67Y-2.74
X6.67Y-2.84
X6.67Y-2.94
X6.67Y-3.04
X6.67Y-3.14
X6.67Y-3.24
X6.67Y-3.34
X6.67Y-3.44
X6.67Y-3.54
X6.67Y-3.64
X6.67Y-3.74
X6.67Y-3.84
X6.67Y-3.94
X6.67Y-4.04
X6.67Y-4.14
X6.67Y-4.24
X6.67Y-4.34
X6.67Y-4.44
X6.67Y-4.54
X6.67Y-4.64
X6.67Y-4.74
X6.67Y-4.84
X6.67Y-4.94
X6.67Y-5.04
X6.77Y-1.74
X6.77Y-1.84
X6.77Y-1.94
X6.77Y-2.04
X6.77Y-2.14
X6.77Y-2.24
X6.77Y-2.34
X6.77Y-2.44
X6.77Y-2.54
X6.77Y-2.64
X6.77Y-2.74
X6.77Y-2.84
X6.77Y-2.94
X6.77Y-3.04
X6.77Y-3.14
X6.77Y-3.24
X6.77Y-3.34
X6.77Y-3.44
X6.77Y-3.54
X6.77Y-3.64
X6.77Y-3.74
X6.77Y-3.84
X6.77Y-3.94
X6.77Y-4.04
X6.77Y-4.14
X6.77Y-4.24
X6.77Y-4.34
X6.77Y-4.44
X6.77Y-4.54
X6.77Y-4.64
X6.77Y-4.74
X6.77Y-4.84
X6.77Y-4.94
X6.77Y-5.04
X6.87Y-1.74
X6.87Y-1.84
X6.87Y-1.94
X6.87Y-2.04
X6.87Y-2.14
X6.87Y-2.24
X6.87Y-2.34
X6.87Y-2.44
X6.87Y-2.54
X6.87Y-2.64
X6.87Y-2.74
X6.87Y-2.84
X6.87Y-2.94
X6.87Y-3.04
X6.87Y-3.14
X6.87Y-3.24
X6.87Y-3.34
X6.87Y-3.44
X6.87Y-3.54
X6.87Y-3.64
X6.87Y-3.74
X6.87Y-3.84
X6.87Y-3.94
X6.87Y-4.04
X6.87Y-4.14
X6.87Y-4.24
X6.87Y-4.34
X6.87Y-4.44
X6.87Y-4.54
X6.87Y-4.64
X6.87Y-4.74
X6.87Y-4.84
X6.87Y-4.94
X6.87Y-5.04
X6.97Y-1.74
X6.97Y-1.84
X6.97Y-1.94
X6.97Y-2.04
X6.97Y-2.14
X6.97Y-2.24
X6.97Y-2.34
X6.97Y-2.44
X6.97Y-2.54
X6.97Y-2.64
X6.97Y-2.74
X6.97Y-2.84
X6.97Y-2.94
X6.97Y-3.04
X6.97Y-3.14
X6.97Y-3.24
X6.97Y-3.34
X6.97Y-3.44
X6.97Y-3.54
X6.97Y-3.64
X6.97Y-3.74
X6.97Y-3.84
X6.97Y-3.94
X6.97Y-4.04
X6.97Y-4.14
X6.97Y-4.24
X6.97Y-4.34
X6.97Y-4.44
X6.97Y-4.54
X6.97Y-4.64
X6.97Y-4.74
X6.97Y-4.84
X6.97Y-4.94
X6.97Y-5.04
X7.03Y-5.14
X7.07Y-1.74
X7.07Y-1.84
X7.07Y-1.94
X7.07Y-2.04
X7.07Y-2.14
X7.07Y-2.24
X7.07Y-2.34
X7.07Y-2.44
X7.07Y-2.54
X7.07Y-2.64
X7.07Y-2.74
X7.07Y-2.84
X7.07Y-2.94
X7.07Y-3.04
X7.07Y-3.14
X7.07Y-3.24
X7.07Y-3.34
X7.07Y-3.44
X7.07Y-3.54
X7.07Y-3.64
X7.07Y-3.74
X7.07Y-3.84
X7.07Y-3.94
X7.07Y-4.04
X7.07Y-4.14
X7.07Y-4.24
X7.07Y-4.34
X7.07Y-4.44
X7.07Y-4.54
X7.07Y-4.64
X7.07Y-4.74
X7.07Y-4.84
X7.07Y-4.94
X7.07Y-5.04
X7.13Y-5.14
X7.17Y-1.74
X7.17Y-1.84
X7.17Y-1.94
X7.17Y-2.04
X7.17Y-2.14
X7.17Y-2.24
X7.17Y-2.34
X7.17Y-2.44
X7.17Y-2.54
X7.17Y-2.64
X7.17Y-2.74
X7.17Y-2.84
X7.17Y-2.94
X7.17Y-3.04
X7.17Y-3.14
X7.17Y-3.24
X7.17Y-3.34
X7.17Y-3.44
X7.17Y-3.54
X7.17Y-3.64
X7.17Y-3.74
X7.17Y-3.84
X7.17Y-3.94
X7.17Y-4.04
X7.17Y-4.14
X7.17Y-4.24
X7.17Y-4.34
X7.17Y-4.44
X7.17Y-4.54
X7.17Y-4.64
X7.17Y-4.74
X7.17Y-4.84
X7.17Y-4.94
X7.17Y-5.04
X7.23Y-5.14
X7.27Y-1.74
X7.27Y-1.84
X7.27Y-1.94
X7.27Y-2.04
X7.27Y-2.14
X7.27Y-2.24
X7.27Y-2.34
X7.27Y-2.44
X7.27Y-2.54
X7.27Y-2.64
X7.27Y-2.74
X7.27Y-2.84
X7.27Y-2.94
X7.27Y-3.04
X7.27Y-3.14
X7.27Y-3.24
X7.27Y-3.34
X7.27Y-3.44
X7.27Y-3.54
X7.27Y-3.64
X7.27Y-3.74
X7.27Y-3.84
X7.27Y-3.94
X7.27Y-4.04
X7.27Y-4.14
X7.27Y-4.24
X7.27Y-4.34
X7.27Y-4.44
X7.27Y-4.54
X7.27Y-4.64
X7.27Y-4.74
X7.27Y-4.84
X7.27Y-4.94
X7.27Y-5.04
X7.33Y-5.14
X7.37Y-1.74
X7.37Y-1.84
X7.37Y-1.94
X7.37Y-2.04
X7.37Y-2.14
X7.37Y-2.24
X7.37Y-2.34
X7.37Y-2.44
X7.37Y-2.54
X7.37Y-2.64
X7.37Y-2.74
X7.37Y-2.84
X7.37Y-2.94
X7.37Y-3.04
X7.37Y-3.14
X7.37Y-3.24
X7.37Y-3.34
X7.37Y-3.44
X7.37Y-3.54
X7.37Y-3.64
X7.37Y-3.74
X7.37Y-3.84
X7.37Y-3.94
X7.37Y-4.04
X7.37Y-4.14
X7.37Y-4.24
X7.37Y-4.34
X7.37Y-4.44
X7.37Y-4.54
X7.37Y-4.64
X7.37Y-4.74
X7.37Y-4.84
X7.37Y-4.94
X7.37Y-5.04
X7.47Y-1.74
X7.47Y-1.84
X7.47Y-1.94
X7.47Y-2.04
X7.47Y-2.14
X7.47Y-2.24
X7.47Y-2.34
X7.47Y-2.44
X7.47Y-2.54
X7.47Y-2.64
X7.47Y-2.74
X7.47Y-2.84
X7.47Y-2.94
X7.47Y-3.04
X7.47Y-3.14
X7.47Y-3.24
X7.47Y-3.34
X7.47Y-3.44
X7.47Y-3.54
X7.47Y-3.64
X7.47Y-3.74
X7.47Y-3.84
X7.47Y-3.94
X7.47Y-4.04
X7.47Y-4.14
X7.47Y-4.24
X7.47Y-4.34
X7.47Y-4.44
X7.47Y-4.54
X7.47Y-4.64
X7.47Y-4.74
X7.47Y-4.84
X7.47Y-4.94
X7.47Y-5.04
X7.47Y-5.14
X7.47Y-5.24
X7.57Y-1.74
X7.57Y-1.84
X7.57Y-1.94
X7.57Y-2.04
X7.57Y-2.14
X7.57Y-2.24
X7.57Y-2.34
X7.57Y-2.44
X7.57Y-2.54
X7.57Y-2.64
X7.57Y-2.74
X7.57Y-2.84
X7.57Y-2.94
X7.57Y-3.04
X7.57Y-3.14
X7.57Y-3.24
X7.57Y-3.34
X7.57Y-3.44
X7.57Y-3.54
X7.57Y-3.64
X7.57Y-3.74
X7.57Y-3.84
X7.57Y-3.94
X7.57Y-4.04
X7.57Y-4.14
X7.57Y-4.24
X7.57Y-4.34
X7.57Y-4.44
X7.57Y-4.54
X7.57Y-4.64
X7.57Y-4.74
X7.57Y-4.84
X7.57Y-4.94
X7.57Y-5.04
X7.57Y-5.14
X7.57Y-5.24
X7.67Y-1.74
X7.67Y-1.84
X7.67Y-1.94
X7.67Y-2.04
X7.67Y-2.14
X7.67Y-2.24
X7.67Y-2.34
X7.67Y-2.44
X7.67Y-2.54
X7.67Y-2.64
X7.67Y-2.74
X7.67Y-2.84
X7.67Y-2.94
X7.67Y-3.04
X7.67Y-3.14
X7.67Y-3.24
X7.67Y-3.34
X7.67Y-3.44
X7.67Y-3.54
X7.67Y-3.64
X7.67Y-3.74
X7.67Y-3.84
X7.67Y-3.94
X7.67Y-4.04
X7.67Y-4.14
X7.67Y-4.24
X7.67Y-4.34
X7.67Y-4.44
X7.67Y-4.54
X7.67Y-4.64
X7.67Y-4.74
X7.67Y-4.84
X7.67Y-4.94
X7.67Y-5.04
X7.67Y-5.14
X7.67Y-5.24
M30
