%TF.GenerationSoftware,KiCad,Pcbnew,9.0.1+1*%
%TF.CreationDate,2025-06-01T22:03:51+02:00*%
%TF.ProjectId,isa_8bit_protoboard,6973615f-3862-4697-945f-70726f746f62,rev?*%
%TF.SameCoordinates,Original*%
%TF.FileFunction,Legend,Bot*%
%TF.FilePolarity,Positive*%
%FSLAX46Y46*%
G04 Gerber Fmt 4.6, Leading zero omitted, Abs format (unit mm)*
G04 Created by KiCad (PCBNEW 9.0.1+1) date 2025-06-01 22:03:51*
%MOMM*%
%LPD*%
G01*
G04 APERTURE LIST*
%ADD10C,0.120000*%
%ADD11C,0.150000*%
%ADD12C,0.110000*%
%ADD13C,0.300000*%
G04 APERTURE END LIST*
D10*
X176276000Y-129159000D02*
X97282000Y-129159000D01*
D11*
G36*
X187960000Y-133645000D02*
G01*
X187960000Y-132420854D01*
X187457226Y-132420854D01*
X187457226Y-132595732D01*
X187290243Y-132595732D01*
X187290243Y-132420854D01*
X186954452Y-132420854D01*
X186954452Y-132595732D01*
X186787469Y-132595732D01*
X186787469Y-133645000D01*
X187121434Y-133645000D01*
X187121434Y-132770610D01*
X187290243Y-132770610D01*
X187290243Y-133470122D01*
X187457226Y-133470122D01*
X187457226Y-132770610D01*
X187624208Y-132770610D01*
X187624208Y-133645000D01*
X187960000Y-133645000D01*
G37*
G36*
X186620767Y-133470122D02*
G01*
X186620767Y-132945488D01*
X186453784Y-132945488D01*
X186453784Y-132770610D01*
X185951010Y-132770610D01*
X185951010Y-132595732D01*
X186453784Y-132595732D01*
X186453784Y-132420854D01*
X185782202Y-132420854D01*
X185782202Y-132595732D01*
X185615219Y-132595732D01*
X185615219Y-133470122D01*
X185448237Y-133470122D01*
X185448237Y-133645000D01*
X185782202Y-133645000D01*
X185782202Y-133470122D01*
X185951010Y-133470122D01*
X185951010Y-132945488D01*
X186284976Y-132945488D01*
X186284976Y-133470122D01*
X185951010Y-133470122D01*
X185951010Y-133645000D01*
X186453784Y-133645000D01*
X186453784Y-133470122D01*
X186620767Y-133470122D01*
G37*
G36*
X185281535Y-132595732D02*
G01*
X185281535Y-132420854D01*
X184945744Y-132420854D01*
X184945744Y-132595732D01*
X184778761Y-132595732D01*
X184778761Y-133645000D01*
X185114552Y-133645000D01*
X185114552Y-132595732D01*
X185281535Y-132595732D01*
G37*
G36*
X184778761Y-132595732D02*
G01*
X184778761Y-132420854D01*
X184275987Y-132420854D01*
X184275987Y-132595732D01*
X184109004Y-132595732D01*
X184109004Y-133645000D01*
X184442970Y-133645000D01*
X184442970Y-132595732D01*
X184778761Y-132595732D01*
G37*
G36*
X183606511Y-133645000D02*
G01*
X183606511Y-133470122D01*
X183439528Y-133470122D01*
X183439528Y-132595732D01*
X183606511Y-132595732D01*
X183606511Y-132420854D01*
X183103737Y-132420854D01*
X183103737Y-133470122D01*
X182936755Y-133470122D01*
X182936755Y-133645000D01*
X183606511Y-133645000D01*
G37*
G36*
X183439528Y-131896221D02*
G01*
X183103737Y-131896221D01*
X183103737Y-132245976D01*
X183439528Y-132245976D01*
X183439528Y-131896221D01*
G37*
G36*
X182436087Y-132595732D02*
G01*
X182603070Y-132595732D01*
X182603070Y-133470122D01*
X182436087Y-133470122D01*
X182436087Y-133645000D01*
X181597522Y-133645000D01*
X181597522Y-133470122D01*
X181430539Y-133470122D01*
X181430539Y-133295244D01*
X181764505Y-133295244D01*
X181764505Y-133470122D01*
X182267279Y-133470122D01*
X182267279Y-132945488D01*
X181430539Y-132945488D01*
X181430539Y-132770610D01*
X181764505Y-132770610D01*
X182267279Y-132770610D01*
X182267279Y-132595732D01*
X181764505Y-132595732D01*
X181764505Y-132770610D01*
X181430539Y-132770610D01*
X181430539Y-132595732D01*
X181597522Y-132595732D01*
X181597522Y-132420854D01*
X182436087Y-132420854D01*
X182436087Y-132595732D01*
G37*
G36*
X181263838Y-133645000D02*
G01*
X181263838Y-133470122D01*
X181096855Y-133470122D01*
X181096855Y-132071099D01*
X181263838Y-132071099D01*
X181263838Y-131896221D01*
X180761064Y-131896221D01*
X180761064Y-132770610D01*
X180594081Y-132770610D01*
X180594081Y-132595732D01*
X180425273Y-132595732D01*
X180425273Y-132420854D01*
X180091307Y-132420854D01*
X180091307Y-132595732D01*
X180258290Y-132595732D01*
X180258290Y-132770610D01*
X180425273Y-132770610D01*
X180425273Y-133120366D01*
X180258290Y-133120366D01*
X180258290Y-133295244D01*
X180091307Y-133295244D01*
X180091307Y-133645000D01*
X180425273Y-133645000D01*
X180425273Y-133295244D01*
X180594081Y-133295244D01*
X180594081Y-133120366D01*
X180761064Y-133120366D01*
X180761064Y-133645000D01*
X181263838Y-133645000D01*
G37*
G36*
X179757622Y-132071099D02*
G01*
X179924605Y-132071099D01*
X179924605Y-132595732D01*
X179757622Y-132595732D01*
X179757622Y-132770610D01*
X179924605Y-132770610D01*
X179924605Y-133470122D01*
X179757622Y-133470122D01*
X179757622Y-133645000D01*
X178919057Y-133645000D01*
X178919057Y-133470122D01*
X179086040Y-133470122D01*
X179588814Y-133470122D01*
X179588814Y-132770610D01*
X179086040Y-132770610D01*
X179086040Y-133470122D01*
X178919057Y-133470122D01*
X178752075Y-133470122D01*
X178752075Y-132770610D01*
X178919057Y-132770610D01*
X178919057Y-132595732D01*
X179086040Y-132595732D01*
X179588814Y-132595732D01*
X179588814Y-132071099D01*
X179086040Y-132071099D01*
X179086040Y-132595732D01*
X178919057Y-132595732D01*
X178752075Y-132595732D01*
X178752075Y-132071099D01*
X178919057Y-132071099D01*
X178919057Y-131896221D01*
X179757622Y-131896221D01*
X179757622Y-132071099D01*
G37*
G36*
X178249582Y-132071099D02*
G01*
X178418390Y-132071099D01*
X178418390Y-132245976D01*
X178585373Y-132245976D01*
X178585373Y-133470122D01*
X178418390Y-133470122D01*
X178418390Y-133645000D01*
X177579825Y-133645000D01*
X177579825Y-133470122D01*
X177746808Y-133470122D01*
X178249582Y-133470122D01*
X178249582Y-132770610D01*
X177746808Y-132770610D01*
X177746808Y-133470122D01*
X177579825Y-133470122D01*
X177412842Y-133470122D01*
X177412842Y-132770610D01*
X177579825Y-132770610D01*
X177579825Y-132595732D01*
X178249582Y-132595732D01*
X178249582Y-132245976D01*
X178082599Y-132245976D01*
X178082599Y-132071099D01*
X177746808Y-132071099D01*
X177746808Y-131896221D01*
X178249582Y-131896221D01*
X178249582Y-132071099D01*
G37*
D10*
X188468000Y-129159000D02*
X176276000Y-129159000D01*
D12*
X187805613Y-129409939D02*
X187805613Y-129981368D01*
X188110375Y-129695653D02*
X187500851Y-129695653D01*
X187310375Y-130695653D02*
X187310375Y-130338510D01*
X187310375Y-130338510D02*
X187691327Y-130302796D01*
X187691327Y-130302796D02*
X187653232Y-130338510D01*
X187653232Y-130338510D02*
X187615137Y-130409939D01*
X187615137Y-130409939D02*
X187615137Y-130588510D01*
X187615137Y-130588510D02*
X187653232Y-130659939D01*
X187653232Y-130659939D02*
X187691327Y-130695653D01*
X187691327Y-130695653D02*
X187767518Y-130731367D01*
X187767518Y-130731367D02*
X187957994Y-130731367D01*
X187957994Y-130731367D02*
X188034184Y-130695653D01*
X188034184Y-130695653D02*
X188072280Y-130659939D01*
X188072280Y-130659939D02*
X188110375Y-130588510D01*
X188110375Y-130588510D02*
X188110375Y-130409939D01*
X188110375Y-130409939D02*
X188072280Y-130338510D01*
X188072280Y-130338510D02*
X188034184Y-130302796D01*
X187310375Y-130945653D02*
X188110375Y-131195653D01*
X188110375Y-131195653D02*
X187310375Y-131445653D01*
D13*
X195834000Y-42926000D02*
X196088000Y-43180000D01*
X196088000Y-133604000D02*
X196088000Y-43180000D01*
D10*
X176403000Y-129159000D02*
X176403000Y-129794000D01*
X176403000Y-131318000D02*
X176403000Y-129794000D01*
X182372000Y-131318000D02*
X182372000Y-129794000D01*
X182372000Y-129794000D02*
X182372000Y-129159000D01*
X188468000Y-133985000D02*
X188468000Y-129794000D01*
D13*
X180721000Y-42926000D02*
X195834000Y-42926000D01*
D10*
X188468000Y-129794000D02*
X188468000Y-129159000D01*
X160274000Y-132080000D02*
X160274000Y-131699000D01*
D11*
X160651819Y-132788207D02*
X160651819Y-132331064D01*
X160651819Y-132559636D02*
X159651819Y-132559636D01*
X159651819Y-132559636D02*
X159794676Y-132483445D01*
X159794676Y-132483445D02*
X159889914Y-132407255D01*
X159889914Y-132407255D02*
X159937533Y-132331064D01*
X159747057Y-133092969D02*
X159699438Y-133131065D01*
X159699438Y-133131065D02*
X159651819Y-133207255D01*
X159651819Y-133207255D02*
X159651819Y-133397731D01*
X159651819Y-133397731D02*
X159699438Y-133473922D01*
X159699438Y-133473922D02*
X159747057Y-133512017D01*
X159747057Y-133512017D02*
X159842295Y-133550112D01*
X159842295Y-133550112D02*
X159937533Y-133550112D01*
X159937533Y-133550112D02*
X160080390Y-133512017D01*
X160080390Y-133512017D02*
X160651819Y-133054874D01*
X160651819Y-133054874D02*
X160651819Y-133550112D01*
X159651819Y-133778684D02*
X160651819Y-134045351D01*
X160651819Y-134045351D02*
X159651819Y-134312017D01*
X168271819Y-131746064D02*
X167271819Y-131746064D01*
X168271819Y-132636541D02*
X167795628Y-132353207D01*
X168271819Y-132150826D02*
X167271819Y-132150826D01*
X167271819Y-132150826D02*
X167271819Y-132474636D01*
X167271819Y-132474636D02*
X167319438Y-132555588D01*
X167319438Y-132555588D02*
X167367057Y-132596065D01*
X167367057Y-132596065D02*
X167462295Y-132636541D01*
X167462295Y-132636541D02*
X167605152Y-132636541D01*
X167605152Y-132636541D02*
X167700390Y-132596065D01*
X167700390Y-132596065D02*
X167748009Y-132555588D01*
X167748009Y-132555588D02*
X167795628Y-132474636D01*
X167795628Y-132474636D02*
X167795628Y-132150826D01*
X168367057Y-133567493D02*
X168319438Y-133486541D01*
X168319438Y-133486541D02*
X168224200Y-133405588D01*
X168224200Y-133405588D02*
X168081342Y-133284160D01*
X168081342Y-133284160D02*
X168033723Y-133203207D01*
X168033723Y-133203207D02*
X168033723Y-133122255D01*
X168271819Y-133162731D02*
X168224200Y-133081779D01*
X168224200Y-133081779D02*
X168128961Y-133000826D01*
X168128961Y-133000826D02*
X167938485Y-132960350D01*
X167938485Y-132960350D02*
X167605152Y-132960350D01*
X167605152Y-132960350D02*
X167414676Y-133000826D01*
X167414676Y-133000826D02*
X167319438Y-133081779D01*
X167319438Y-133081779D02*
X167271819Y-133162731D01*
X167271819Y-133162731D02*
X167271819Y-133324636D01*
X167271819Y-133324636D02*
X167319438Y-133405588D01*
X167319438Y-133405588D02*
X167414676Y-133486541D01*
X167414676Y-133486541D02*
X167605152Y-133527017D01*
X167605152Y-133527017D02*
X167938485Y-133527017D01*
X167938485Y-133527017D02*
X168128961Y-133486541D01*
X168128961Y-133486541D02*
X168224200Y-133405588D01*
X168224200Y-133405588D02*
X168271819Y-133324636D01*
X168271819Y-133324636D02*
X168271819Y-133162731D01*
X167367057Y-133850826D02*
X167319438Y-133891302D01*
X167319438Y-133891302D02*
X167271819Y-133972255D01*
X167271819Y-133972255D02*
X167271819Y-134174636D01*
X167271819Y-134174636D02*
X167319438Y-134255588D01*
X167319438Y-134255588D02*
X167367057Y-134296064D01*
X167367057Y-134296064D02*
X167462295Y-134336541D01*
X167462295Y-134336541D02*
X167557533Y-134336541D01*
X167557533Y-134336541D02*
X167700390Y-134296064D01*
X167700390Y-134296064D02*
X168271819Y-133810350D01*
X168271819Y-133810350D02*
X168271819Y-134336541D01*
X117471819Y-131673230D02*
X116471819Y-131673230D01*
X117471819Y-132563707D02*
X116995628Y-132280373D01*
X117471819Y-132077992D02*
X116471819Y-132077992D01*
X116471819Y-132077992D02*
X116471819Y-132401802D01*
X116471819Y-132401802D02*
X116519438Y-132482754D01*
X116519438Y-132482754D02*
X116567057Y-132523231D01*
X116567057Y-132523231D02*
X116662295Y-132563707D01*
X116662295Y-132563707D02*
X116805152Y-132563707D01*
X116805152Y-132563707D02*
X116900390Y-132523231D01*
X116900390Y-132523231D02*
X116948009Y-132482754D01*
X116948009Y-132482754D02*
X116995628Y-132401802D01*
X116995628Y-132401802D02*
X116995628Y-132077992D01*
X117567057Y-133494659D02*
X117519438Y-133413707D01*
X117519438Y-133413707D02*
X117424200Y-133332754D01*
X117424200Y-133332754D02*
X117281342Y-133211326D01*
X117281342Y-133211326D02*
X117233723Y-133130373D01*
X117233723Y-133130373D02*
X117233723Y-133049421D01*
X117471819Y-133089897D02*
X117424200Y-133008945D01*
X117424200Y-133008945D02*
X117328961Y-132927992D01*
X117328961Y-132927992D02*
X117138485Y-132887516D01*
X117138485Y-132887516D02*
X116805152Y-132887516D01*
X116805152Y-132887516D02*
X116614676Y-132927992D01*
X116614676Y-132927992D02*
X116519438Y-133008945D01*
X116519438Y-133008945D02*
X116471819Y-133089897D01*
X116471819Y-133089897D02*
X116471819Y-133251802D01*
X116471819Y-133251802D02*
X116519438Y-133332754D01*
X116519438Y-133332754D02*
X116614676Y-133413707D01*
X116614676Y-133413707D02*
X116805152Y-133454183D01*
X116805152Y-133454183D02*
X117138485Y-133454183D01*
X117138485Y-133454183D02*
X117328961Y-133413707D01*
X117328961Y-133413707D02*
X117424200Y-133332754D01*
X117424200Y-133332754D02*
X117471819Y-133251802D01*
X117471819Y-133251802D02*
X117471819Y-133089897D01*
X116805152Y-134182754D02*
X117471819Y-134182754D01*
X116424200Y-133980373D02*
X117138485Y-133777992D01*
X117138485Y-133777992D02*
X117138485Y-134304183D01*
X147962927Y-131748753D02*
X146962927Y-131748753D01*
X146962927Y-131748753D02*
X147677212Y-132082086D01*
X147677212Y-132082086D02*
X146962927Y-132415419D01*
X146962927Y-132415419D02*
X147962927Y-132415419D01*
X148058165Y-132653515D02*
X148058165Y-133415419D01*
X147962927Y-134224943D02*
X147486736Y-133891610D01*
X147962927Y-133653515D02*
X146962927Y-133653515D01*
X146962927Y-133653515D02*
X146962927Y-134034467D01*
X146962927Y-134034467D02*
X147010546Y-134129705D01*
X147010546Y-134129705D02*
X147058165Y-134177324D01*
X147058165Y-134177324D02*
X147153403Y-134224943D01*
X147153403Y-134224943D02*
X147296260Y-134224943D01*
X147296260Y-134224943D02*
X147391498Y-134177324D01*
X147391498Y-134177324D02*
X147439117Y-134129705D01*
X147439117Y-134129705D02*
X147486736Y-134034467D01*
X147486736Y-134034467D02*
X147486736Y-133653515D01*
X146685308Y-131610658D02*
X146685308Y-134315420D01*
X132711819Y-131654779D02*
X131711819Y-131654779D01*
X131711819Y-131654779D02*
X131711819Y-131892874D01*
X131711819Y-131892874D02*
X131759438Y-132035731D01*
X131759438Y-132035731D02*
X131854676Y-132130969D01*
X131854676Y-132130969D02*
X131949914Y-132178588D01*
X131949914Y-132178588D02*
X132140390Y-132226207D01*
X132140390Y-132226207D02*
X132283247Y-132226207D01*
X132283247Y-132226207D02*
X132473723Y-132178588D01*
X132473723Y-132178588D02*
X132568961Y-132130969D01*
X132568961Y-132130969D02*
X132664200Y-132035731D01*
X132664200Y-132035731D02*
X132711819Y-131892874D01*
X132711819Y-131892874D02*
X132711819Y-131654779D01*
X132807057Y-133321445D02*
X132759438Y-133226207D01*
X132759438Y-133226207D02*
X132664200Y-133130969D01*
X132664200Y-133130969D02*
X132521342Y-132988112D01*
X132521342Y-132988112D02*
X132473723Y-132892874D01*
X132473723Y-132892874D02*
X132473723Y-132797636D01*
X132711819Y-132845255D02*
X132664200Y-132750017D01*
X132664200Y-132750017D02*
X132568961Y-132654779D01*
X132568961Y-132654779D02*
X132378485Y-132607160D01*
X132378485Y-132607160D02*
X132045152Y-132607160D01*
X132045152Y-132607160D02*
X131854676Y-132654779D01*
X131854676Y-132654779D02*
X131759438Y-132750017D01*
X131759438Y-132750017D02*
X131711819Y-132845255D01*
X131711819Y-132845255D02*
X131711819Y-133035731D01*
X131711819Y-133035731D02*
X131759438Y-133130969D01*
X131759438Y-133130969D02*
X131854676Y-133226207D01*
X131854676Y-133226207D02*
X132045152Y-133273826D01*
X132045152Y-133273826D02*
X132378485Y-133273826D01*
X132378485Y-133273826D02*
X132568961Y-133226207D01*
X132568961Y-133226207D02*
X132664200Y-133130969D01*
X132664200Y-133130969D02*
X132711819Y-133035731D01*
X132711819Y-133035731D02*
X132711819Y-132845255D01*
X132711819Y-134226207D02*
X132711819Y-133654779D01*
X132711819Y-133940493D02*
X131711819Y-133940493D01*
X131711819Y-133940493D02*
X131854676Y-133845255D01*
X131854676Y-133845255D02*
X131949914Y-133750017D01*
X131949914Y-133750017D02*
X131997533Y-133654779D01*
X174940013Y-132232013D02*
X174892394Y-132136775D01*
X174892394Y-132136775D02*
X174892394Y-131993918D01*
X174892394Y-131993918D02*
X174940013Y-131851061D01*
X174940013Y-131851061D02*
X175035251Y-131755823D01*
X175035251Y-131755823D02*
X175130489Y-131708204D01*
X175130489Y-131708204D02*
X175320965Y-131660585D01*
X175320965Y-131660585D02*
X175463822Y-131660585D01*
X175463822Y-131660585D02*
X175654298Y-131708204D01*
X175654298Y-131708204D02*
X175749536Y-131755823D01*
X175749536Y-131755823D02*
X175844775Y-131851061D01*
X175844775Y-131851061D02*
X175892394Y-131993918D01*
X175892394Y-131993918D02*
X175892394Y-132089156D01*
X175892394Y-132089156D02*
X175844775Y-132232013D01*
X175844775Y-132232013D02*
X175797155Y-132279632D01*
X175797155Y-132279632D02*
X175463822Y-132279632D01*
X175463822Y-132279632D02*
X175463822Y-132089156D01*
X175892394Y-132708204D02*
X174892394Y-132708204D01*
X174892394Y-132708204D02*
X175892394Y-133279632D01*
X175892394Y-133279632D02*
X174892394Y-133279632D01*
X175892394Y-133755823D02*
X174892394Y-133755823D01*
X174892394Y-133755823D02*
X174892394Y-133993918D01*
X174892394Y-133993918D02*
X174940013Y-134136775D01*
X174940013Y-134136775D02*
X175035251Y-134232013D01*
X175035251Y-134232013D02*
X175130489Y-134279632D01*
X175130489Y-134279632D02*
X175320965Y-134327251D01*
X175320965Y-134327251D02*
X175463822Y-134327251D01*
X175463822Y-134327251D02*
X175654298Y-134279632D01*
X175654298Y-134279632D02*
X175749536Y-134232013D01*
X175749536Y-134232013D02*
X175844775Y-134136775D01*
X175844775Y-134136775D02*
X175892394Y-133993918D01*
X175892394Y-133993918D02*
X175892394Y-133755823D01*
X140342333Y-131759862D02*
X139342333Y-131759862D01*
X139342333Y-131759862D02*
X139342333Y-131997957D01*
X139342333Y-131997957D02*
X139389952Y-132140814D01*
X139389952Y-132140814D02*
X139485190Y-132236052D01*
X139485190Y-132236052D02*
X139580428Y-132283671D01*
X139580428Y-132283671D02*
X139770904Y-132331290D01*
X139770904Y-132331290D02*
X139913761Y-132331290D01*
X139913761Y-132331290D02*
X140104237Y-132283671D01*
X140104237Y-132283671D02*
X140199475Y-132236052D01*
X140199475Y-132236052D02*
X140294714Y-132140814D01*
X140294714Y-132140814D02*
X140342333Y-131997957D01*
X140342333Y-131997957D02*
X140342333Y-131759862D01*
X140342333Y-132759862D02*
X139342333Y-132759862D01*
X140342333Y-133331290D02*
X139770904Y-132902719D01*
X139342333Y-133331290D02*
X139913761Y-132759862D01*
X139342333Y-133664624D02*
X139342333Y-134283671D01*
X139342333Y-134283671D02*
X139723285Y-133950338D01*
X139723285Y-133950338D02*
X139723285Y-134093195D01*
X139723285Y-134093195D02*
X139770904Y-134188433D01*
X139770904Y-134188433D02*
X139818523Y-134236052D01*
X139818523Y-134236052D02*
X139913761Y-134283671D01*
X139913761Y-134283671D02*
X140151856Y-134283671D01*
X140151856Y-134283671D02*
X140247094Y-134236052D01*
X140247094Y-134236052D02*
X140294714Y-134188433D01*
X140294714Y-134188433D02*
X140342333Y-134093195D01*
X140342333Y-134093195D02*
X140342333Y-133807481D01*
X140342333Y-133807481D02*
X140294714Y-133712243D01*
X140294714Y-133712243D02*
X140247094Y-133664624D01*
X139064714Y-131621767D02*
X139064714Y-134374148D01*
X155571819Y-132432588D02*
X155571819Y-131861160D01*
X155571819Y-132146874D02*
X154571819Y-132146874D01*
X154571819Y-132146874D02*
X154714676Y-132051636D01*
X154714676Y-132051636D02*
X154809914Y-131956398D01*
X154809914Y-131956398D02*
X154857533Y-131861160D01*
X154667057Y-132813541D02*
X154619438Y-132861160D01*
X154619438Y-132861160D02*
X154571819Y-132956398D01*
X154571819Y-132956398D02*
X154571819Y-133194493D01*
X154571819Y-133194493D02*
X154619438Y-133289731D01*
X154619438Y-133289731D02*
X154667057Y-133337350D01*
X154667057Y-133337350D02*
X154762295Y-133384969D01*
X154762295Y-133384969D02*
X154857533Y-133384969D01*
X154857533Y-133384969D02*
X155000390Y-133337350D01*
X155000390Y-133337350D02*
X155571819Y-132765922D01*
X155571819Y-132765922D02*
X155571819Y-133384969D01*
X154571819Y-133670684D02*
X155571819Y-134004017D01*
X155571819Y-134004017D02*
X154571819Y-134337350D01*
X152079438Y-132232013D02*
X152031819Y-132136775D01*
X152031819Y-132136775D02*
X152031819Y-131993918D01*
X152031819Y-131993918D02*
X152079438Y-131851061D01*
X152079438Y-131851061D02*
X152174676Y-131755823D01*
X152174676Y-131755823D02*
X152269914Y-131708204D01*
X152269914Y-131708204D02*
X152460390Y-131660585D01*
X152460390Y-131660585D02*
X152603247Y-131660585D01*
X152603247Y-131660585D02*
X152793723Y-131708204D01*
X152793723Y-131708204D02*
X152888961Y-131755823D01*
X152888961Y-131755823D02*
X152984200Y-131851061D01*
X152984200Y-131851061D02*
X153031819Y-131993918D01*
X153031819Y-131993918D02*
X153031819Y-132089156D01*
X153031819Y-132089156D02*
X152984200Y-132232013D01*
X152984200Y-132232013D02*
X152936580Y-132279632D01*
X152936580Y-132279632D02*
X152603247Y-132279632D01*
X152603247Y-132279632D02*
X152603247Y-132089156D01*
X153031819Y-132708204D02*
X152031819Y-132708204D01*
X152031819Y-132708204D02*
X153031819Y-133279632D01*
X153031819Y-133279632D02*
X152031819Y-133279632D01*
X153031819Y-133755823D02*
X152031819Y-133755823D01*
X152031819Y-133755823D02*
X152031819Y-133993918D01*
X152031819Y-133993918D02*
X152079438Y-134136775D01*
X152079438Y-134136775D02*
X152174676Y-134232013D01*
X152174676Y-134232013D02*
X152269914Y-134279632D01*
X152269914Y-134279632D02*
X152460390Y-134327251D01*
X152460390Y-134327251D02*
X152603247Y-134327251D01*
X152603247Y-134327251D02*
X152793723Y-134279632D01*
X152793723Y-134279632D02*
X152888961Y-134232013D01*
X152888961Y-134232013D02*
X152984200Y-134136775D01*
X152984200Y-134136775D02*
X153031819Y-133993918D01*
X153031819Y-133993918D02*
X153031819Y-133755823D01*
X127531898Y-132340779D02*
X127579518Y-132293160D01*
X127579518Y-132293160D02*
X127627137Y-132150303D01*
X127627137Y-132150303D02*
X127627137Y-132055065D01*
X127627137Y-132055065D02*
X127579518Y-131912208D01*
X127579518Y-131912208D02*
X127484279Y-131816970D01*
X127484279Y-131816970D02*
X127389041Y-131769351D01*
X127389041Y-131769351D02*
X127198565Y-131721732D01*
X127198565Y-131721732D02*
X127055708Y-131721732D01*
X127055708Y-131721732D02*
X126865232Y-131769351D01*
X126865232Y-131769351D02*
X126769994Y-131816970D01*
X126769994Y-131816970D02*
X126674756Y-131912208D01*
X126674756Y-131912208D02*
X126627137Y-132055065D01*
X126627137Y-132055065D02*
X126627137Y-132150303D01*
X126627137Y-132150303D02*
X126674756Y-132293160D01*
X126674756Y-132293160D02*
X126722375Y-132340779D01*
X127627137Y-133245541D02*
X127627137Y-132769351D01*
X127627137Y-132769351D02*
X126627137Y-132769351D01*
X127627137Y-133578875D02*
X126627137Y-133578875D01*
X127627137Y-134150303D02*
X127055708Y-133721732D01*
X126627137Y-134150303D02*
X127198565Y-133578875D01*
X150491819Y-131884969D02*
X149491819Y-131884969D01*
X149491819Y-131884969D02*
X150206104Y-132184969D01*
X150206104Y-132184969D02*
X149491819Y-132484969D01*
X149491819Y-132484969D02*
X150491819Y-132484969D01*
X150587057Y-132699255D02*
X150587057Y-133384969D01*
X149491819Y-133513540D02*
X150491819Y-133727826D01*
X150491819Y-133727826D02*
X149777533Y-133899254D01*
X149777533Y-133899254D02*
X150491819Y-134070683D01*
X150491819Y-134070683D02*
X149491819Y-134284969D01*
X149214200Y-131760684D02*
X149214200Y-134323540D01*
X158111819Y-131908779D02*
X157111819Y-131908779D01*
X157111819Y-131908779D02*
X158111819Y-132480207D01*
X158111819Y-132480207D02*
X157111819Y-132480207D01*
X158016580Y-133527826D02*
X158064200Y-133480207D01*
X158064200Y-133480207D02*
X158111819Y-133337350D01*
X158111819Y-133337350D02*
X158111819Y-133242112D01*
X158111819Y-133242112D02*
X158064200Y-133099255D01*
X158064200Y-133099255D02*
X157968961Y-133004017D01*
X157968961Y-133004017D02*
X157873723Y-132956398D01*
X157873723Y-132956398D02*
X157683247Y-132908779D01*
X157683247Y-132908779D02*
X157540390Y-132908779D01*
X157540390Y-132908779D02*
X157349914Y-132956398D01*
X157349914Y-132956398D02*
X157254676Y-133004017D01*
X157254676Y-133004017D02*
X157159438Y-133099255D01*
X157159438Y-133099255D02*
X157111819Y-133242112D01*
X157111819Y-133242112D02*
X157111819Y-133337350D01*
X157111819Y-133337350D02*
X157159438Y-133480207D01*
X157159438Y-133480207D02*
X157207057Y-133527826D01*
D12*
X180006724Y-43155736D02*
X180223391Y-42846212D01*
X180378153Y-43155736D02*
X180378153Y-42505736D01*
X180378153Y-42505736D02*
X180130534Y-42505736D01*
X180130534Y-42505736D02*
X180068629Y-42536688D01*
X180068629Y-42536688D02*
X180037676Y-42567641D01*
X180037676Y-42567641D02*
X180006724Y-42629545D01*
X180006724Y-42629545D02*
X180006724Y-42722403D01*
X180006724Y-42722403D02*
X180037676Y-42784307D01*
X180037676Y-42784307D02*
X180068629Y-42815260D01*
X180068629Y-42815260D02*
X180130534Y-42846212D01*
X180130534Y-42846212D02*
X180378153Y-42846212D01*
X179728153Y-42815260D02*
X179511486Y-42815260D01*
X179418629Y-43155736D02*
X179728153Y-43155736D01*
X179728153Y-43155736D02*
X179728153Y-42505736D01*
X179728153Y-42505736D02*
X179418629Y-42505736D01*
X179171010Y-42970022D02*
X178861486Y-42970022D01*
X179232915Y-43155736D02*
X179016248Y-42505736D01*
X179016248Y-42505736D02*
X178799581Y-43155736D01*
X178211486Y-43155736D02*
X178428153Y-42846212D01*
X178582915Y-43155736D02*
X178582915Y-42505736D01*
X178582915Y-42505736D02*
X178335296Y-42505736D01*
X178335296Y-42505736D02*
X178273391Y-42536688D01*
X178273391Y-42536688D02*
X178242438Y-42567641D01*
X178242438Y-42567641D02*
X178211486Y-42629545D01*
X178211486Y-42629545D02*
X178211486Y-42722403D01*
X178211486Y-42722403D02*
X178242438Y-42784307D01*
X178242438Y-42784307D02*
X178273391Y-42815260D01*
X178273391Y-42815260D02*
X178335296Y-42846212D01*
X178335296Y-42846212D02*
X178582915Y-42846212D01*
D11*
X135248916Y-131759862D02*
X134248916Y-131759862D01*
X134248916Y-131759862D02*
X134248916Y-131997957D01*
X134248916Y-131997957D02*
X134296535Y-132140814D01*
X134296535Y-132140814D02*
X134391773Y-132236052D01*
X134391773Y-132236052D02*
X134487011Y-132283671D01*
X134487011Y-132283671D02*
X134677487Y-132331290D01*
X134677487Y-132331290D02*
X134820344Y-132331290D01*
X134820344Y-132331290D02*
X135010820Y-132283671D01*
X135010820Y-132283671D02*
X135106058Y-132236052D01*
X135106058Y-132236052D02*
X135201297Y-132140814D01*
X135201297Y-132140814D02*
X135248916Y-131997957D01*
X135248916Y-131997957D02*
X135248916Y-131759862D01*
X135248916Y-132759862D02*
X134248916Y-132759862D01*
X135248916Y-133331290D02*
X134677487Y-132902719D01*
X134248916Y-133331290D02*
X134820344Y-132759862D01*
X135248916Y-134283671D02*
X135248916Y-133712243D01*
X135248916Y-133997957D02*
X134248916Y-133997957D01*
X134248916Y-133997957D02*
X134391773Y-133902719D01*
X134391773Y-133902719D02*
X134487011Y-133807481D01*
X134487011Y-133807481D02*
X134534630Y-133712243D01*
X133971297Y-131621767D02*
X133971297Y-134374148D01*
X169811819Y-132384969D02*
X169811819Y-131908779D01*
X169811819Y-131908779D02*
X170288009Y-131861160D01*
X170288009Y-131861160D02*
X170240390Y-131908779D01*
X170240390Y-131908779D02*
X170192771Y-132004017D01*
X170192771Y-132004017D02*
X170192771Y-132242112D01*
X170192771Y-132242112D02*
X170240390Y-132337350D01*
X170240390Y-132337350D02*
X170288009Y-132384969D01*
X170288009Y-132384969D02*
X170383247Y-132432588D01*
X170383247Y-132432588D02*
X170621342Y-132432588D01*
X170621342Y-132432588D02*
X170716580Y-132384969D01*
X170716580Y-132384969D02*
X170764200Y-132337350D01*
X170764200Y-132337350D02*
X170811819Y-132242112D01*
X170811819Y-132242112D02*
X170811819Y-132004017D01*
X170811819Y-132004017D02*
X170764200Y-131908779D01*
X170764200Y-131908779D02*
X170716580Y-131861160D01*
X169811819Y-132718303D02*
X170811819Y-133051636D01*
X170811819Y-133051636D02*
X169811819Y-133384969D01*
X173355872Y-132336143D02*
X172879681Y-132002810D01*
X173355872Y-131764715D02*
X172355872Y-131764715D01*
X172355872Y-131764715D02*
X172355872Y-132145667D01*
X172355872Y-132145667D02*
X172403491Y-132240905D01*
X172403491Y-132240905D02*
X172451110Y-132288524D01*
X172451110Y-132288524D02*
X172546348Y-132336143D01*
X172546348Y-132336143D02*
X172689205Y-132336143D01*
X172689205Y-132336143D02*
X172784443Y-132288524D01*
X172784443Y-132288524D02*
X172832062Y-132240905D01*
X172832062Y-132240905D02*
X172879681Y-132145667D01*
X172879681Y-132145667D02*
X172879681Y-131764715D01*
X173308253Y-132717096D02*
X173355872Y-132859953D01*
X173355872Y-132859953D02*
X173355872Y-133098048D01*
X173355872Y-133098048D02*
X173308253Y-133193286D01*
X173308253Y-133193286D02*
X173260633Y-133240905D01*
X173260633Y-133240905D02*
X173165395Y-133288524D01*
X173165395Y-133288524D02*
X173070157Y-133288524D01*
X173070157Y-133288524D02*
X172974919Y-133240905D01*
X172974919Y-133240905D02*
X172927300Y-133193286D01*
X172927300Y-133193286D02*
X172879681Y-133098048D01*
X172879681Y-133098048D02*
X172832062Y-132907572D01*
X172832062Y-132907572D02*
X172784443Y-132812334D01*
X172784443Y-132812334D02*
X172736824Y-132764715D01*
X172736824Y-132764715D02*
X172641586Y-132717096D01*
X172641586Y-132717096D02*
X172546348Y-132717096D01*
X172546348Y-132717096D02*
X172451110Y-132764715D01*
X172451110Y-132764715D02*
X172403491Y-132812334D01*
X172403491Y-132812334D02*
X172355872Y-132907572D01*
X172355872Y-132907572D02*
X172355872Y-133145667D01*
X172355872Y-133145667D02*
X172403491Y-133288524D01*
X172355872Y-133574239D02*
X172355872Y-134145667D01*
X173355872Y-133859953D02*
X172355872Y-133859953D01*
X125081934Y-131673230D02*
X124081934Y-131673230D01*
X125081934Y-132563707D02*
X124605743Y-132280373D01*
X125081934Y-132077992D02*
X124081934Y-132077992D01*
X124081934Y-132077992D02*
X124081934Y-132401802D01*
X124081934Y-132401802D02*
X124129553Y-132482754D01*
X124129553Y-132482754D02*
X124177172Y-132523231D01*
X124177172Y-132523231D02*
X124272410Y-132563707D01*
X124272410Y-132563707D02*
X124415267Y-132563707D01*
X124415267Y-132563707D02*
X124510505Y-132523231D01*
X124510505Y-132523231D02*
X124558124Y-132482754D01*
X124558124Y-132482754D02*
X124605743Y-132401802D01*
X124605743Y-132401802D02*
X124605743Y-132077992D01*
X125177172Y-133494659D02*
X125129553Y-133413707D01*
X125129553Y-133413707D02*
X125034315Y-133332754D01*
X125034315Y-133332754D02*
X124891457Y-133211326D01*
X124891457Y-133211326D02*
X124843838Y-133130373D01*
X124843838Y-133130373D02*
X124843838Y-133049421D01*
X125081934Y-133089897D02*
X125034315Y-133008945D01*
X125034315Y-133008945D02*
X124939076Y-132927992D01*
X124939076Y-132927992D02*
X124748600Y-132887516D01*
X124748600Y-132887516D02*
X124415267Y-132887516D01*
X124415267Y-132887516D02*
X124224791Y-132927992D01*
X124224791Y-132927992D02*
X124129553Y-133008945D01*
X124129553Y-133008945D02*
X124081934Y-133089897D01*
X124081934Y-133089897D02*
X124081934Y-133251802D01*
X124081934Y-133251802D02*
X124129553Y-133332754D01*
X124129553Y-133332754D02*
X124224791Y-133413707D01*
X124224791Y-133413707D02*
X124415267Y-133454183D01*
X124415267Y-133454183D02*
X124748600Y-133454183D01*
X124748600Y-133454183D02*
X124939076Y-133413707D01*
X124939076Y-133413707D02*
X125034315Y-133332754D01*
X125034315Y-133332754D02*
X125081934Y-133251802D01*
X125081934Y-133251802D02*
X125081934Y-133089897D01*
X124081934Y-133737516D02*
X124081934Y-134304183D01*
X124081934Y-134304183D02*
X125081934Y-133939897D01*
D12*
X176680469Y-129849437D02*
X176642374Y-129778009D01*
X176642374Y-129778009D02*
X176642374Y-129670866D01*
X176642374Y-129670866D02*
X176680469Y-129563723D01*
X176680469Y-129563723D02*
X176756659Y-129492294D01*
X176756659Y-129492294D02*
X176832850Y-129456580D01*
X176832850Y-129456580D02*
X176985231Y-129420866D01*
X176985231Y-129420866D02*
X177099517Y-129420866D01*
X177099517Y-129420866D02*
X177251898Y-129456580D01*
X177251898Y-129456580D02*
X177328088Y-129492294D01*
X177328088Y-129492294D02*
X177404279Y-129563723D01*
X177404279Y-129563723D02*
X177442374Y-129670866D01*
X177442374Y-129670866D02*
X177442374Y-129742294D01*
X177442374Y-129742294D02*
X177404279Y-129849437D01*
X177404279Y-129849437D02*
X177366183Y-129885151D01*
X177366183Y-129885151D02*
X177099517Y-129885151D01*
X177099517Y-129885151D02*
X177099517Y-129742294D01*
X177442374Y-130206580D02*
X176642374Y-130206580D01*
X176642374Y-130206580D02*
X177442374Y-130635151D01*
X177442374Y-130635151D02*
X176642374Y-130635151D01*
X177442374Y-130992294D02*
X176642374Y-130992294D01*
X176642374Y-130992294D02*
X176642374Y-131170865D01*
X176642374Y-131170865D02*
X176680469Y-131278008D01*
X176680469Y-131278008D02*
X176756659Y-131349437D01*
X176756659Y-131349437D02*
X176832850Y-131385151D01*
X176832850Y-131385151D02*
X176985231Y-131420865D01*
X176985231Y-131420865D02*
X177099517Y-131420865D01*
X177099517Y-131420865D02*
X177251898Y-131385151D01*
X177251898Y-131385151D02*
X177328088Y-131349437D01*
X177328088Y-131349437D02*
X177404279Y-131278008D01*
X177404279Y-131278008D02*
X177442374Y-131170865D01*
X177442374Y-131170865D02*
X177442374Y-130992294D01*
D11*
X145413544Y-131908779D02*
X144413544Y-131908779D01*
X144413544Y-132575445D02*
X144413544Y-132765921D01*
X144413544Y-132765921D02*
X144461163Y-132861159D01*
X144461163Y-132861159D02*
X144556401Y-132956397D01*
X144556401Y-132956397D02*
X144746877Y-133004016D01*
X144746877Y-133004016D02*
X145080210Y-133004016D01*
X145080210Y-133004016D02*
X145270686Y-132956397D01*
X145270686Y-132956397D02*
X145365925Y-132861159D01*
X145365925Y-132861159D02*
X145413544Y-132765921D01*
X145413544Y-132765921D02*
X145413544Y-132575445D01*
X145413544Y-132575445D02*
X145365925Y-132480207D01*
X145365925Y-132480207D02*
X145270686Y-132384969D01*
X145270686Y-132384969D02*
X145080210Y-132337350D01*
X145080210Y-132337350D02*
X144746877Y-132337350D01*
X144746877Y-132337350D02*
X144556401Y-132384969D01*
X144556401Y-132384969D02*
X144461163Y-132480207D01*
X144461163Y-132480207D02*
X144413544Y-132575445D01*
X144413544Y-133337350D02*
X145413544Y-133575445D01*
X145413544Y-133575445D02*
X144699258Y-133765921D01*
X144699258Y-133765921D02*
X145413544Y-133956397D01*
X145413544Y-133956397D02*
X144413544Y-134194493D01*
X144135925Y-131770684D02*
X144135925Y-134237350D01*
X98737713Y-132219122D02*
X98690094Y-132123884D01*
X98690094Y-132123884D02*
X98690094Y-131981027D01*
X98690094Y-131981027D02*
X98737713Y-131838170D01*
X98737713Y-131838170D02*
X98832951Y-131742932D01*
X98832951Y-131742932D02*
X98928189Y-131695313D01*
X98928189Y-131695313D02*
X99118665Y-131647694D01*
X99118665Y-131647694D02*
X99261522Y-131647694D01*
X99261522Y-131647694D02*
X99451998Y-131695313D01*
X99451998Y-131695313D02*
X99547236Y-131742932D01*
X99547236Y-131742932D02*
X99642475Y-131838170D01*
X99642475Y-131838170D02*
X99690094Y-131981027D01*
X99690094Y-131981027D02*
X99690094Y-132076265D01*
X99690094Y-132076265D02*
X99642475Y-132219122D01*
X99642475Y-132219122D02*
X99594855Y-132266741D01*
X99594855Y-132266741D02*
X99261522Y-132266741D01*
X99261522Y-132266741D02*
X99261522Y-132076265D01*
X99690094Y-132695313D02*
X98690094Y-132695313D01*
X98690094Y-132695313D02*
X99690094Y-133266741D01*
X99690094Y-133266741D02*
X98690094Y-133266741D01*
X99690094Y-133742932D02*
X98690094Y-133742932D01*
X98690094Y-133742932D02*
X98690094Y-133981027D01*
X98690094Y-133981027D02*
X98737713Y-134123884D01*
X98737713Y-134123884D02*
X98832951Y-134219122D01*
X98832951Y-134219122D02*
X98928189Y-134266741D01*
X98928189Y-134266741D02*
X99118665Y-134314360D01*
X99118665Y-134314360D02*
X99261522Y-134314360D01*
X99261522Y-134314360D02*
X99451998Y-134266741D01*
X99451998Y-134266741D02*
X99547236Y-134219122D01*
X99547236Y-134219122D02*
X99642475Y-134123884D01*
X99642475Y-134123884D02*
X99690094Y-133981027D01*
X99690094Y-133981027D02*
X99690094Y-133742932D01*
X101224611Y-131885789D02*
X101224611Y-132076265D01*
X101224611Y-132076265D02*
X101272230Y-132171503D01*
X101272230Y-132171503D02*
X101367468Y-132266741D01*
X101367468Y-132266741D02*
X101557944Y-132314360D01*
X101557944Y-132314360D02*
X101891277Y-132314360D01*
X101891277Y-132314360D02*
X102081753Y-132266741D01*
X102081753Y-132266741D02*
X102176992Y-132171503D01*
X102176992Y-132171503D02*
X102224611Y-132076265D01*
X102224611Y-132076265D02*
X102224611Y-131885789D01*
X102224611Y-131885789D02*
X102176992Y-131790551D01*
X102176992Y-131790551D02*
X102081753Y-131695313D01*
X102081753Y-131695313D02*
X101891277Y-131647694D01*
X101891277Y-131647694D02*
X101557944Y-131647694D01*
X101557944Y-131647694D02*
X101367468Y-131695313D01*
X101367468Y-131695313D02*
X101272230Y-131790551D01*
X101272230Y-131790551D02*
X101224611Y-131885789D01*
X102176992Y-132695313D02*
X102224611Y-132838170D01*
X102224611Y-132838170D02*
X102224611Y-133076265D01*
X102224611Y-133076265D02*
X102176992Y-133171503D01*
X102176992Y-133171503D02*
X102129372Y-133219122D01*
X102129372Y-133219122D02*
X102034134Y-133266741D01*
X102034134Y-133266741D02*
X101938896Y-133266741D01*
X101938896Y-133266741D02*
X101843658Y-133219122D01*
X101843658Y-133219122D02*
X101796039Y-133171503D01*
X101796039Y-133171503D02*
X101748420Y-133076265D01*
X101748420Y-133076265D02*
X101700801Y-132885789D01*
X101700801Y-132885789D02*
X101653182Y-132790551D01*
X101653182Y-132790551D02*
X101605563Y-132742932D01*
X101605563Y-132742932D02*
X101510325Y-132695313D01*
X101510325Y-132695313D02*
X101415087Y-132695313D01*
X101415087Y-132695313D02*
X101319849Y-132742932D01*
X101319849Y-132742932D02*
X101272230Y-132790551D01*
X101272230Y-132790551D02*
X101224611Y-132885789D01*
X101224611Y-132885789D02*
X101224611Y-133123884D01*
X101224611Y-133123884D02*
X101272230Y-133266741D01*
X102129372Y-134266741D02*
X102176992Y-134219122D01*
X102176992Y-134219122D02*
X102224611Y-134076265D01*
X102224611Y-134076265D02*
X102224611Y-133981027D01*
X102224611Y-133981027D02*
X102176992Y-133838170D01*
X102176992Y-133838170D02*
X102081753Y-133742932D01*
X102081753Y-133742932D02*
X101986515Y-133695313D01*
X101986515Y-133695313D02*
X101796039Y-133647694D01*
X101796039Y-133647694D02*
X101653182Y-133647694D01*
X101653182Y-133647694D02*
X101462706Y-133695313D01*
X101462706Y-133695313D02*
X101367468Y-133742932D01*
X101367468Y-133742932D02*
X101272230Y-133838170D01*
X101272230Y-133838170D02*
X101224611Y-133981027D01*
X101224611Y-133981027D02*
X101224611Y-134076265D01*
X101224611Y-134076265D02*
X101272230Y-134219122D01*
X101272230Y-134219122D02*
X101319849Y-134266741D01*
X142873544Y-131908779D02*
X141873544Y-131908779D01*
X141873544Y-132575445D02*
X141873544Y-132765921D01*
X141873544Y-132765921D02*
X141921163Y-132861159D01*
X141921163Y-132861159D02*
X142016401Y-132956397D01*
X142016401Y-132956397D02*
X142206877Y-133004016D01*
X142206877Y-133004016D02*
X142540210Y-133004016D01*
X142540210Y-133004016D02*
X142730686Y-132956397D01*
X142730686Y-132956397D02*
X142825925Y-132861159D01*
X142825925Y-132861159D02*
X142873544Y-132765921D01*
X142873544Y-132765921D02*
X142873544Y-132575445D01*
X142873544Y-132575445D02*
X142825925Y-132480207D01*
X142825925Y-132480207D02*
X142730686Y-132384969D01*
X142730686Y-132384969D02*
X142540210Y-132337350D01*
X142540210Y-132337350D02*
X142206877Y-132337350D01*
X142206877Y-132337350D02*
X142016401Y-132384969D01*
X142016401Y-132384969D02*
X141921163Y-132480207D01*
X141921163Y-132480207D02*
X141873544Y-132575445D01*
X142873544Y-134004016D02*
X142397353Y-133670683D01*
X142873544Y-133432588D02*
X141873544Y-133432588D01*
X141873544Y-133432588D02*
X141873544Y-133813540D01*
X141873544Y-133813540D02*
X141921163Y-133908778D01*
X141921163Y-133908778D02*
X141968782Y-133956397D01*
X141968782Y-133956397D02*
X142064020Y-134004016D01*
X142064020Y-134004016D02*
X142206877Y-134004016D01*
X142206877Y-134004016D02*
X142302115Y-133956397D01*
X142302115Y-133956397D02*
X142349734Y-133908778D01*
X142349734Y-133908778D02*
X142397353Y-133813540D01*
X142397353Y-133813540D02*
X142397353Y-133432588D01*
X141595925Y-131770684D02*
X141595925Y-134094493D01*
X120011819Y-131673230D02*
X119011819Y-131673230D01*
X120011819Y-132563707D02*
X119535628Y-132280373D01*
X120011819Y-132077992D02*
X119011819Y-132077992D01*
X119011819Y-132077992D02*
X119011819Y-132401802D01*
X119011819Y-132401802D02*
X119059438Y-132482754D01*
X119059438Y-132482754D02*
X119107057Y-132523231D01*
X119107057Y-132523231D02*
X119202295Y-132563707D01*
X119202295Y-132563707D02*
X119345152Y-132563707D01*
X119345152Y-132563707D02*
X119440390Y-132523231D01*
X119440390Y-132523231D02*
X119488009Y-132482754D01*
X119488009Y-132482754D02*
X119535628Y-132401802D01*
X119535628Y-132401802D02*
X119535628Y-132077992D01*
X120107057Y-133494659D02*
X120059438Y-133413707D01*
X120059438Y-133413707D02*
X119964200Y-133332754D01*
X119964200Y-133332754D02*
X119821342Y-133211326D01*
X119821342Y-133211326D02*
X119773723Y-133130373D01*
X119773723Y-133130373D02*
X119773723Y-133049421D01*
X120011819Y-133089897D02*
X119964200Y-133008945D01*
X119964200Y-133008945D02*
X119868961Y-132927992D01*
X119868961Y-132927992D02*
X119678485Y-132887516D01*
X119678485Y-132887516D02*
X119345152Y-132887516D01*
X119345152Y-132887516D02*
X119154676Y-132927992D01*
X119154676Y-132927992D02*
X119059438Y-133008945D01*
X119059438Y-133008945D02*
X119011819Y-133089897D01*
X119011819Y-133089897D02*
X119011819Y-133251802D01*
X119011819Y-133251802D02*
X119059438Y-133332754D01*
X119059438Y-133332754D02*
X119154676Y-133413707D01*
X119154676Y-133413707D02*
X119345152Y-133454183D01*
X119345152Y-133454183D02*
X119678485Y-133454183D01*
X119678485Y-133454183D02*
X119868961Y-133413707D01*
X119868961Y-133413707D02*
X119964200Y-133332754D01*
X119964200Y-133332754D02*
X120011819Y-133251802D01*
X120011819Y-133251802D02*
X120011819Y-133089897D01*
X119011819Y-134223230D02*
X119011819Y-133818468D01*
X119011819Y-133818468D02*
X119488009Y-133777992D01*
X119488009Y-133777992D02*
X119440390Y-133818468D01*
X119440390Y-133818468D02*
X119392771Y-133899421D01*
X119392771Y-133899421D02*
X119392771Y-134101802D01*
X119392771Y-134101802D02*
X119440390Y-134182754D01*
X119440390Y-134182754D02*
X119488009Y-134223230D01*
X119488009Y-134223230D02*
X119583247Y-134263707D01*
X119583247Y-134263707D02*
X119821342Y-134263707D01*
X119821342Y-134263707D02*
X119916580Y-134223230D01*
X119916580Y-134223230D02*
X119964200Y-134182754D01*
X119964200Y-134182754D02*
X120011819Y-134101802D01*
X120011819Y-134101802D02*
X120011819Y-133899421D01*
X120011819Y-133899421D02*
X119964200Y-133818468D01*
X119964200Y-133818468D02*
X119916580Y-133777992D01*
X108851819Y-131765922D02*
X108851819Y-132337350D01*
X109851819Y-132051636D02*
X108851819Y-132051636D01*
X108804200Y-133384969D02*
X110089914Y-132527827D01*
X109756580Y-134289731D02*
X109804200Y-134242112D01*
X109804200Y-134242112D02*
X109851819Y-134099255D01*
X109851819Y-134099255D02*
X109851819Y-134004017D01*
X109851819Y-134004017D02*
X109804200Y-133861160D01*
X109804200Y-133861160D02*
X109708961Y-133765922D01*
X109708961Y-133765922D02*
X109613723Y-133718303D01*
X109613723Y-133718303D02*
X109423247Y-133670684D01*
X109423247Y-133670684D02*
X109280390Y-133670684D01*
X109280390Y-133670684D02*
X109089914Y-133718303D01*
X109089914Y-133718303D02*
X108994676Y-133765922D01*
X108994676Y-133765922D02*
X108899438Y-133861160D01*
X108899438Y-133861160D02*
X108851819Y-134004017D01*
X108851819Y-134004017D02*
X108851819Y-134099255D01*
X108851819Y-134099255D02*
X108899438Y-134242112D01*
X108899438Y-134242112D02*
X108947057Y-134289731D01*
X165350866Y-131654779D02*
X165350866Y-132416684D01*
X164731819Y-133369064D02*
X164731819Y-132892874D01*
X164731819Y-132892874D02*
X165208009Y-132845255D01*
X165208009Y-132845255D02*
X165160390Y-132892874D01*
X165160390Y-132892874D02*
X165112771Y-132988112D01*
X165112771Y-132988112D02*
X165112771Y-133226207D01*
X165112771Y-133226207D02*
X165160390Y-133321445D01*
X165160390Y-133321445D02*
X165208009Y-133369064D01*
X165208009Y-133369064D02*
X165303247Y-133416683D01*
X165303247Y-133416683D02*
X165541342Y-133416683D01*
X165541342Y-133416683D02*
X165636580Y-133369064D01*
X165636580Y-133369064D02*
X165684200Y-133321445D01*
X165684200Y-133321445D02*
X165731819Y-133226207D01*
X165731819Y-133226207D02*
X165731819Y-132988112D01*
X165731819Y-132988112D02*
X165684200Y-132892874D01*
X165684200Y-132892874D02*
X165636580Y-132845255D01*
X164731819Y-133702398D02*
X165731819Y-134035731D01*
X165731819Y-134035731D02*
X164731819Y-134369064D01*
X97390009Y-130464112D02*
X97437628Y-130606969D01*
X97437628Y-130606969D02*
X97485247Y-130654588D01*
X97485247Y-130654588D02*
X97580485Y-130702207D01*
X97580485Y-130702207D02*
X97723342Y-130702207D01*
X97723342Y-130702207D02*
X97818580Y-130654588D01*
X97818580Y-130654588D02*
X97866200Y-130606969D01*
X97866200Y-130606969D02*
X97913819Y-130511731D01*
X97913819Y-130511731D02*
X97913819Y-130130779D01*
X97913819Y-130130779D02*
X96913819Y-130130779D01*
X96913819Y-130130779D02*
X96913819Y-130464112D01*
X96913819Y-130464112D02*
X96961438Y-130559350D01*
X96961438Y-130559350D02*
X97009057Y-130606969D01*
X97009057Y-130606969D02*
X97104295Y-130654588D01*
X97104295Y-130654588D02*
X97199533Y-130654588D01*
X97199533Y-130654588D02*
X97294771Y-130606969D01*
X97294771Y-130606969D02*
X97342390Y-130559350D01*
X97342390Y-130559350D02*
X97390009Y-130464112D01*
X97390009Y-130464112D02*
X97390009Y-130130779D01*
X97628104Y-131083160D02*
X97628104Y-131559350D01*
X97913819Y-130987922D02*
X96913819Y-131321255D01*
X96913819Y-131321255D02*
X97913819Y-131654588D01*
X97818580Y-132559350D02*
X97866200Y-132511731D01*
X97866200Y-132511731D02*
X97913819Y-132368874D01*
X97913819Y-132368874D02*
X97913819Y-132273636D01*
X97913819Y-132273636D02*
X97866200Y-132130779D01*
X97866200Y-132130779D02*
X97770961Y-132035541D01*
X97770961Y-132035541D02*
X97675723Y-131987922D01*
X97675723Y-131987922D02*
X97485247Y-131940303D01*
X97485247Y-131940303D02*
X97342390Y-131940303D01*
X97342390Y-131940303D02*
X97151914Y-131987922D01*
X97151914Y-131987922D02*
X97056676Y-132035541D01*
X97056676Y-132035541D02*
X96961438Y-132130779D01*
X96961438Y-132130779D02*
X96913819Y-132273636D01*
X96913819Y-132273636D02*
X96913819Y-132368874D01*
X96913819Y-132368874D02*
X96961438Y-132511731D01*
X96961438Y-132511731D02*
X97009057Y-132559350D01*
X97913819Y-132987922D02*
X96913819Y-132987922D01*
X97913819Y-133559350D02*
X97342390Y-133130779D01*
X96913819Y-133559350D02*
X97485247Y-132987922D01*
X114931819Y-131673230D02*
X113931819Y-131673230D01*
X114931819Y-132563707D02*
X114455628Y-132280373D01*
X114931819Y-132077992D02*
X113931819Y-132077992D01*
X113931819Y-132077992D02*
X113931819Y-132401802D01*
X113931819Y-132401802D02*
X113979438Y-132482754D01*
X113979438Y-132482754D02*
X114027057Y-132523231D01*
X114027057Y-132523231D02*
X114122295Y-132563707D01*
X114122295Y-132563707D02*
X114265152Y-132563707D01*
X114265152Y-132563707D02*
X114360390Y-132523231D01*
X114360390Y-132523231D02*
X114408009Y-132482754D01*
X114408009Y-132482754D02*
X114455628Y-132401802D01*
X114455628Y-132401802D02*
X114455628Y-132077992D01*
X115027057Y-133494659D02*
X114979438Y-133413707D01*
X114979438Y-133413707D02*
X114884200Y-133332754D01*
X114884200Y-133332754D02*
X114741342Y-133211326D01*
X114741342Y-133211326D02*
X114693723Y-133130373D01*
X114693723Y-133130373D02*
X114693723Y-133049421D01*
X114931819Y-133089897D02*
X114884200Y-133008945D01*
X114884200Y-133008945D02*
X114788961Y-132927992D01*
X114788961Y-132927992D02*
X114598485Y-132887516D01*
X114598485Y-132887516D02*
X114265152Y-132887516D01*
X114265152Y-132887516D02*
X114074676Y-132927992D01*
X114074676Y-132927992D02*
X113979438Y-133008945D01*
X113979438Y-133008945D02*
X113931819Y-133089897D01*
X113931819Y-133089897D02*
X113931819Y-133251802D01*
X113931819Y-133251802D02*
X113979438Y-133332754D01*
X113979438Y-133332754D02*
X114074676Y-133413707D01*
X114074676Y-133413707D02*
X114265152Y-133454183D01*
X114265152Y-133454183D02*
X114598485Y-133454183D01*
X114598485Y-133454183D02*
X114788961Y-133413707D01*
X114788961Y-133413707D02*
X114884200Y-133332754D01*
X114884200Y-133332754D02*
X114931819Y-133251802D01*
X114931819Y-133251802D02*
X114931819Y-133089897D01*
X113931819Y-133737516D02*
X113931819Y-134263707D01*
X113931819Y-134263707D02*
X114312771Y-133980373D01*
X114312771Y-133980373D02*
X114312771Y-134101802D01*
X114312771Y-134101802D02*
X114360390Y-134182754D01*
X114360390Y-134182754D02*
X114408009Y-134223230D01*
X114408009Y-134223230D02*
X114503247Y-134263707D01*
X114503247Y-134263707D02*
X114741342Y-134263707D01*
X114741342Y-134263707D02*
X114836580Y-134223230D01*
X114836580Y-134223230D02*
X114884200Y-134182754D01*
X114884200Y-134182754D02*
X114931819Y-134101802D01*
X114931819Y-134101802D02*
X114931819Y-133858945D01*
X114931819Y-133858945D02*
X114884200Y-133777992D01*
X114884200Y-133777992D02*
X114836580Y-133737516D01*
X107026104Y-131861160D02*
X107026104Y-132337350D01*
X107311819Y-131765922D02*
X106311819Y-132099255D01*
X106311819Y-132099255D02*
X107311819Y-132432588D01*
X107311819Y-133242112D02*
X107311819Y-132765922D01*
X107311819Y-132765922D02*
X106311819Y-132765922D01*
X106788009Y-133575446D02*
X106788009Y-133908779D01*
X107311819Y-134051636D02*
X107311819Y-133575446D01*
X107311819Y-133575446D02*
X106311819Y-133575446D01*
X106311819Y-133575446D02*
X106311819Y-134051636D01*
X112391819Y-131772255D02*
X111391819Y-131772255D01*
X111391819Y-131772255D02*
X111391819Y-132000826D01*
X111391819Y-132000826D02*
X111439438Y-132137969D01*
X111439438Y-132137969D02*
X111534676Y-132229398D01*
X111534676Y-132229398D02*
X111629914Y-132275112D01*
X111629914Y-132275112D02*
X111820390Y-132320826D01*
X111820390Y-132320826D02*
X111963247Y-132320826D01*
X111963247Y-132320826D02*
X112153723Y-132275112D01*
X112153723Y-132275112D02*
X112248961Y-132229398D01*
X112248961Y-132229398D02*
X112344200Y-132137969D01*
X112344200Y-132137969D02*
X112391819Y-132000826D01*
X112391819Y-132000826D02*
X112391819Y-131772255D01*
X112391819Y-132732255D02*
X111391819Y-132732255D01*
X112391819Y-133280826D02*
X111820390Y-132869398D01*
X111391819Y-133280826D02*
X111963247Y-132732255D01*
X111487057Y-133646541D02*
X111439438Y-133692255D01*
X111439438Y-133692255D02*
X111391819Y-133783684D01*
X111391819Y-133783684D02*
X111391819Y-134012255D01*
X111391819Y-134012255D02*
X111439438Y-134103684D01*
X111439438Y-134103684D02*
X111487057Y-134149398D01*
X111487057Y-134149398D02*
X111582295Y-134195112D01*
X111582295Y-134195112D02*
X111677533Y-134195112D01*
X111677533Y-134195112D02*
X111820390Y-134149398D01*
X111820390Y-134149398D02*
X112391819Y-133600826D01*
X112391819Y-133600826D02*
X112391819Y-134195112D01*
X111114200Y-131639684D02*
X111114200Y-134281970D01*
X130173544Y-131759862D02*
X129173544Y-131759862D01*
X129173544Y-131759862D02*
X129173544Y-131997957D01*
X129173544Y-131997957D02*
X129221163Y-132140814D01*
X129221163Y-132140814D02*
X129316401Y-132236052D01*
X129316401Y-132236052D02*
X129411639Y-132283671D01*
X129411639Y-132283671D02*
X129602115Y-132331290D01*
X129602115Y-132331290D02*
X129744972Y-132331290D01*
X129744972Y-132331290D02*
X129935448Y-132283671D01*
X129935448Y-132283671D02*
X130030686Y-132236052D01*
X130030686Y-132236052D02*
X130125925Y-132140814D01*
X130125925Y-132140814D02*
X130173544Y-131997957D01*
X130173544Y-131997957D02*
X130173544Y-131759862D01*
X130173544Y-132759862D02*
X129173544Y-132759862D01*
X130173544Y-133331290D02*
X129602115Y-132902719D01*
X129173544Y-133331290D02*
X129744972Y-132759862D01*
X129173544Y-133950338D02*
X129173544Y-134045576D01*
X129173544Y-134045576D02*
X129221163Y-134140814D01*
X129221163Y-134140814D02*
X129268782Y-134188433D01*
X129268782Y-134188433D02*
X129364020Y-134236052D01*
X129364020Y-134236052D02*
X129554496Y-134283671D01*
X129554496Y-134283671D02*
X129792591Y-134283671D01*
X129792591Y-134283671D02*
X129983067Y-134236052D01*
X129983067Y-134236052D02*
X130078305Y-134188433D01*
X130078305Y-134188433D02*
X130125925Y-134140814D01*
X130125925Y-134140814D02*
X130173544Y-134045576D01*
X130173544Y-134045576D02*
X130173544Y-133950338D01*
X130173544Y-133950338D02*
X130125925Y-133855100D01*
X130125925Y-133855100D02*
X130078305Y-133807481D01*
X130078305Y-133807481D02*
X129983067Y-133759862D01*
X129983067Y-133759862D02*
X129792591Y-133712243D01*
X129792591Y-133712243D02*
X129554496Y-133712243D01*
X129554496Y-133712243D02*
X129364020Y-133759862D01*
X129364020Y-133759862D02*
X129268782Y-133807481D01*
X129268782Y-133807481D02*
X129221163Y-133855100D01*
X129221163Y-133855100D02*
X129173544Y-133950338D01*
X128895925Y-131621767D02*
X128895925Y-134374148D01*
X163191819Y-131654779D02*
X162191819Y-131654779D01*
X162191819Y-131654779D02*
X162191819Y-131892874D01*
X162191819Y-131892874D02*
X162239438Y-132035731D01*
X162239438Y-132035731D02*
X162334676Y-132130969D01*
X162334676Y-132130969D02*
X162429914Y-132178588D01*
X162429914Y-132178588D02*
X162620390Y-132226207D01*
X162620390Y-132226207D02*
X162763247Y-132226207D01*
X162763247Y-132226207D02*
X162953723Y-132178588D01*
X162953723Y-132178588D02*
X163048961Y-132130969D01*
X163048961Y-132130969D02*
X163144200Y-132035731D01*
X163144200Y-132035731D02*
X163191819Y-131892874D01*
X163191819Y-131892874D02*
X163191819Y-131654779D01*
X163287057Y-133321445D02*
X163239438Y-133226207D01*
X163239438Y-133226207D02*
X163144200Y-133130969D01*
X163144200Y-133130969D02*
X163001342Y-132988112D01*
X163001342Y-132988112D02*
X162953723Y-132892874D01*
X162953723Y-132892874D02*
X162953723Y-132797636D01*
X163191819Y-132845255D02*
X163144200Y-132750017D01*
X163144200Y-132750017D02*
X163048961Y-132654779D01*
X163048961Y-132654779D02*
X162858485Y-132607160D01*
X162858485Y-132607160D02*
X162525152Y-132607160D01*
X162525152Y-132607160D02*
X162334676Y-132654779D01*
X162334676Y-132654779D02*
X162239438Y-132750017D01*
X162239438Y-132750017D02*
X162191819Y-132845255D01*
X162191819Y-132845255D02*
X162191819Y-133035731D01*
X162191819Y-133035731D02*
X162239438Y-133130969D01*
X162239438Y-133130969D02*
X162334676Y-133226207D01*
X162334676Y-133226207D02*
X162525152Y-133273826D01*
X162525152Y-133273826D02*
X162858485Y-133273826D01*
X162858485Y-133273826D02*
X163048961Y-133226207D01*
X163048961Y-133226207D02*
X163144200Y-133130969D01*
X163144200Y-133130969D02*
X163191819Y-133035731D01*
X163191819Y-133035731D02*
X163191819Y-132845255D01*
X162287057Y-133654779D02*
X162239438Y-133702398D01*
X162239438Y-133702398D02*
X162191819Y-133797636D01*
X162191819Y-133797636D02*
X162191819Y-134035731D01*
X162191819Y-134035731D02*
X162239438Y-134130969D01*
X162239438Y-134130969D02*
X162287057Y-134178588D01*
X162287057Y-134178588D02*
X162382295Y-134226207D01*
X162382295Y-134226207D02*
X162477533Y-134226207D01*
X162477533Y-134226207D02*
X162620390Y-134178588D01*
X162620390Y-134178588D02*
X163191819Y-133607160D01*
X163191819Y-133607160D02*
X163191819Y-134226207D01*
X122551819Y-131673230D02*
X121551819Y-131673230D01*
X122551819Y-132563707D02*
X122075628Y-132280373D01*
X122551819Y-132077992D02*
X121551819Y-132077992D01*
X121551819Y-132077992D02*
X121551819Y-132401802D01*
X121551819Y-132401802D02*
X121599438Y-132482754D01*
X121599438Y-132482754D02*
X121647057Y-132523231D01*
X121647057Y-132523231D02*
X121742295Y-132563707D01*
X121742295Y-132563707D02*
X121885152Y-132563707D01*
X121885152Y-132563707D02*
X121980390Y-132523231D01*
X121980390Y-132523231D02*
X122028009Y-132482754D01*
X122028009Y-132482754D02*
X122075628Y-132401802D01*
X122075628Y-132401802D02*
X122075628Y-132077992D01*
X122647057Y-133494659D02*
X122599438Y-133413707D01*
X122599438Y-133413707D02*
X122504200Y-133332754D01*
X122504200Y-133332754D02*
X122361342Y-133211326D01*
X122361342Y-133211326D02*
X122313723Y-133130373D01*
X122313723Y-133130373D02*
X122313723Y-133049421D01*
X122551819Y-133089897D02*
X122504200Y-133008945D01*
X122504200Y-133008945D02*
X122408961Y-132927992D01*
X122408961Y-132927992D02*
X122218485Y-132887516D01*
X122218485Y-132887516D02*
X121885152Y-132887516D01*
X121885152Y-132887516D02*
X121694676Y-132927992D01*
X121694676Y-132927992D02*
X121599438Y-133008945D01*
X121599438Y-133008945D02*
X121551819Y-133089897D01*
X121551819Y-133089897D02*
X121551819Y-133251802D01*
X121551819Y-133251802D02*
X121599438Y-133332754D01*
X121599438Y-133332754D02*
X121694676Y-133413707D01*
X121694676Y-133413707D02*
X121885152Y-133454183D01*
X121885152Y-133454183D02*
X122218485Y-133454183D01*
X122218485Y-133454183D02*
X122408961Y-133413707D01*
X122408961Y-133413707D02*
X122504200Y-133332754D01*
X122504200Y-133332754D02*
X122551819Y-133251802D01*
X122551819Y-133251802D02*
X122551819Y-133089897D01*
X121551819Y-134182754D02*
X121551819Y-134020849D01*
X121551819Y-134020849D02*
X121599438Y-133939897D01*
X121599438Y-133939897D02*
X121647057Y-133899421D01*
X121647057Y-133899421D02*
X121789914Y-133818468D01*
X121789914Y-133818468D02*
X121980390Y-133777992D01*
X121980390Y-133777992D02*
X122361342Y-133777992D01*
X122361342Y-133777992D02*
X122456580Y-133818468D01*
X122456580Y-133818468D02*
X122504200Y-133858945D01*
X122504200Y-133858945D02*
X122551819Y-133939897D01*
X122551819Y-133939897D02*
X122551819Y-134101802D01*
X122551819Y-134101802D02*
X122504200Y-134182754D01*
X122504200Y-134182754D02*
X122456580Y-134223230D01*
X122456580Y-134223230D02*
X122361342Y-134263707D01*
X122361342Y-134263707D02*
X122123247Y-134263707D01*
X122123247Y-134263707D02*
X122028009Y-134223230D01*
X122028009Y-134223230D02*
X121980390Y-134182754D01*
X121980390Y-134182754D02*
X121932771Y-134101802D01*
X121932771Y-134101802D02*
X121932771Y-133939897D01*
X121932771Y-133939897D02*
X121980390Y-133858945D01*
X121980390Y-133858945D02*
X122028009Y-133818468D01*
X122028009Y-133818468D02*
X122123247Y-133777992D01*
X137793544Y-131654779D02*
X136793544Y-131654779D01*
X136793544Y-131654779D02*
X136793544Y-131892874D01*
X136793544Y-131892874D02*
X136841163Y-132035731D01*
X136841163Y-132035731D02*
X136936401Y-132130969D01*
X136936401Y-132130969D02*
X137031639Y-132178588D01*
X137031639Y-132178588D02*
X137222115Y-132226207D01*
X137222115Y-132226207D02*
X137364972Y-132226207D01*
X137364972Y-132226207D02*
X137555448Y-132178588D01*
X137555448Y-132178588D02*
X137650686Y-132130969D01*
X137650686Y-132130969D02*
X137745925Y-132035731D01*
X137745925Y-132035731D02*
X137793544Y-131892874D01*
X137793544Y-131892874D02*
X137793544Y-131654779D01*
X137888782Y-133321445D02*
X137841163Y-133226207D01*
X137841163Y-133226207D02*
X137745925Y-133130969D01*
X137745925Y-133130969D02*
X137603067Y-132988112D01*
X137603067Y-132988112D02*
X137555448Y-132892874D01*
X137555448Y-132892874D02*
X137555448Y-132797636D01*
X137793544Y-132845255D02*
X137745925Y-132750017D01*
X137745925Y-132750017D02*
X137650686Y-132654779D01*
X137650686Y-132654779D02*
X137460210Y-132607160D01*
X137460210Y-132607160D02*
X137126877Y-132607160D01*
X137126877Y-132607160D02*
X136936401Y-132654779D01*
X136936401Y-132654779D02*
X136841163Y-132750017D01*
X136841163Y-132750017D02*
X136793544Y-132845255D01*
X136793544Y-132845255D02*
X136793544Y-133035731D01*
X136793544Y-133035731D02*
X136841163Y-133130969D01*
X136841163Y-133130969D02*
X136936401Y-133226207D01*
X136936401Y-133226207D02*
X137126877Y-133273826D01*
X137126877Y-133273826D02*
X137460210Y-133273826D01*
X137460210Y-133273826D02*
X137650686Y-133226207D01*
X137650686Y-133226207D02*
X137745925Y-133130969D01*
X137745925Y-133130969D02*
X137793544Y-133035731D01*
X137793544Y-133035731D02*
X137793544Y-132845255D01*
X136793544Y-133607160D02*
X136793544Y-134226207D01*
X136793544Y-134226207D02*
X137174496Y-133892874D01*
X137174496Y-133892874D02*
X137174496Y-134035731D01*
X137174496Y-134035731D02*
X137222115Y-134130969D01*
X137222115Y-134130969D02*
X137269734Y-134178588D01*
X137269734Y-134178588D02*
X137364972Y-134226207D01*
X137364972Y-134226207D02*
X137603067Y-134226207D01*
X137603067Y-134226207D02*
X137698305Y-134178588D01*
X137698305Y-134178588D02*
X137745925Y-134130969D01*
X137745925Y-134130969D02*
X137793544Y-134035731D01*
X137793544Y-134035731D02*
X137793544Y-133750017D01*
X137793544Y-133750017D02*
X137745925Y-133654779D01*
X137745925Y-133654779D02*
X137698305Y-133607160D01*
X103771819Y-132384969D02*
X103771819Y-131908779D01*
X103771819Y-131908779D02*
X104248009Y-131861160D01*
X104248009Y-131861160D02*
X104200390Y-131908779D01*
X104200390Y-131908779D02*
X104152771Y-132004017D01*
X104152771Y-132004017D02*
X104152771Y-132242112D01*
X104152771Y-132242112D02*
X104200390Y-132337350D01*
X104200390Y-132337350D02*
X104248009Y-132384969D01*
X104248009Y-132384969D02*
X104343247Y-132432588D01*
X104343247Y-132432588D02*
X104581342Y-132432588D01*
X104581342Y-132432588D02*
X104676580Y-132384969D01*
X104676580Y-132384969D02*
X104724200Y-132337350D01*
X104724200Y-132337350D02*
X104771819Y-132242112D01*
X104771819Y-132242112D02*
X104771819Y-132004017D01*
X104771819Y-132004017D02*
X104724200Y-131908779D01*
X104724200Y-131908779D02*
X104676580Y-131861160D01*
X103771819Y-132718303D02*
X104771819Y-133051636D01*
X104771819Y-133051636D02*
X103771819Y-133384969D01*
M02*
